solid No35_A_0-0010_L0-1283.stl
facet normal -0.016861 -0.025560 -0.000000
  outer loop
    vertex 0.030690 0.073611 1.000000
    vertex 0.030690 0.073611 0.000000
    vertex 0.056250 0.056750 0.000000
  endloop
endfacet
facet normal -0.016861 -0.025560 0.000000
  outer loop
    vertex 0.030690 0.073611 1.000000
    vertex 0.056250 0.056750 0.000000
    vertex 0.056250 0.056750 1.000000
  endloop
endfacet
facet normal 0.000313 0.000510 0.000000
  outer loop
    vertex 0.030690 0.073611 1.000000
    vertex 0.030690 0.073611 0.000000
    vertex 0.030181 0.073924 0.000000
  endloop
endfacet
facet normal -0.000313 -0.000510 0.000000
  outer loop
    vertex 0.030690 0.073611 1.000000
    vertex 0.030181 0.073924 1.000000
    vertex 0.030181 0.073924 0.000000
  endloop
endfacet
facet normal -0.001237 -0.000087 -0.000000
  outer loop
    vertex 0.059072 0.049882 1.000000
    vertex 0.058985 0.051118 0.000000
    vertex 0.059072 0.049882 0.000000
  endloop
endfacet
facet normal 0.001237 0.000087 0.000000
  outer loop
    vertex 0.059072 0.049882 1.000000
    vertex 0.058985 0.051118 0.000000
    vertex 0.058985 0.051118 1.000000
  endloop
endfacet
facet normal 0.000903 0.000506 -0.000000
  outer loop
    vertex 0.057602 0.055286 0.000000
    vertex 0.057602 0.055286 1.000000
    vertex 0.058108 0.054383 1.000000
  endloop
endfacet
facet normal 0.000903 0.000506 0.000000
  outer loop
    vertex 0.057602 0.055286 0.000000
    vertex 0.058108 0.054383 1.000000
    vertex 0.058108 0.054383 0.000000
  endloop
endfacet
facet normal 0.000671 0.000733 0.000000
  outer loop
    vertex 0.056983 0.056079 1.000000
    vertex 0.056983 0.056079 0.000000
    vertex 0.056250 0.056750 0.000000
  endloop
endfacet
facet normal 0.000671 0.000733 0.000000
  outer loop
    vertex 0.056983 0.056079 1.000000
    vertex 0.056250 0.056750 0.000000
    vertex 0.056250 0.056750 1.000000
  endloop
endfacet
facet normal 0.000793 0.000618 0.000000
  outer loop
    vertex 0.056983 0.056079 1.000000
    vertex 0.057602 0.055286 0.000000
    vertex 0.056983 0.056079 0.000000
  endloop
endfacet
facet normal -0.000793 -0.000618 0.000000
  outer loop
    vertex 0.056983 0.056079 1.000000
    vertex 0.057602 0.055286 0.000000
    vertex 0.057602 0.055286 1.000000
  endloop
endfacet
facet normal 0.001003 0.000397 0.000000
  outer loop
    vertex 0.058506 0.053380 1.000000
    vertex 0.058506 0.053380 0.000000
    vertex 0.058108 0.054383 0.000000
  endloop
endfacet
facet normal -0.001003 -0.000397 0.000000
  outer loop
    vertex 0.058506 0.053380 1.000000
    vertex 0.058108 0.054383 1.000000
    vertex 0.058108 0.054383 0.000000
  endloop
endfacet
facet normal 0.001194 -0.000890 0.000000
  outer loop
    vertex 0.054244 0.034957 0.000000
    vertex 0.054244 0.034957 1.000000
    vertex 0.053354 0.033762 1.000000
  endloop
endfacet
facet normal 0.001194 -0.000890 0.000000
  outer loop
    vertex 0.054244 0.034957 0.000000
    vertex 0.053354 0.033762 1.000000
    vertex 0.053354 0.033762 0.000000
  endloop
endfacet
facet normal 0.001595 0.000369 0.000000
  outer loop
    vertex 0.028236 0.040848 1.000000
    vertex 0.028236 0.040848 0.000000
    vertex 0.027867 0.042443 0.000000
  endloop
endfacet
facet normal -0.001595 -0.000369 0.000000
  outer loop
    vertex 0.028236 0.040848 1.000000
    vertex 0.027867 0.042443 1.000000
    vertex 0.027867 0.042443 0.000000
  endloop
endfacet
facet normal -0.000463 -0.000936 -0.000000
  outer loop
    vertex 0.035943 0.027714 1.000000
    vertex 0.035943 0.027714 0.000000
    vertex 0.036879 0.027251 0.000000
  endloop
endfacet
facet normal 0.000463 0.000936 0.000000
  outer loop
    vertex 0.035943 0.027714 1.000000
    vertex 0.036879 0.027251 1.000000
    vertex 0.036879 0.027251 0.000000
  endloop
endfacet
facet normal -0.000576 -0.000888 -0.000000
  outer loop
    vertex 0.035943 0.027714 1.000000
    vertex 0.035054 0.028290 0.000000
    vertex 0.035943 0.027714 0.000000
  endloop
endfacet
facet normal 0.000576 0.000888 0.000000
  outer loop
    vertex 0.035943 0.027714 1.000000
    vertex 0.035054 0.028290 0.000000
    vertex 0.035054 0.028290 1.000000
  endloop
endfacet
facet normal 0.000685 0.000841 0.000000
  outer loop
    vertex 0.034213 0.028975 1.000000
    vertex 0.035054 0.028290 0.000000
    vertex 0.034213 0.028975 0.000000
  endloop
endfacet
facet normal -0.000685 -0.000841 0.000000
  outer loop
    vertex 0.034213 0.028975 1.000000
    vertex 0.035054 0.028290 0.000000
    vertex 0.035054 0.028290 1.000000
  endloop
endfacet
facet normal -0.001367 0.000169 0.000000
  outer loop
    vertex 0.026575 0.066124 1.000000
    vertex 0.026744 0.067491 0.000000
    vertex 0.026575 0.066124 0.000000
  endloop
endfacet
facet normal 0.001367 -0.000169 0.000000
  outer loop
    vertex 0.026575 0.066124 1.000000
    vertex 0.026744 0.067491 0.000000
    vertex 0.026744 0.067491 1.000000
  endloop
endfacet
facet normal 0.001036 -0.000267 0.000000
  outer loop
    vertex 0.027181 0.069914 1.000000
    vertex 0.027181 0.069914 0.000000
    vertex 0.027448 0.070950 0.000000
  endloop
endfacet
facet normal 0.001036 -0.000267 0.000000
  outer loop
    vertex 0.027181 0.069914 1.000000
    vertex 0.027448 0.070950 0.000000
    vertex 0.027448 0.070950 1.000000
  endloop
endfacet
facet normal 0.000107 0.000481 0.000000
  outer loop
    vertex 0.029700 0.074031 1.000000
    vertex 0.030181 0.073924 1.000000
    vertex 0.030181 0.073924 0.000000
  endloop
endfacet
facet normal -0.000107 -0.000481 -0.000000
  outer loop
    vertex 0.029700 0.074031 1.000000
    vertex 0.029700 0.074031 0.000000
    vertex 0.030181 0.073924 0.000000
  endloop
endfacet
facet normal 0.001396 -0.000285 0.000000
  outer loop
    vertex 0.058761 0.045877 1.000000
    vertex 0.058477 0.044481 0.000000
    vertex 0.058761 0.045877 0.000000
  endloop
endfacet
facet normal 0.001396 -0.000285 0.000000
  outer loop
    vertex 0.058761 0.045877 1.000000
    vertex 0.058477 0.044481 1.000000
    vertex 0.058477 0.044481 0.000000
  endloop
endfacet
facet normal -0.001411 0.000453 0.000000
  outer loop
    vertex 0.058106 0.043072 1.000000
    vertex 0.058106 0.043072 0.000000
    vertex 0.057652 0.041661 0.000000
  endloop
endfacet
facet normal -0.001411 0.000453 0.000000
  outer loop
    vertex 0.058106 0.043072 1.000000
    vertex 0.057652 0.041661 0.000000
    vertex 0.057652 0.041661 1.000000
  endloop
endfacet
facet normal 0.001409 -0.000371 0.000000
  outer loop
    vertex 0.058106 0.043072 1.000000
    vertex 0.058106 0.043072 0.000000
    vertex 0.058477 0.044481 0.000000
  endloop
endfacet
facet normal -0.001409 0.000371 0.000000
  outer loop
    vertex 0.058106 0.043072 1.000000
    vertex 0.058477 0.044481 1.000000
    vertex 0.058477 0.044481 0.000000
  endloop
endfacet
facet normal -0.001373 0.000196 0.000000
  outer loop
    vertex 0.058958 0.047250 0.000000
    vertex 0.058761 0.045877 1.000000
    vertex 0.058958 0.047250 1.000000
  endloop
endfacet
facet normal 0.001373 -0.000196 0.000000
  outer loop
    vertex 0.058958 0.047250 0.000000
    vertex 0.058761 0.045877 1.000000
    vertex 0.058761 0.045877 0.000000
  endloop
endfacet
facet normal 0.001338 -0.000105 0.000000
  outer loop
    vertex 0.059062 0.048589 1.000000
    vertex 0.058958 0.047250 0.000000
    vertex 0.059062 0.048589 0.000000
  endloop
endfacet
facet normal -0.001338 0.000105 0.000000
  outer loop
    vertex 0.059062 0.048589 1.000000
    vertex 0.058958 0.047250 0.000000
    vertex 0.058958 0.047250 1.000000
  endloop
endfacet
facet normal 0.001293 -0.000010 0.000000
  outer loop
    vertex 0.059062 0.048589 1.000000
    vertex 0.059062 0.048589 0.000000
    vertex 0.059072 0.049882 0.000000
  endloop
endfacet
facet normal -0.001293 0.000010 0.000000
  outer loop
    vertex 0.059062 0.048589 1.000000
    vertex 0.059072 0.049882 1.000000
    vertex 0.059072 0.049882 0.000000
  endloop
endfacet
facet normal 0.001170 0.000188 0.000000
  outer loop
    vertex 0.058797 0.052288 1.000000
    vertex 0.058985 0.051118 0.000000
    vertex 0.058797 0.052288 0.000000
  endloop
endfacet
facet normal -0.001170 -0.000188 0.000000
  outer loop
    vertex 0.058797 0.052288 1.000000
    vertex 0.058985 0.051118 0.000000
    vertex 0.058985 0.051118 1.000000
  endloop
endfacet
facet normal -0.001092 -0.000291 -0.000000
  outer loop
    vertex 0.058797 0.052288 1.000000
    vertex 0.058506 0.053380 0.000000
    vertex 0.058797 0.052288 0.000000
  endloop
endfacet
facet normal -0.001092 -0.000291 0.000000
  outer loop
    vertex 0.058797 0.052288 1.000000
    vertex 0.058506 0.053380 1.000000
    vertex 0.058506 0.053380 0.000000
  endloop
endfacet
facet normal -0.001352 0.000685 0.000000
  outer loop
    vertex 0.056509 0.038876 1.000000
    vertex 0.056509 0.038876 0.000000
    vertex 0.055824 0.037525 0.000000
  endloop
endfacet
facet normal 0.001352 -0.000685 0.000000
  outer loop
    vertex 0.056509 0.038876 1.000000
    vertex 0.055824 0.037525 1.000000
    vertex 0.055824 0.037525 0.000000
  endloop
endfacet
facet normal 0.001652 0.000331 -0.000000
  outer loop
    vertex 0.027536 0.044095 0.000000
    vertex 0.027536 0.044095 1.000000
    vertex 0.027867 0.042443 1.000000
  endloop
endfacet
facet normal 0.001652 0.000331 0.000000
  outer loop
    vertex 0.027536 0.044095 0.000000
    vertex 0.027867 0.042443 1.000000
    vertex 0.027867 0.042443 0.000000
  endloop
endfacet
facet normal -0.001784 -0.000107 -0.000000
  outer loop
    vertex 0.026341 0.054652 1.000000
    vertex 0.026341 0.054652 0.000000
    vertex 0.026448 0.052868 0.000000
  endloop
endfacet
facet normal -0.001784 -0.000107 0.000000
  outer loop
    vertex 0.026341 0.054652 1.000000
    vertex 0.026448 0.052868 0.000000
    vertex 0.026448 0.052868 1.000000
  endloop
endfacet
facet normal 0.001707 0.000001 0.000000
  outer loop
    vertex 0.026233 0.059871 1.000000
    vertex 0.026234 0.058164 0.000000
    vertex 0.026233 0.059871 0.000000
  endloop
endfacet
facet normal -0.001707 -0.000001 0.000000
  outer loop
    vertex 0.026233 0.059871 1.000000
    vertex 0.026234 0.058164 0.000000
    vertex 0.026234 0.058164 1.000000
  endloop
endfacet
facet normal -0.000102 -0.001080 -0.000000
  outer loop
    vertex 0.039977 0.026577 1.000000
    vertex 0.038897 0.026679 0.000000
    vertex 0.039977 0.026577 0.000000
  endloop
endfacet
facet normal 0.000102 0.001080 0.000000
  outer loop
    vertex 0.039977 0.026577 1.000000
    vertex 0.038897 0.026679 0.000000
    vertex 0.038897 0.026679 1.000000
  endloop
endfacet
facet normal -0.000017 0.001117 0.000000
  outer loop
    vertex 0.039977 0.026577 1.000000
    vertex 0.041095 0.026594 0.000000
    vertex 0.039977 0.026577 0.000000
  endloop
endfacet
facet normal 0.000017 -0.001117 0.000000
  outer loop
    vertex 0.039977 0.026577 1.000000
    vertex 0.041095 0.026594 0.000000
    vertex 0.041095 0.026594 1.000000
  endloop
endfacet
facet normal 0.001267 -0.000202 0.000000
  outer loop
    vertex 0.026946 0.068758 1.000000
    vertex 0.026744 0.067491 0.000000
    vertex 0.026946 0.068758 0.000000
  endloop
endfacet
facet normal -0.001267 0.000202 0.000000
  outer loop
    vertex 0.026946 0.068758 1.000000
    vertex 0.026744 0.067491 0.000000
    vertex 0.026744 0.067491 1.000000
  endloop
endfacet
facet normal -0.001157 0.000235 0.000000
  outer loop
    vertex 0.026946 0.068758 1.000000
    vertex 0.027181 0.069914 0.000000
    vertex 0.026946 0.068758 0.000000
  endloop
endfacet
facet normal -0.001157 0.000235 0.000000
  outer loop
    vertex 0.026946 0.068758 1.000000
    vertex 0.027181 0.069914 1.000000
    vertex 0.027181 0.069914 0.000000
  endloop
endfacet
facet normal -0.000272 0.000421 0.000000
  outer loop
    vertex 0.029249 0.073944 1.000000
    vertex 0.029249 0.073944 0.000000
    vertex 0.028828 0.073672 0.000000
  endloop
endfacet
facet normal 0.000272 -0.000421 0.000000
  outer loop
    vertex 0.029249 0.073944 1.000000
    vertex 0.028828 0.073672 1.000000
    vertex 0.028828 0.073672 0.000000
  endloop
endfacet
facet normal 0.000088 -0.000451 0.000000
  outer loop
    vertex 0.029249 0.073944 1.000000
    vertex 0.029249 0.073944 0.000000
    vertex 0.029700 0.074031 0.000000
  endloop
endfacet
facet normal -0.000088 0.000451 0.000000
  outer loop
    vertex 0.029249 0.073944 1.000000
    vertex 0.029700 0.074031 1.000000
    vertex 0.029700 0.074031 0.000000
  endloop
endfacet
facet normal 0.001402 -0.000533 0.000000
  outer loop
    vertex 0.057119 0.040259 1.000000
    vertex 0.057119 0.040259 0.000000
    vertex 0.057652 0.041661 0.000000
  endloop
endfacet
facet normal 0.001402 -0.000533 0.000000
  outer loop
    vertex 0.057119 0.040259 1.000000
    vertex 0.057652 0.041661 0.000000
    vertex 0.057652 0.041661 1.000000
  endloop
endfacet
facet normal -0.001382 0.000610 0.000000
  outer loop
    vertex 0.057119 0.040259 1.000000
    vertex 0.057119 0.040259 0.000000
    vertex 0.056509 0.038876 0.000000
  endloop
endfacet
facet normal 0.001382 -0.000610 0.000000
  outer loop
    vertex 0.057119 0.040259 1.000000
    vertex 0.056509 0.038876 1.000000
    vertex 0.056509 0.038876 0.000000
  endloop
endfacet
facet normal -0.001258 0.000824 0.000000
  outer loop
    vertex 0.055068 0.036215 1.000000
    vertex 0.054244 0.034957 0.000000
    vertex 0.054244 0.034957 1.000000
  endloop
endfacet
facet normal -0.001258 0.000824 0.000000
  outer loop
    vertex 0.055068 0.036215 1.000000
    vertex 0.055068 0.036215 0.000000
    vertex 0.054244 0.034957 0.000000
  endloop
endfacet
facet normal -0.001310 0.000756 0.000000
  outer loop
    vertex 0.055068 0.036215 1.000000
    vertex 0.055824 0.037525 1.000000
    vertex 0.055824 0.037525 0.000000
  endloop
endfacet
facet normal 0.001310 -0.000756 0.000000
  outer loop
    vertex 0.055068 0.036215 1.000000
    vertex 0.055068 0.036215 0.000000
    vertex 0.055824 0.037525 0.000000
  endloop
endfacet
facet normal 0.000859 -0.001102 0.000000
  outer loop
    vertex 0.049230 0.029797 1.000000
    vertex 0.049230 0.029797 0.000000
    vertex 0.050332 0.030656 0.000000
  endloop
endfacet
facet normal -0.000859 0.001102 0.000000
  outer loop
    vertex 0.049230 0.029797 1.000000
    vertex 0.050332 0.030656 1.000000
    vertex 0.050332 0.030656 0.000000
  endloop
endfacet
facet normal -0.001120 0.000952 0.000000
  outer loop
    vertex 0.052403 0.032642 1.000000
    vertex 0.053354 0.033762 1.000000
    vertex 0.053354 0.033762 0.000000
  endloop
endfacet
facet normal 0.001120 -0.000952 0.000000
  outer loop
    vertex 0.052403 0.032642 1.000000
    vertex 0.052403 0.032642 0.000000
    vertex 0.053354 0.033762 0.000000
  endloop
endfacet
facet normal 0.001700 0.000292 0.000000
  outer loop
    vertex 0.027244 0.045795 1.000000
    vertex 0.027536 0.044095 0.000000
    vertex 0.027244 0.045795 0.000000
  endloop
endfacet
facet normal -0.001700 -0.000292 0.000000
  outer loop
    vertex 0.027244 0.045795 1.000000
    vertex 0.027536 0.044095 0.000000
    vertex 0.027536 0.044095 1.000000
  endloop
endfacet
facet normal -0.001738 -0.000255 -0.000000
  outer loop
    vertex 0.027244 0.045795 1.000000
    vertex 0.026989 0.047533 0.000000
    vertex 0.027244 0.045795 0.000000
  endloop
endfacet
facet normal 0.001738 0.000255 0.000000
  outer loop
    vertex 0.027244 0.045795 1.000000
    vertex 0.026989 0.047533 0.000000
    vertex 0.026989 0.047533 1.000000
  endloop
endfacet
facet normal 0.001765 0.000217 0.000000
  outer loop
    vertex 0.026772 0.049298 1.000000
    vertex 0.026989 0.047533 0.000000
    vertex 0.026772 0.049298 0.000000
  endloop
endfacet
facet normal -0.001765 -0.000217 0.000000
  outer loop
    vertex 0.026772 0.049298 1.000000
    vertex 0.026989 0.047533 0.000000
    vertex 0.026989 0.047533 1.000000
  endloop
endfacet
facet normal -0.001534 -0.000409 -0.000000
  outer loop
    vertex 0.028645 0.039314 1.000000
    vertex 0.028236 0.040848 0.000000
    vertex 0.028645 0.039314 0.000000
  endloop
endfacet
facet normal -0.001534 -0.000409 0.000000
  outer loop
    vertex 0.028645 0.039314 1.000000
    vertex 0.028236 0.040848 1.000000
    vertex 0.028236 0.040848 0.000000
  endloop
endfacet
facet normal 0.001468 0.000449 0.000000
  outer loop
    vertex 0.028645 0.039314 1.000000
    vertex 0.029094 0.037846 0.000000
    vertex 0.028645 0.039314 0.000000
  endloop
endfacet
facet normal 0.001468 0.000449 0.000000
  outer loop
    vertex 0.028645 0.039314 1.000000
    vertex 0.029094 0.037846 1.000000
    vertex 0.029094 0.037846 0.000000
  endloop
endfacet
facet normal -0.001324 -0.000531 -0.000000
  outer loop
    vertex 0.029584 0.036447 1.000000
    vertex 0.029584 0.036447 0.000000
    vertex 0.030115 0.035123 0.000000
  endloop
endfacet
facet normal -0.001324 -0.000531 0.000000
  outer loop
    vertex 0.029584 0.036447 1.000000
    vertex 0.030115 0.035123 0.000000
    vertex 0.030115 0.035123 1.000000
  endloop
endfacet
facet normal -0.001398 -0.000490 -0.000000
  outer loop
    vertex 0.029584 0.036447 1.000000
    vertex 0.029094 0.037846 0.000000
    vertex 0.029584 0.036447 0.000000
  endloop
endfacet
facet normal -0.001398 -0.000490 0.000000
  outer loop
    vertex 0.029584 0.036447 1.000000
    vertex 0.029094 0.037846 1.000000
    vertex 0.029094 0.037846 0.000000
  endloop
endfacet
facet normal -0.001743 -0.000036 -0.000000
  outer loop
    vertex 0.026270 0.056421 1.000000
    vertex 0.026234 0.058164 0.000000
    vertex 0.026270 0.056421 0.000000
  endloop
endfacet
facet normal 0.001743 0.000036 0.000000
  outer loop
    vertex 0.026270 0.056421 1.000000
    vertex 0.026234 0.058164 0.000000
    vertex 0.026234 0.058164 1.000000
  endloop
endfacet
facet normal 0.001769 0.000071 0.000000
  outer loop
    vertex 0.026270 0.056421 1.000000
    vertex 0.026341 0.054652 0.000000
    vertex 0.026270 0.056421 0.000000
  endloop
endfacet
facet normal 0.001769 0.000071 0.000000
  outer loop
    vertex 0.026270 0.056421 1.000000
    vertex 0.026341 0.054652 1.000000
    vertex 0.026341 0.054652 0.000000
  endloop
endfacet
facet normal 0.001603 -0.000069 0.000000
  outer loop
    vertex 0.026268 0.061531 1.000000
    vertex 0.026268 0.061531 0.000000
    vertex 0.026336 0.063133 0.000000
  endloop
endfacet
facet normal 0.001603 -0.000069 0.000000
  outer loop
    vertex 0.026268 0.061531 1.000000
    vertex 0.026336 0.063133 0.000000
    vertex 0.026336 0.063133 1.000000
  endloop
endfacet
facet normal -0.001660 0.000034 0.000000
  outer loop
    vertex 0.026268 0.061531 1.000000
    vertex 0.026268 0.061531 0.000000
    vertex 0.026233 0.059871 0.000000
  endloop
endfacet
facet normal 0.001660 -0.000034 0.000000
  outer loop
    vertex 0.026268 0.061531 1.000000
    vertex 0.026233 0.059871 1.000000
    vertex 0.026233 0.059871 0.000000
  endloop
endfacet
facet normal -0.000346 -0.000985 0.000000
  outer loop
    vertex 0.037864 0.026904 0.000000
    vertex 0.036879 0.027251 1.000000
    vertex 0.036879 0.027251 0.000000
  endloop
endfacet
facet normal -0.000346 -0.000985 0.000000
  outer loop
    vertex 0.037864 0.026904 0.000000
    vertex 0.037864 0.026904 1.000000
    vertex 0.036879 0.027251 1.000000
  endloop
endfacet
facet normal 0.000225 0.001034 -0.000000
  outer loop
    vertex 0.037864 0.026904 0.000000
    vertex 0.037864 0.026904 1.000000
    vertex 0.038897 0.026679 1.000000
  endloop
endfacet
facet normal -0.000225 -0.001034 0.000000
  outer loop
    vertex 0.037864 0.026904 0.000000
    vertex 0.038897 0.026679 0.000000
    vertex 0.038897 0.026679 1.000000
  endloop
endfacet
facet normal -0.000357 0.001177 0.000000
  outer loop
    vertex 0.044584 0.027333 1.000000
    vertex 0.044584 0.027333 0.000000
    vertex 0.043407 0.026975 0.000000
  endloop
endfacet
facet normal 0.000357 -0.001177 0.000000
  outer loop
    vertex 0.044584 0.027333 1.000000
    vertex 0.043407 0.026975 1.000000
    vertex 0.043407 0.026975 0.000000
  endloop
endfacet
facet normal -0.000789 -0.000795 -0.000000
  outer loop
    vertex 0.033418 0.029764 1.000000
    vertex 0.033418 0.029764 0.000000
    vertex 0.034213 0.028975 0.000000
  endloop
endfacet
facet normal 0.000789 0.000795 0.000000
  outer loop
    vertex 0.033418 0.029764 1.000000
    vertex 0.034213 0.028975 1.000000
    vertex 0.034213 0.028975 0.000000
  endloop
endfacet
facet normal -0.000889 -0.000749 -0.000000
  outer loop
    vertex 0.033418 0.029764 1.000000
    vertex 0.032669 0.030653 0.000000
    vertex 0.033418 0.029764 0.000000
  endloop
endfacet
facet normal 0.000889 0.000749 0.000000
  outer loop
    vertex 0.033418 0.029764 1.000000
    vertex 0.032669 0.030653 0.000000
    vertex 0.032669 0.030653 1.000000
  endloop
endfacet
facet normal -0.001535 0.000102 0.000000
  outer loop
    vertex 0.026439 0.064668 1.000000
    vertex 0.026439 0.064668 0.000000
    vertex 0.026336 0.063133 0.000000
  endloop
endfacet
facet normal -0.001535 0.000102 0.000000
  outer loop
    vertex 0.026439 0.064668 1.000000
    vertex 0.026336 0.063133 0.000000
    vertex 0.026336 0.063133 1.000000
  endloop
endfacet
facet normal -0.001456 0.000136 0.000000
  outer loop
    vertex 0.026439 0.064668 1.000000
    vertex 0.026575 0.066124 1.000000
    vertex 0.026575 0.066124 0.000000
  endloop
endfacet
facet normal 0.001456 -0.000136 0.000000
  outer loop
    vertex 0.026439 0.064668 1.000000
    vertex 0.026439 0.064668 0.000000
    vertex 0.026575 0.066124 0.000000
  endloop
endfacet
facet normal -0.000904 0.000298 0.000000
  outer loop
    vertex 0.027746 0.071854 1.000000
    vertex 0.027448 0.070950 0.000000
    vertex 0.027448 0.070950 1.000000
  endloop
endfacet
facet normal -0.000904 0.000298 0.000000
  outer loop
    vertex 0.027746 0.071854 1.000000
    vertex 0.027746 0.071854 0.000000
    vertex 0.027448 0.070950 0.000000
  endloop
endfacet
facet normal 0.000762 -0.000330 0.000000
  outer loop
    vertex 0.027746 0.071854 1.000000
    vertex 0.027746 0.071854 0.000000
    vertex 0.028076 0.072616 0.000000
  endloop
endfacet
facet normal -0.000762 0.000330 0.000000
  outer loop
    vertex 0.027746 0.071854 1.000000
    vertex 0.028076 0.072616 1.000000
    vertex 0.028076 0.072616 0.000000
  endloop
endfacet
facet normal 0.000446 -0.000391 0.000000
  outer loop
    vertex 0.028436 0.073225 1.000000
    vertex 0.028436 0.073225 0.000000
    vertex 0.028828 0.073672 0.000000
  endloop
endfacet
facet normal -0.000446 0.000391 0.000000
  outer loop
    vertex 0.028436 0.073225 1.000000
    vertex 0.028828 0.073672 1.000000
    vertex 0.028828 0.073672 0.000000
  endloop
endfacet
facet normal -0.000609 0.000361 0.000000
  outer loop
    vertex 0.028436 0.073225 1.000000
    vertex 0.028436 0.073225 0.000000
    vertex 0.028076 0.072616 0.000000
  endloop
endfacet
facet normal 0.000609 -0.000361 0.000000
  outer loop
    vertex 0.028436 0.073225 1.000000
    vertex 0.028076 0.072616 1.000000
    vertex 0.028076 0.072616 0.000000
  endloop
endfacet
facet normal 0.000000 0.000000 0.000008
  outer loop
    vertex 0.048096 0.029032 0.000000
    vertex 0.035054 0.028290 0.000000
    vertex 0.035943 0.027714 0.000000
  endloop
endfacet
facet normal 0.000000 0.000000 0.000017
  outer loop
    vertex 0.048096 0.029032 0.000000
    vertex 0.058985 0.051118 0.000000
    vertex 0.058797 0.052288 0.000000
  endloop
endfacet
facet normal 0.000000 0.000000 -0.000846
  outer loop
    vertex 0.048096 0.029032 0.000000
    vertex 0.030690 0.073611 0.000000
    vertex 0.056250 0.056750 0.000000
  endloop
endfacet
facet normal 0.000000 0.000000 -0.000002
  outer loop
    vertex 0.048096 0.029032 0.000000
    vertex 0.042241 0.026728 0.000000
    vertex 0.041095 0.026594 0.000000
  endloop
endfacet
facet normal 0.000000 0.000000 0.000016
  outer loop
    vertex 0.048096 0.029032 0.000000
    vertex 0.031305 0.032714 0.000000
    vertex 0.031965 0.031638 0.000000
  endloop
endfacet
facet normal 0.000000 0.000000 0.000000
  outer loop
    vertex 0.048096 0.029032 0.000000
    vertex 0.044584 0.027333 0.000000
    vertex 0.045764 0.027796 0.000000
  endloop
endfacet
facet normal 0.000000 0.000000 0.000022
  outer loop
    vertex 0.048096 0.029032 0.000000
    vertex 0.029094 0.037846 0.000000
    vertex 0.029584 0.036447 0.000000
  endloop
endfacet
facet normal 0.000000 0.000000 -0.000003
  outer loop
    vertex 0.048096 0.029032 0.000000
    vertex 0.055068 0.036215 0.000000
    vertex 0.054244 0.034957 0.000000
  endloop
endfacet
facet normal 0.000000 0.000000 0.000010
  outer loop
    vertex 0.048096 0.029032 0.000000
    vertex 0.058477 0.044481 0.000000
    vertex 0.058761 0.045877 0.000000
  endloop
endfacet
facet normal 0.000000 0.000000 0.000017
  outer loop
    vertex 0.048096 0.029032 0.000000
    vertex 0.030690 0.073611 0.000000
    vertex 0.030181 0.073924 0.000000
  endloop
endfacet
facet normal 0.000000 0.000000 -0.000006
  outer loop
    vertex 0.048096 0.029032 0.000000
    vertex 0.057119 0.040259 0.000000
    vertex 0.056509 0.038876 0.000000
  endloop
endfacet
facet normal 0.000000 0.000000 0.000005
  outer loop
    vertex 0.048096 0.029032 0.000000
    vertex 0.037864 0.026904 0.000000
    vertex 0.038897 0.026679 0.000000
  endloop
endfacet
facet normal 0.000000 0.000000 0.000024
  outer loop
    vertex 0.048096 0.029032 0.000000
    vertex 0.057602 0.055286 0.000000
    vertex 0.056983 0.056079 0.000000
  endloop
endfacet
facet normal 0.000000 0.000000 0.000034
  outer loop
    vertex 0.048096 0.029032 0.000000
    vertex 0.026592 0.051080 0.000000
    vertex 0.026772 0.049298 0.000000
  endloop
endfacet
facet normal 0.000000 0.000000 0.000007
  outer loop
    vertex 0.048096 0.029032 0.000000
    vertex 0.035943 0.027714 0.000000
    vertex 0.036879 0.027251 0.000000
  endloop
endfacet
facet normal 0.000000 0.000000 0.000026
  outer loop
    vertex 0.048096 0.029032 0.000000
    vertex 0.056983 0.056079 0.000000
    vertex 0.056250 0.056750 0.000000
  endloop
endfacet
facet normal 0.000000 0.000000 0.000034
  outer loop
    vertex 0.048096 0.029032 0.000000
    vertex 0.027181 0.069914 0.000000
    vertex 0.026946 0.068758 0.000000
  endloop
endfacet
facet normal 0.000000 0.000000 -0.000030
  outer loop
    vertex 0.048096 0.029032 0.000000
    vertex 0.027746 0.071854 0.000000
    vertex 0.028076 0.072616 0.000000
  endloop
endfacet
facet normal 0.000000 0.000000 0.000009
  outer loop
    vertex 0.048096 0.029032 0.000000
    vertex 0.058106 0.043072 0.000000
    vertex 0.058477 0.044481 0.000000
  endloop
endfacet
facet normal 0.000000 0.000000 0.000013
  outer loop
    vertex 0.048096 0.029032 0.000000
    vertex 0.058958 0.047250 0.000000
    vertex 0.059062 0.048589 0.000000
  endloop
endfacet
facet normal 0.000000 0.000000 -0.000005
  outer loop
    vertex 0.048096 0.029032 0.000000
    vertex 0.056509 0.038876 0.000000
    vertex 0.055824 0.037525 0.000000
  endloop
endfacet
facet normal 0.000000 0.000000 -0.000018
  outer loop
    vertex 0.048096 0.029032 0.000000
    vertex 0.058506 0.053380 0.000000
    vertex 0.058797 0.052288 0.000000
  endloop
endfacet
facet normal 0.000000 0.000000 0.000021
  outer loop
    vertex 0.048096 0.029032 0.000000
    vertex 0.029584 0.036447 0.000000
    vertex 0.030115 0.035123 0.000000
  endloop
endfacet
facet normal 0.000000 0.000000 0.000028
  outer loop
    vertex 0.048096 0.029032 0.000000
    vertex 0.028436 0.073225 0.000000
    vertex 0.028076 0.072616 0.000000
  endloop
endfacet
facet normal 0.000000 0.000000 -0.000027
  outer loop
    vertex 0.048096 0.029032 0.000000
    vertex 0.028236 0.040848 0.000000
    vertex 0.027867 0.042443 0.000000
  endloop
endfacet
facet normal 0.000000 0.000000 -0.000033
  outer loop
    vertex 0.048096 0.029032 0.000000
    vertex 0.026989 0.047533 0.000000
    vertex 0.026772 0.049298 0.000000
  endloop
endfacet
facet normal 0.000000 0.000000 -0.000037
  outer loop
    vertex 0.048096 0.029032 0.000000
    vertex 0.026341 0.054652 0.000000
    vertex 0.026270 0.056421 0.000000
  endloop
endfacet
facet normal 0.000000 0.000000 0.000011
  outer loop
    vertex 0.048096 0.029032 0.000000
    vertex 0.033418 0.029764 0.000000
    vertex 0.034213 0.028975 0.000000
  endloop
endfacet
facet normal 0.000000 0.000000 0.000017
  outer loop
    vertex 0.048096 0.029032 0.000000
    vertex 0.030688 0.033877 0.000000
    vertex 0.031305 0.032714 0.000000
  endloop
endfacet
facet normal 0.000000 0.000000 -0.000037
  outer loop
    vertex 0.048096 0.029032 0.000000
    vertex 0.026268 0.061531 0.000000
    vertex 0.026336 0.063133 0.000000
  endloop
endfacet
facet normal 0.000000 0.000000 -0.000022
  outer loop
    vertex 0.048096 0.029032 0.000000
    vertex 0.029249 0.073944 0.000000
    vertex 0.029700 0.074031 0.000000
  endloop
endfacet
facet normal 0.000000 0.000000 -0.000015
  outer loop
    vertex 0.048096 0.029032 0.000000
    vertex 0.058985 0.051118 0.000000
    vertex 0.059072 0.049882 0.000000
  endloop
endfacet
facet normal 0.000000 0.000000 0.000020
  outer loop
    vertex 0.048096 0.029032 0.000000
    vertex 0.058506 0.053380 0.000000
    vertex 0.058108 0.054383 0.000000
  endloop
endfacet
facet normal 0.000000 0.000000 0.000037
  outer loop
    vertex 0.048096 0.029032 0.000000
    vertex 0.026234 0.058164 0.000000
    vertex 0.026270 0.056421 0.000000
  endloop
endfacet
facet normal 0.000000 0.000000 0.000000
  outer loop
    vertex 0.048096 0.029032 0.000000
    vertex 0.049230 0.029797 0.000000
    vertex 0.050332 0.030656 0.000000
  endloop
endfacet
facet normal 0.000000 0.000000 -0.000024
  outer loop
    vertex 0.048096 0.029032 0.000000
    vertex 0.029094 0.037846 0.000000
    vertex 0.028645 0.039314 0.000000
  endloop
endfacet
facet normal 0.000000 0.000000 0.000026
  outer loop
    vertex 0.048096 0.029032 0.000000
    vertex 0.028236 0.040848 0.000000
    vertex 0.028645 0.039314 0.000000
  endloop
endfacet
facet normal 0.000000 0.000000 0.000029
  outer loop
    vertex 0.048096 0.029032 0.000000
    vertex 0.027536 0.044095 0.000000
    vertex 0.027867 0.042443 0.000000
  endloop
endfacet
facet normal 0.000000 0.000000 0.000001
  outer loop
    vertex 0.048096 0.029032 0.000000
    vertex 0.051392 0.031605 0.000000
    vertex 0.052403 0.032642 0.000000
  endloop
endfacet
facet normal 0.000000 0.000000 -0.000019
  outer loop
    vertex 0.048096 0.029032 0.000000
    vertex 0.030688 0.033877 0.000000
    vertex 0.030115 0.035123 0.000000
  endloop
endfacet
facet normal 0.000000 0.000000 -0.000033
  outer loop
    vertex 0.048096 0.029032 0.000000
    vertex 0.027181 0.069914 0.000000
    vertex 0.027448 0.070950 0.000000
  endloop
endfacet
facet normal 0.000000 0.000000 -0.000035
  outer loop
    vertex 0.048096 0.029032 0.000000
    vertex 0.026744 0.067491 0.000000
    vertex 0.026946 0.068758 0.000000
  endloop
endfacet
facet normal 0.000000 0.000000 0.000037
  outer loop
    vertex 0.048096 0.029032 0.000000
    vertex 0.026439 0.064668 0.000000
    vertex 0.026336 0.063133 0.000000
  endloop
endfacet
facet normal 0.000000 0.000000 -0.000020
  outer loop
    vertex 0.048096 0.029032 0.000000
    vertex 0.029700 0.074031 0.000000
    vertex 0.030181 0.073924 0.000000
  endloop
endfacet
facet normal 0.000000 0.000000 -0.000008
  outer loop
    vertex 0.048096 0.029032 0.000000
    vertex 0.058106 0.043072 0.000000
    vertex 0.057652 0.041661 0.000000
  endloop
endfacet
facet normal 0.000000 0.000000 0.000014
  outer loop
    vertex 0.048096 0.029032 0.000000
    vertex 0.059062 0.048589 0.000000
    vertex 0.059072 0.049882 0.000000
  endloop
endfacet
facet normal 0.000000 0.000000 0.000007
  outer loop
    vertex 0.048096 0.029032 0.000000
    vertex 0.057119 0.040259 0.000000
    vertex 0.057652 0.041661 0.000000
  endloop
endfacet
facet normal 0.000000 0.000000 -0.000022
  outer loop
    vertex 0.048096 0.029032 0.000000
    vertex 0.057602 0.055286 0.000000
    vertex 0.058108 0.054383 0.000000
  endloop
endfacet
facet normal 0.000000 0.000000 0.000000
  outer loop
    vertex 0.048096 0.029032 0.000000
    vertex 0.045764 0.027796 0.000000
    vertex 0.046937 0.028364 0.000000
  endloop
endfacet
facet normal 0.000000 0.000000 -0.000002
  outer loop
    vertex 0.048096 0.029032 0.000000
    vertex 0.054244 0.034957 0.000000
    vertex 0.053354 0.033762 0.000000
  endloop
endfacet
facet normal 0.000000 0.000000 0.000036
  outer loop
    vertex 0.048096 0.029032 0.000000
    vertex 0.026341 0.054652 0.000000
    vertex 0.026448 0.052868 0.000000
  endloop
endfacet
facet normal 0.000000 0.000000 -0.000035
  outer loop
    vertex 0.048096 0.029032 0.000000
    vertex 0.026592 0.051080 0.000000
    vertex 0.026448 0.052868 0.000000
  endloop
endfacet
facet normal 0.000000 0.000000 0.000003
  outer loop
    vertex 0.048096 0.029032 0.000000
    vertex 0.038897 0.026679 0.000000
    vertex 0.039977 0.026577 0.000000
  endloop
endfacet
facet normal 0.000000 0.000000 -0.000010
  outer loop
    vertex 0.048096 0.029032 0.000000
    vertex 0.035054 0.028290 0.000000
    vertex 0.034213 0.028975 0.000000
  endloop
endfacet
facet normal 0.000000 0.000000 0.000036
  outer loop
    vertex 0.048096 0.029032 0.000000
    vertex 0.026744 0.067491 0.000000
    vertex 0.026575 0.066124 0.000000
  endloop
endfacet
facet normal 0.000000 0.000000 0.000037
  outer loop
    vertex 0.048096 0.029032 0.000000
    vertex 0.026268 0.061531 0.000000
    vertex 0.026233 0.059871 0.000000
  endloop
endfacet
facet normal 0.000000 0.000000 0.000024
  outer loop
    vertex 0.048096 0.029032 0.000000
    vertex 0.029249 0.073944 0.000000
    vertex 0.028828 0.073672 0.000000
  endloop
endfacet
facet normal 0.000000 0.000000 -0.000011
  outer loop
    vertex 0.048096 0.029032 0.000000
    vertex 0.058958 0.047250 0.000000
    vertex 0.058761 0.045877 0.000000
  endloop
endfacet
facet normal 0.000000 0.000000 -0.000001
  outer loop
    vertex 0.048096 0.029032 0.000000
    vertex 0.044584 0.027333 0.000000
    vertex 0.043407 0.026975 0.000000
  endloop
endfacet
facet normal 0.000000 0.000000 0.000004
  outer loop
    vertex 0.048096 0.029032 0.000000
    vertex 0.055068 0.036215 0.000000
    vertex 0.055824 0.037525 0.000000
  endloop
endfacet
facet normal 0.000000 0.000000 0.000013
  outer loop
    vertex 0.048096 0.029032 0.000000
    vertex 0.032669 0.030653 0.000000
    vertex 0.033418 0.029764 0.000000
  endloop
endfacet
facet normal 0.000000 0.000000 0.000001
  outer loop
    vertex 0.048096 0.029032 0.000000
    vertex 0.052403 0.032642 0.000000
    vertex 0.053354 0.033762 0.000000
  endloop
endfacet
facet normal 0.000000 0.000000 -0.000031
  outer loop
    vertex 0.048096 0.029032 0.000000
    vertex 0.027536 0.044095 0.000000
    vertex 0.027244 0.045795 0.000000
  endloop
endfacet
facet normal 0.000000 0.000000 -0.000037
  outer loop
    vertex 0.048096 0.029032 0.000000
    vertex 0.026234 0.058164 0.000000
    vertex 0.026233 0.059871 0.000000
  endloop
endfacet
facet normal 0.000000 0.000000 -0.000003
  outer loop
    vertex 0.048096 0.029032 0.000000
    vertex 0.041095 0.026594 0.000000
    vertex 0.039977 0.026577 0.000000
  endloop
endfacet
facet normal 0.000000 0.000000 -0.000036
  outer loop
    vertex 0.048096 0.029032 0.000000
    vertex 0.026439 0.064668 0.000000
    vertex 0.026575 0.066124 0.000000
  endloop
endfacet
facet normal 0.000000 0.000000 0.000031
  outer loop
    vertex 0.048096 0.029032 0.000000
    vertex 0.027746 0.071854 0.000000
    vertex 0.027448 0.070950 0.000000
  endloop
endfacet
facet normal 0.000000 0.000000 -0.000026
  outer loop
    vertex 0.048096 0.029032 0.000000
    vertex 0.028436 0.073225 0.000000
    vertex 0.028828 0.073672 0.000000
  endloop
endfacet
facet normal 0.000000 0.000000 -0.000000
  outer loop
    vertex 0.048096 0.029032 0.000000
    vertex 0.051392 0.031605 0.000000
    vertex 0.050332 0.030656 0.000000
  endloop
endfacet
facet normal 0.000000 0.000000 0.000032
  outer loop
    vertex 0.048096 0.029032 0.000000
    vertex 0.026989 0.047533 0.000000
    vertex 0.027244 0.045795 0.000000
  endloop
endfacet
facet normal 0.000000 0.000000 -0.000006
  outer loop
    vertex 0.048096 0.029032 0.000000
    vertex 0.037864 0.026904 0.000000
    vertex 0.036879 0.027251 0.000000
  endloop
endfacet
facet normal 0.000000 0.000000 0.000001
  outer loop
    vertex 0.048096 0.029032 0.000000
    vertex 0.042241 0.026728 0.000000
    vertex 0.043407 0.026975 0.000000
  endloop
endfacet
facet normal 0.000000 0.000000 -0.000014
  outer loop
    vertex 0.048096 0.029032 0.000000
    vertex 0.032669 0.030653 0.000000
    vertex 0.031965 0.031638 0.000000
  endloop
endfacet
facet normal 0.000950 -0.001060 0.000000
  outer loop
    vertex 0.051392 0.031605 1.000000
    vertex 0.050332 0.030656 1.000000
    vertex 0.050332 0.030656 0.000000
  endloop
endfacet
facet normal -0.000950 0.001060 0.000000
  outer loop
    vertex 0.051392 0.031605 1.000000
    vertex 0.051392 0.031605 0.000000
    vertex 0.050332 0.030656 0.000000
  endloop
endfacet
facet normal 0.001037 -0.001010 0.000000
  outer loop
    vertex 0.051392 0.031605 1.000000
    vertex 0.051392 0.031605 0.000000
    vertex 0.052403 0.032642 0.000000
  endloop
endfacet
facet normal -0.001037 0.001010 0.000000
  outer loop
    vertex 0.051392 0.031605 1.000000
    vertex 0.052403 0.032642 1.000000
    vertex 0.052403 0.032642 0.000000
  endloop
endfacet
facet normal 0.001788 0.000143 0.000000
  outer loop
    vertex 0.026592 0.051080 1.000000
    vertex 0.026592 0.051080 0.000000
    vertex 0.026448 0.052868 0.000000
  endloop
endfacet
facet normal 0.001788 0.000143 0.000000
  outer loop
    vertex 0.026592 0.051080 1.000000
    vertex 0.026448 0.052868 0.000000
    vertex 0.026448 0.052868 1.000000
  endloop
endfacet
facet normal -0.001782 -0.000180 -0.000000
  outer loop
    vertex 0.026592 0.051080 1.000000
    vertex 0.026592 0.051080 0.000000
    vertex 0.026772 0.049298 0.000000
  endloop
endfacet
facet normal 0.001782 0.000180 0.000000
  outer loop
    vertex 0.026592 0.051080 1.000000
    vertex 0.026772 0.049298 1.000000
    vertex 0.026772 0.049298 0.000000
  endloop
endfacet
facet normal 0.000567 -0.001173 0.000000
  outer loop
    vertex 0.045764 0.027796 1.000000
    vertex 0.045764 0.027796 0.000000
    vertex 0.046937 0.028364 0.000000
  endloop
endfacet
facet normal 0.000567 -0.001173 0.000000
  outer loop
    vertex 0.045764 0.027796 1.000000
    vertex 0.046937 0.028364 0.000000
    vertex 0.046937 0.028364 1.000000
  endloop
endfacet
facet normal 0.000464 -0.001180 0.000000
  outer loop
    vertex 0.045764 0.027796 1.000000
    vertex 0.044584 0.027333 0.000000
    vertex 0.045764 0.027796 0.000000
  endloop
endfacet
facet normal 0.000464 -0.001180 0.000000
  outer loop
    vertex 0.045764 0.027796 1.000000
    vertex 0.044584 0.027333 1.000000
    vertex 0.044584 0.027333 0.000000
  endloop
endfacet
facet normal -0.000134 0.001146 0.000000
  outer loop
    vertex 0.042241 0.026728 1.000000
    vertex 0.041095 0.026594 0.000000
    vertex 0.041095 0.026594 1.000000
  endloop
endfacet
facet normal -0.000134 0.001146 0.000000
  outer loop
    vertex 0.042241 0.026728 1.000000
    vertex 0.042241 0.026728 0.000000
    vertex 0.041095 0.026594 0.000000
  endloop
endfacet
facet normal -0.000247 0.001166 0.000000
  outer loop
    vertex 0.042241 0.026728 1.000000
    vertex 0.043407 0.026975 1.000000
    vertex 0.043407 0.026975 0.000000
  endloop
endfacet
facet normal 0.000247 -0.001166 0.000000
  outer loop
    vertex 0.042241 0.026728 1.000000
    vertex 0.042241 0.026728 0.000000
    vertex 0.043407 0.026975 0.000000
  endloop
endfacet
facet normal 0.000985 0.000704 0.000000
  outer loop
    vertex 0.031965 0.031638 1.000000
    vertex 0.032669 0.030653 0.000000
    vertex 0.031965 0.031638 0.000000
  endloop
endfacet
facet normal -0.000985 -0.000704 0.000000
  outer loop
    vertex 0.031965 0.031638 1.000000
    vertex 0.032669 0.030653 0.000000
    vertex 0.032669 0.030653 1.000000
  endloop
endfacet
facet normal -0.001076 -0.000660 -0.000000
  outer loop
    vertex 0.031965 0.031638 1.000000
    vertex 0.031305 0.032714 0.000000
    vertex 0.031965 0.031638 0.000000
  endloop
endfacet
facet normal -0.001076 -0.000660 0.000000
  outer loop
    vertex 0.031965 0.031638 1.000000
    vertex 0.031305 0.032714 1.000000
    vertex 0.031305 0.032714 0.000000
  endloop
endfacet
facet normal 0.001246 0.000573 0.000000
  outer loop
    vertex 0.030688 0.033877 1.000000
    vertex 0.030688 0.033877 0.000000
    vertex 0.030115 0.035123 0.000000
  endloop
endfacet
facet normal 0.001246 0.000573 0.000000
  outer loop
    vertex 0.030688 0.033877 1.000000
    vertex 0.030115 0.035123 0.000000
    vertex 0.030115 0.035123 1.000000
  endloop
endfacet
facet normal -0.001163 -0.000616 -0.000000
  outer loop
    vertex 0.030688 0.033877 1.000000
    vertex 0.030688 0.033877 0.000000
    vertex 0.031305 0.032714 0.000000
  endloop
endfacet
facet normal 0.001163 0.000616 0.000000
  outer loop
    vertex 0.030688 0.033877 1.000000
    vertex 0.031305 0.032714 1.000000
    vertex 0.031305 0.032714 0.000000
  endloop
endfacet
facet normal 0.000000 0.000000 -0.000024
  outer loop
    vertex 0.048096 0.029032 1.000000
    vertex 0.056983 0.056079 1.000000
    vertex 0.057602 0.055286 1.000000
  endloop
endfacet
facet normal 0.000000 0.000000 -0.000030
  outer loop
    vertex 0.048096 0.029032 1.000000
    vertex 0.027746 0.071854 1.000000
    vertex 0.028076 0.072616 1.000000
  endloop
endfacet
facet normal 0.000000 0.000000 0.000028
  outer loop
    vertex 0.048096 0.029032 1.000000
    vertex 0.028436 0.073225 1.000000
    vertex 0.028076 0.072616 1.000000
  endloop
endfacet
facet normal 0.000000 0.000000 0.000000
  outer loop
    vertex 0.048096 0.029032 1.000000
    vertex 0.049230 0.029797 1.000000
    vertex 0.050332 0.030656 1.000000
  endloop
endfacet
facet normal 0.000000 0.000000 0.000017
  outer loop
    vertex 0.048096 0.029032 1.000000
    vertex 0.030690 0.073611 1.000000
    vertex 0.030181 0.073924 1.000000
  endloop
endfacet
facet normal 0.000000 0.000000 -0.000006
  outer loop
    vertex 0.048096 0.029032 1.000000
    vertex 0.057119 0.040259 1.000000
    vertex 0.056509 0.038876 1.000000
  endloop
endfacet
facet normal 0.000000 0.000000 -0.000002
  outer loop
    vertex 0.048096 0.029032 1.000000
    vertex 0.054244 0.034957 1.000000
    vertex 0.053354 0.033762 1.000000
  endloop
endfacet
facet normal 0.000000 0.000000 -0.000846
  outer loop
    vertex 0.048096 0.029032 1.000000
    vertex 0.030690 0.073611 1.000000
    vertex 0.056250 0.056750 1.000000
  endloop
endfacet
facet normal 0.000000 0.000000 -0.000034
  outer loop
    vertex 0.048096 0.029032 1.000000
    vertex 0.026946 0.068758 1.000000
    vertex 0.027181 0.069914 1.000000
  endloop
endfacet
facet normal 0.000000 0.000000 -0.000022
  outer loop
    vertex 0.048096 0.029032 1.000000
    vertex 0.057602 0.055286 1.000000
    vertex 0.058108 0.054383 1.000000
  endloop
endfacet
facet normal 0.000000 0.000000 0.000037
  outer loop
    vertex 0.048096 0.029032 1.000000
    vertex 0.026233 0.059871 1.000000
    vertex 0.026234 0.058164 1.000000
  endloop
endfacet
facet normal 0.000000 0.000000 0.000005
  outer loop
    vertex 0.048096 0.029032 1.000000
    vertex 0.037864 0.026904 1.000000
    vertex 0.038897 0.026679 1.000000
  endloop
endfacet
facet normal 0.000000 0.000000 0.000034
  outer loop
    vertex 0.048096 0.029032 1.000000
    vertex 0.026592 0.051080 1.000000
    vertex 0.026772 0.049298 1.000000
  endloop
endfacet
facet normal 0.000000 0.000000 -0.000000
  outer loop
    vertex 0.048096 0.029032 1.000000
    vertex 0.045764 0.027796 1.000000
    vertex 0.044584 0.027333 1.000000
  endloop
endfacet
facet normal 0.000000 0.000000 0.000009
  outer loop
    vertex 0.048096 0.029032 1.000000
    vertex 0.058106 0.043072 1.000000
    vertex 0.058477 0.044481 1.000000
  endloop
endfacet
facet normal 0.000000 0.000000 0.000020
  outer loop
    vertex 0.048096 0.029032 1.000000
    vertex 0.058506 0.053380 1.000000
    vertex 0.058108 0.054383 1.000000
  endloop
endfacet
facet normal 0.000000 0.000000 0.000029
  outer loop
    vertex 0.048096 0.029032 1.000000
    vertex 0.027536 0.044095 1.000000
    vertex 0.027867 0.042443 1.000000
  endloop
endfacet
facet normal 0.000000 0.000000 -0.000022
  outer loop
    vertex 0.048096 0.029032 1.000000
    vertex 0.029584 0.036447 1.000000
    vertex 0.029094 0.037846 1.000000
  endloop
endfacet
facet normal 0.000000 0.000000 -0.000008
  outer loop
    vertex 0.048096 0.029032 1.000000
    vertex 0.035943 0.027714 1.000000
    vertex 0.035054 0.028290 1.000000
  endloop
endfacet
facet normal 0.000000 0.000000 -0.000036
  outer loop
    vertex 0.048096 0.029032 1.000000
    vertex 0.026575 0.066124 1.000000
    vertex 0.026744 0.067491 1.000000
  endloop
endfacet
facet normal 0.000000 0.000000 -0.000010
  outer loop
    vertex 0.048096 0.029032 1.000000
    vertex 0.058761 0.045877 1.000000
    vertex 0.058477 0.044481 1.000000
  endloop
endfacet
facet normal 0.000000 0.000000 0.000015
  outer loop
    vertex 0.048096 0.029032 1.000000
    vertex 0.059072 0.049882 1.000000
    vertex 0.058985 0.051118 1.000000
  endloop
endfacet
facet normal 0.000000 0.000000 0.000026
  outer loop
    vertex 0.048096 0.029032 1.000000
    vertex 0.056983 0.056079 1.000000
    vertex 0.056250 0.056750 1.000000
  endloop
endfacet
facet normal 0.000000 0.000000 0.000014
  outer loop
    vertex 0.048096 0.029032 1.000000
    vertex 0.059062 0.048589 1.000000
    vertex 0.059072 0.049882 1.000000
  endloop
endfacet
facet normal 0.000000 0.000000 0.000018
  outer loop
    vertex 0.048096 0.029032 1.000000
    vertex 0.058797 0.052288 1.000000
    vertex 0.058506 0.053380 1.000000
  endloop
endfacet
facet normal 0.000000 0.000000 0.000004
  outer loop
    vertex 0.048096 0.029032 1.000000
    vertex 0.055068 0.036215 1.000000
    vertex 0.055824 0.037525 1.000000
  endloop
endfacet
facet normal 0.000000 0.000000 -0.000005
  outer loop
    vertex 0.048096 0.029032 1.000000
    vertex 0.056509 0.038876 1.000000
    vertex 0.055824 0.037525 1.000000
  endloop
endfacet
facet normal 0.000000 0.000000 -0.000027
  outer loop
    vertex 0.048096 0.029032 1.000000
    vertex 0.028236 0.040848 1.000000
    vertex 0.027867 0.042443 1.000000
  endloop
endfacet
facet normal 0.000000 0.000000 0.000033
  outer loop
    vertex 0.048096 0.029032 1.000000
    vertex 0.026772 0.049298 1.000000
    vertex 0.026989 0.047533 1.000000
  endloop
endfacet
facet normal 0.000000 0.000000 0.000003
  outer loop
    vertex 0.048096 0.029032 1.000000
    vertex 0.039977 0.026577 1.000000
    vertex 0.041095 0.026594 1.000000
  endloop
endfacet
facet normal 0.000000 0.000000 0.000007
  outer loop
    vertex 0.048096 0.029032 1.000000
    vertex 0.035943 0.027714 1.000000
    vertex 0.036879 0.027251 1.000000
  endloop
endfacet
facet normal 0.000000 0.000000 0.000010
  outer loop
    vertex 0.048096 0.029032 1.000000
    vertex 0.034213 0.028975 1.000000
    vertex 0.035054 0.028290 1.000000
  endloop
endfacet
facet normal 0.000000 0.000000 0.000001
  outer loop
    vertex 0.048096 0.029032 1.000000
    vertex 0.042241 0.026728 1.000000
    vertex 0.043407 0.026975 1.000000
  endloop
endfacet
facet normal 0.000000 0.000000 -0.000033
  outer loop
    vertex 0.048096 0.029032 1.000000
    vertex 0.027181 0.069914 1.000000
    vertex 0.027448 0.070950 1.000000
  endloop
endfacet
facet normal 0.000000 0.000000 -0.000036
  outer loop
    vertex 0.048096 0.029032 1.000000
    vertex 0.026439 0.064668 1.000000
    vertex 0.026575 0.066124 1.000000
  endloop
endfacet
facet normal 0.000000 0.000000 -0.000020
  outer loop
    vertex 0.048096 0.029032 1.000000
    vertex 0.029700 0.074031 1.000000
    vertex 0.030181 0.073924 1.000000
  endloop
endfacet
facet normal 0.000000 0.000000 0.000011
  outer loop
    vertex 0.048096 0.029032 1.000000
    vertex 0.058761 0.045877 1.000000
    vertex 0.058958 0.047250 1.000000
  endloop
endfacet
facet normal 0.000000 0.000000 -0.000008
  outer loop
    vertex 0.048096 0.029032 1.000000
    vertex 0.058106 0.043072 1.000000
    vertex 0.057652 0.041661 1.000000
  endloop
endfacet
facet normal 0.000000 0.000000 -0.000013
  outer loop
    vertex 0.048096 0.029032 1.000000
    vertex 0.059062 0.048589 1.000000
    vertex 0.058958 0.047250 1.000000
  endloop
endfacet
facet normal 0.000000 0.000000 -0.000017
  outer loop
    vertex 0.048096 0.029032 1.000000
    vertex 0.058797 0.052288 1.000000
    vertex 0.058985 0.051118 1.000000
  endloop
endfacet
facet normal 0.000000 0.000000 -0.000022
  outer loop
    vertex 0.048096 0.029032 1.000000
    vertex 0.029249 0.073944 1.000000
    vertex 0.029700 0.074031 1.000000
  endloop
endfacet
facet normal 0.000000 0.000000 -0.000032
  outer loop
    vertex 0.048096 0.029032 1.000000
    vertex 0.027244 0.045795 1.000000
    vertex 0.026989 0.047533 1.000000
  endloop
endfacet
facet normal 0.000000 0.000000 0.000024
  outer loop
    vertex 0.048096 0.029032 1.000000
    vertex 0.028645 0.039314 1.000000
    vertex 0.029094 0.037846 1.000000
  endloop
endfacet
facet normal 0.000000 0.000000 0.000036
  outer loop
    vertex 0.048096 0.029032 1.000000
    vertex 0.026341 0.054652 1.000000
    vertex 0.026448 0.052868 1.000000
  endloop
endfacet
facet normal 0.000000 0.000000 0.000037
  outer loop
    vertex 0.048096 0.029032 1.000000
    vertex 0.026270 0.056421 1.000000
    vertex 0.026341 0.054652 1.000000
  endloop
endfacet
facet normal 0.000000 0.000000 -0.000006
  outer loop
    vertex 0.048096 0.029032 1.000000
    vertex 0.037864 0.026904 1.000000
    vertex 0.036879 0.027251 1.000000
  endloop
endfacet
facet normal 0.000000 0.000000 -0.000003
  outer loop
    vertex 0.048096 0.029032 1.000000
    vertex 0.039977 0.026577 1.000000
    vertex 0.038897 0.026679 1.000000
  endloop
endfacet
facet normal 0.000000 0.000000 0.000037
  outer loop
    vertex 0.048096 0.029032 1.000000
    vertex 0.026268 0.061531 1.000000
    vertex 0.026233 0.059871 1.000000
  endloop
endfacet
facet normal 0.000000 0.000000 -0.000013
  outer loop
    vertex 0.048096 0.029032 1.000000
    vertex 0.033418 0.029764 1.000000
    vertex 0.032669 0.030653 1.000000
  endloop
endfacet
facet normal 0.000000 0.000000 0.000035
  outer loop
    vertex 0.048096 0.029032 1.000000
    vertex 0.026946 0.068758 1.000000
    vertex 0.026744 0.067491 1.000000
  endloop
endfacet
facet normal 0.000000 0.000000 0.000024
  outer loop
    vertex 0.048096 0.029032 1.000000
    vertex 0.029249 0.073944 1.000000
    vertex 0.028828 0.073672 1.000000
  endloop
endfacet
facet normal 0.000000 0.000000 0.000007
  outer loop
    vertex 0.048096 0.029032 1.000000
    vertex 0.057119 0.040259 1.000000
    vertex 0.057652 0.041661 1.000000
  endloop
endfacet
facet normal 0.000000 0.000000 -0.000003
  outer loop
    vertex 0.048096 0.029032 1.000000
    vertex 0.055068 0.036215 1.000000
    vertex 0.054244 0.034957 1.000000
  endloop
endfacet
facet normal 0.000000 0.000000 0.000017
  outer loop
    vertex 0.048096 0.029032 1.000000
    vertex 0.030688 0.033877 1.000000
    vertex 0.031305 0.032714 1.000000
  endloop
endfacet
facet normal 0.000000 0.000000 0.000001
  outer loop
    vertex 0.048096 0.029032 1.000000
    vertex 0.052403 0.032642 1.000000
    vertex 0.053354 0.033762 1.000000
  endloop
endfacet
facet normal 0.000000 0.000000 0.000031
  outer loop
    vertex 0.048096 0.029032 1.000000
    vertex 0.027244 0.045795 1.000000
    vertex 0.027536 0.044095 1.000000
  endloop
endfacet
facet normal 0.000000 0.000000 0.000001
  outer loop
    vertex 0.048096 0.029032 1.000000
    vertex 0.051392 0.031605 1.000000
    vertex 0.052403 0.032642 1.000000
  endloop
endfacet
facet normal 0.000000 0.000000 -0.000026
  outer loop
    vertex 0.048096 0.029032 1.000000
    vertex 0.028645 0.039314 1.000000
    vertex 0.028236 0.040848 1.000000
  endloop
endfacet
facet normal 0.000000 0.000000 0.000021
  outer loop
    vertex 0.048096 0.029032 1.000000
    vertex 0.029584 0.036447 1.000000
    vertex 0.030115 0.035123 1.000000
  endloop
endfacet
facet normal 0.000000 0.000000 -0.000037
  outer loop
    vertex 0.048096 0.029032 1.000000
    vertex 0.026270 0.056421 1.000000
    vertex 0.026234 0.058164 1.000000
  endloop
endfacet
facet normal 0.000000 0.000000 -0.000037
  outer loop
    vertex 0.048096 0.029032 1.000000
    vertex 0.026268 0.061531 1.000000
    vertex 0.026336 0.063133 1.000000
  endloop
endfacet
facet normal 0.000000 0.000000 -0.000001
  outer loop
    vertex 0.048096 0.029032 1.000000
    vertex 0.044584 0.027333 1.000000
    vertex 0.043407 0.026975 1.000000
  endloop
endfacet
facet normal 0.000000 0.000000 0.000011
  outer loop
    vertex 0.048096 0.029032 1.000000
    vertex 0.033418 0.029764 1.000000
    vertex 0.034213 0.028975 1.000000
  endloop
endfacet
facet normal 0.000000 0.000000 -0.000016
  outer loop
    vertex 0.048096 0.029032 1.000000
    vertex 0.031965 0.031638 1.000000
    vertex 0.031305 0.032714 1.000000
  endloop
endfacet
facet normal 0.000000 0.000000 0.000037
  outer loop
    vertex 0.048096 0.029032 1.000000
    vertex 0.026439 0.064668 1.000000
    vertex 0.026336 0.063133 1.000000
  endloop
endfacet
facet normal 0.000000 0.000000 0.000031
  outer loop
    vertex 0.048096 0.029032 1.000000
    vertex 0.027746 0.071854 1.000000
    vertex 0.027448 0.070950 1.000000
  endloop
endfacet
facet normal 0.000000 0.000000 -0.000026
  outer loop
    vertex 0.048096 0.029032 1.000000
    vertex 0.028436 0.073225 1.000000
    vertex 0.028828 0.073672 1.000000
  endloop
endfacet
facet normal 0.000000 0.000000 -0.000000
  outer loop
    vertex 0.048096 0.029032 1.000000
    vertex 0.051392 0.031605 1.000000
    vertex 0.050332 0.030656 1.000000
  endloop
endfacet
facet normal 0.000000 0.000000 -0.000035
  outer loop
    vertex 0.048096 0.029032 1.000000
    vertex 0.026592 0.051080 1.000000
    vertex 0.026448 0.052868 1.000000
  endloop
endfacet
facet normal 0.000000 0.000000 0.000000
  outer loop
    vertex 0.048096 0.029032 1.000000
    vertex 0.045764 0.027796 1.000000
    vertex 0.046937 0.028364 1.000000
  endloop
endfacet
facet normal 0.000000 0.000000 -0.000002
  outer loop
    vertex 0.048096 0.029032 1.000000
    vertex 0.042241 0.026728 1.000000
    vertex 0.041095 0.026594 1.000000
  endloop
endfacet
facet normal 0.000000 0.000000 0.000014
  outer loop
    vertex 0.048096 0.029032 1.000000
    vertex 0.031965 0.031638 1.000000
    vertex 0.032669 0.030653 1.000000
  endloop
endfacet
facet normal 0.000000 0.000000 -0.000019
  outer loop
    vertex 0.048096 0.029032 1.000000
    vertex 0.030688 0.033877 1.000000
    vertex 0.030115 0.035123 1.000000
  endloop
endfacet
facet normal -0.000668 0.001158 0.000000
  outer loop
    vertex 0.048096 0.029032 1.000000
    vertex 0.048096 0.029032 0.000000
    vertex 0.046937 0.028364 0.000000
  endloop
endfacet
facet normal -0.000668 0.001158 0.000000
  outer loop
    vertex 0.048096 0.029032 1.000000
    vertex 0.046937 0.028364 0.000000
    vertex 0.046937 0.028364 1.000000
  endloop
endfacet
facet normal -0.000765 0.001134 0.000000
  outer loop
    vertex 0.048096 0.029032 1.000000
    vertex 0.049230 0.029797 1.000000
    vertex 0.049230 0.029797 0.000000
  endloop
endfacet
facet normal 0.000765 -0.001134 0.000000
  outer loop
    vertex 0.048096 0.029032 1.000000
    vertex 0.048096 0.029032 0.000000
    vertex 0.049230 0.029797 0.000000
  endloop
endfacet
endsolid No35_A_0-0010_L0-1283.stl
