solid No4_A_0-00_L0-12.stl
facet normal -0.029270 -0.022688 -0.000000
  outer loop
    vertex 0.032781 0.020433 1.000000
    vertex 0.010094 0.049703 0.000000
    vertex 0.032781 0.020433 0.000000
  endloop
endfacet
facet normal -0.029270 -0.022688 0.000000
  outer loop
    vertex 0.032781 0.020433 1.000000
    vertex 0.010094 0.049703 1.000000
    vertex 0.010094 0.049703 0.000000
  endloop
endfacet
facet normal 0.001147 0.000551 0.000000
  outer loop
    vertex 0.034744 0.017034 1.000000
    vertex 0.034744 0.017034 0.000000
    vertex 0.034193 0.018182 0.000000
  endloop
endfacet
facet normal 0.001147 0.000551 0.000000
  outer loop
    vertex 0.034744 0.017034 1.000000
    vertex 0.034193 0.018182 0.000000
    vertex 0.034193 0.018182 1.000000
  endloop
endfacet
facet normal -0.001144 -0.000435 -0.000000
  outer loop
    vertex 0.034744 0.017034 1.000000
    vertex 0.034744 0.017034 0.000000
    vertex 0.035179 0.015890 0.000000
  endloop
endfacet
facet normal 0.001144 0.000435 0.000000
  outer loop
    vertex 0.034744 0.017034 1.000000
    vertex 0.035179 0.015890 1.000000
    vertex 0.035179 0.015890 0.000000
  endloop
endfacet
facet normal -0.001058 -0.000037 -0.000000
  outer loop
    vertex 0.035706 0.012604 1.000000
    vertex 0.035669 0.013662 0.000000
    vertex 0.035706 0.012604 0.000000
  endloop
endfacet
facet normal 0.001058 0.000037 0.000000
  outer loop
    vertex 0.035706 0.012604 1.000000
    vertex 0.035669 0.013662 0.000000
    vertex 0.035669 0.013662 1.000000
  endloop
endfacet
facet normal 0.000856 -0.000439 0.000000
  outer loop
    vertex 0.035319 0.010665 1.000000
    vertex 0.034880 0.009809 0.000000
    vertex 0.035319 0.010665 0.000000
  endloop
endfacet
facet normal -0.000856 0.000439 0.000000
  outer loop
    vertex 0.035319 0.010665 1.000000
    vertex 0.034880 0.009809 0.000000
    vertex 0.034880 0.009809 1.000000
  endloop
endfacet
facet normal 0.001003 -0.000114 0.000000
  outer loop
    vertex 0.035592 0.011601 0.000000
    vertex 0.035706 0.012604 1.000000
    vertex 0.035592 0.011601 1.000000
  endloop
endfacet
facet normal -0.001003 0.000114 0.000000
  outer loop
    vertex 0.035592 0.011601 0.000000
    vertex 0.035706 0.012604 1.000000
    vertex 0.035706 0.012604 0.000000
  endloop
endfacet
facet normal -0.000936 0.000273 0.000000
  outer loop
    vertex 0.035592 0.011601 0.000000
    vertex 0.035319 0.010665 1.000000
    vertex 0.035592 0.011601 1.000000
  endloop
endfacet
facet normal 0.000936 -0.000273 0.000000
  outer loop
    vertex 0.035592 0.011601 0.000000
    vertex 0.035319 0.010665 1.000000
    vertex 0.035319 0.010665 0.000000
  endloop
endfacet
facet normal 0.001675 -0.000139 0.000000
  outer loop
    vertex 0.006511 0.031985 0.000000
    vertex 0.006651 0.033660 1.000000
    vertex 0.006511 0.031985 1.000000
  endloop
endfacet
facet normal -0.001675 0.000139 0.000000
  outer loop
    vertex 0.006511 0.031985 0.000000
    vertex 0.006651 0.033660 1.000000
    vertex 0.006651 0.033660 0.000000
  endloop
endfacet
facet normal -0.001137 -0.000657 -0.000000
  outer loop
    vertex 0.033536 0.019319 1.000000
    vertex 0.033536 0.019319 0.000000
    vertex 0.034193 0.018182 0.000000
  endloop
endfacet
facet normal -0.001137 -0.000657 0.000000
  outer loop
    vertex 0.033536 0.019319 1.000000
    vertex 0.034193 0.018182 0.000000
    vertex 0.034193 0.018182 1.000000
  endloop
endfacet
facet normal -0.001114 -0.000755 0.000000
  outer loop
    vertex 0.033536 0.019319 1.000000
    vertex 0.032781 0.020433 1.000000
    vertex 0.032781 0.020433 0.000000
  endloop
endfacet
facet normal 0.001114 0.000755 0.000000
  outer loop
    vertex 0.033536 0.019319 1.000000
    vertex 0.033536 0.019319 0.000000
    vertex 0.032781 0.020433 0.000000
  endloop
endfacet
facet normal 0.000021 0.000138 0.000000
  outer loop
    vertex 0.009955 0.049725 1.000000
    vertex 0.010094 0.049703 0.000000
    vertex 0.009955 0.049725 0.000000
  endloop
endfacet
facet normal 0.000021 0.000138 0.000000
  outer loop
    vertex 0.009955 0.049725 1.000000
    vertex 0.010094 0.049703 1.000000
    vertex 0.010094 0.049703 0.000000
  endloop
endfacet
facet normal 0.001163 0.000464 -0.000000
  outer loop
    vertex 0.008252 0.013795 0.000000
    vertex 0.007788 0.014958 1.000000
    vertex 0.008252 0.013795 1.000000
  endloop
endfacet
facet normal -0.001163 -0.000464 0.000000
  outer loop
    vertex 0.008252 0.013795 0.000000
    vertex 0.007788 0.014958 1.000000
    vertex 0.007788 0.014958 0.000000
  endloop
endfacet
facet normal 0.001079 0.000536 -0.000000
  outer loop
    vertex 0.008252 0.013795 0.000000
    vertex 0.008252 0.013795 1.000000
    vertex 0.008788 0.012716 1.000000
  endloop
endfacet
facet normal -0.001079 -0.000536 0.000000
  outer loop
    vertex 0.008252 0.013795 0.000000
    vertex 0.008788 0.012716 0.000000
    vertex 0.008788 0.012716 1.000000
  endloop
endfacet
facet normal 0.000836 0.000768 0.000000
  outer loop
    vertex 0.010086 0.010806 1.000000
    vertex 0.010854 0.009970 0.000000
    vertex 0.010086 0.010806 0.000000
  endloop
endfacet
facet normal -0.000836 -0.000768 0.000000
  outer loop
    vertex 0.010086 0.010806 1.000000
    vertex 0.010854 0.009970 0.000000
    vertex 0.010854 0.009970 1.000000
  endloop
endfacet
facet normal -0.000608 -0.001027 -0.000000
  outer loop
    vertex 0.012643 0.008529 1.000000
    vertex 0.012643 0.008529 0.000000
    vertex 0.013670 0.007921 0.000000
  endloop
endfacet
facet normal -0.000608 -0.001027 0.000000
  outer loop
    vertex 0.012643 0.008529 1.000000
    vertex 0.013670 0.007921 0.000000
    vertex 0.013670 0.007921 1.000000
  endloop
endfacet
facet normal -0.001249 -0.000395 0.000000
  outer loop
    vertex 0.007394 0.016207 0.000000
    vertex 0.007788 0.014958 1.000000
    vertex 0.007394 0.016207 1.000000
  endloop
endfacet
facet normal 0.001249 0.000395 0.000000
  outer loop
    vertex 0.007394 0.016207 0.000000
    vertex 0.007788 0.014958 1.000000
    vertex 0.007788 0.014958 0.000000
  endloop
endfacet
facet normal 0.001337 0.000328 0.000000
  outer loop
    vertex 0.007066 0.017544 1.000000
    vertex 0.007394 0.016207 0.000000
    vertex 0.007066 0.017544 0.000000
  endloop
endfacet
facet normal -0.001337 -0.000328 0.000000
  outer loop
    vertex 0.007066 0.017544 1.000000
    vertex 0.007394 0.016207 0.000000
    vertex 0.007394 0.016207 1.000000
  endloop
endfacet
facet normal -0.001100 -0.000178 -0.000000
  outer loop
    vertex 0.035490 0.014762 1.000000
    vertex 0.035490 0.014762 0.000000
    vertex 0.035669 0.013662 0.000000
  endloop
endfacet
facet normal -0.001100 -0.000178 0.000000
  outer loop
    vertex 0.035490 0.014762 1.000000
    vertex 0.035669 0.013662 0.000000
    vertex 0.035669 0.013662 1.000000
  endloop
endfacet
facet normal -0.001128 -0.000311 0.000000
  outer loop
    vertex 0.035490 0.014762 1.000000
    vertex 0.035179 0.015890 1.000000
    vertex 0.035179 0.015890 0.000000
  endloop
endfacet
facet normal 0.001128 0.000311 0.000000
  outer loop
    vertex 0.035490 0.014762 1.000000
    vertex 0.035490 0.014762 0.000000
    vertex 0.035179 0.015890 0.000000
  endloop
endfacet
facet normal 0.000996 0.000610 0.000000
  outer loop
    vertex 0.009398 0.011720 1.000000
    vertex 0.009398 0.011720 0.000000
    vertex 0.008788 0.012716 0.000000
  endloop
endfacet
facet normal 0.000996 0.000610 0.000000
  outer loop
    vertex 0.009398 0.011720 1.000000
    vertex 0.008788 0.012716 0.000000
    vertex 0.008788 0.012716 1.000000
  endloop
endfacet
facet normal -0.000915 -0.000688 -0.000000
  outer loop
    vertex 0.009398 0.011720 1.000000
    vertex 0.009398 0.011720 0.000000
    vertex 0.010086 0.010806 0.000000
  endloop
endfacet
facet normal 0.000915 0.000688 0.000000
  outer loop
    vertex 0.009398 0.011720 1.000000
    vertex 0.010086 0.010806 1.000000
    vertex 0.010086 0.010806 0.000000
  endloop
endfacet
facet normal -0.000758 -0.000852 -0.000000
  outer loop
    vertex 0.011705 0.009212 1.000000
    vertex 0.010854 0.009970 0.000000
    vertex 0.011705 0.009212 0.000000
  endloop
endfacet
facet normal 0.000758 0.000852 0.000000
  outer loop
    vertex 0.011705 0.009212 1.000000
    vertex 0.010854 0.009970 0.000000
    vertex 0.010854 0.009970 1.000000
  endloop
endfacet
facet normal 0.000682 0.000938 0.000000
  outer loop
    vertex 0.011705 0.009212 1.000000
    vertex 0.012643 0.008529 0.000000
    vertex 0.011705 0.009212 0.000000
  endloop
endfacet
facet normal 0.000682 0.000938 0.000000
  outer loop
    vertex 0.011705 0.009212 1.000000
    vertex 0.012643 0.008529 1.000000
    vertex 0.012643 0.008529 0.000000
  endloop
endfacet
facet normal -0.001687 0.000037 0.000000
  outer loop
    vertex 0.006328 0.028601 1.000000
    vertex 0.006328 0.028601 0.000000
    vertex 0.006292 0.026914 0.000000
  endloop
endfacet
facet normal 0.001687 -0.000037 0.000000
  outer loop
    vertex 0.006328 0.028601 1.000000
    vertex 0.006292 0.026914 1.000000
    vertex 0.006292 0.026914 0.000000
  endloop
endfacet
facet normal -0.000058 0.001383 0.000000
  outer loop
    vertex 0.025514 0.005745 0.000000
    vertex 0.024132 0.005687 1.000000
    vertex 0.025514 0.005745 1.000000
  endloop
endfacet
facet normal 0.000058 -0.001383 0.000000
  outer loop
    vertex 0.025514 0.005745 0.000000
    vertex 0.024132 0.005687 1.000000
    vertex 0.024132 0.005687 0.000000
  endloop
endfacet
facet normal 0.000135 -0.001352 0.000000
  outer loop
    vertex 0.026866 0.005880 1.000000
    vertex 0.025514 0.005745 0.000000
    vertex 0.026866 0.005880 0.000000
  endloop
endfacet
facet normal -0.000135 0.001352 0.000000
  outer loop
    vertex 0.026866 0.005880 1.000000
    vertex 0.025514 0.005745 0.000000
    vertex 0.025514 0.005745 1.000000
  endloop
endfacet
facet normal 0.000213 -0.001307 0.000000
  outer loop
    vertex 0.026866 0.005880 1.000000
    vertex 0.026866 0.005880 0.000000
    vertex 0.028173 0.006093 0.000000
  endloop
endfacet
facet normal -0.000213 0.001307 0.000000
  outer loop
    vertex 0.026866 0.005880 1.000000
    vertex 0.028173 0.006093 1.000000
    vertex 0.028173 0.006093 0.000000
  endloop
endfacet
facet normal -0.000291 0.001248 0.000000
  outer loop
    vertex 0.029422 0.006384 0.000000
    vertex 0.028173 0.006093 1.000000
    vertex 0.029422 0.006384 1.000000
  endloop
endfacet
facet normal 0.000291 -0.001248 0.000000
  outer loop
    vertex 0.029422 0.006384 0.000000
    vertex 0.028173 0.006093 1.000000
    vertex 0.028173 0.006093 0.000000
  endloop
endfacet
facet normal 0.000450 -0.001088 0.000000
  outer loop
    vertex 0.030597 0.006754 1.000000
    vertex 0.030597 0.006754 0.000000
    vertex 0.031685 0.007204 0.000000
  endloop
endfacet
facet normal 0.000450 -0.001088 0.000000
  outer loop
    vertex 0.030597 0.006754 1.000000
    vertex 0.031685 0.007204 0.000000
    vertex 0.031685 0.007204 1.000000
  endloop
endfacet
facet normal 0.000370 -0.001175 0.000000
  outer loop
    vertex 0.030597 0.006754 1.000000
    vertex 0.029422 0.006384 0.000000
    vertex 0.030597 0.006754 0.000000
  endloop
endfacet
facet normal -0.000370 0.001175 0.000000
  outer loop
    vertex 0.030597 0.006754 1.000000
    vertex 0.029422 0.006384 0.000000
    vertex 0.029422 0.006384 1.000000
  endloop
endfacet
facet normal 0.000774 -0.000597 0.000000
  outer loop
    vertex 0.034283 0.009036 1.000000
    vertex 0.034880 0.009809 0.000000
    vertex 0.034880 0.009809 1.000000
  endloop
endfacet
facet normal 0.000774 -0.000597 0.000000
  outer loop
    vertex 0.034283 0.009036 1.000000
    vertex 0.034283 0.009036 0.000000
    vertex 0.034880 0.009809 0.000000
  endloop
endfacet
facet normal -0.000692 0.000741 0.000000
  outer loop
    vertex 0.034283 0.009036 1.000000
    vertex 0.034283 0.009036 0.000000
    vertex 0.033542 0.008344 0.000000
  endloop
endfacet
facet normal 0.000692 -0.000741 0.000000
  outer loop
    vertex 0.034283 0.009036 1.000000
    vertex 0.033542 0.008344 1.000000
    vertex 0.033542 0.008344 0.000000
  endloop
endfacet
facet normal -0.000530 0.000986 0.000000
  outer loop
    vertex 0.032671 0.007734 1.000000
    vertex 0.032671 0.007734 0.000000
    vertex 0.031685 0.007204 0.000000
  endloop
endfacet
facet normal -0.000530 0.000986 0.000000
  outer loop
    vertex 0.032671 0.007734 1.000000
    vertex 0.031685 0.007204 0.000000
    vertex 0.031685 0.007204 1.000000
  endloop
endfacet
facet normal 0.000610 -0.000871 0.000000
  outer loop
    vertex 0.032671 0.007734 1.000000
    vertex 0.032671 0.007734 0.000000
    vertex 0.033542 0.008344 0.000000
  endloop
endfacet
facet normal -0.000610 0.000871 0.000000
  outer loop
    vertex 0.032671 0.007734 1.000000
    vertex 0.033542 0.008344 1.000000
    vertex 0.033542 0.008344 0.000000
  endloop
endfacet
facet normal 0.001650 -0.000166 0.000000
  outer loop
    vertex 0.006817 0.035310 1.000000
    vertex 0.006651 0.033660 1.000000
    vertex 0.006651 0.033660 0.000000
  endloop
endfacet
facet normal -0.001650 0.000166 0.000000
  outer loop
    vertex 0.006817 0.035310 1.000000
    vertex 0.006817 0.035310 0.000000
    vertex 0.006651 0.033660 0.000000
  endloop
endfacet
facet normal 0.001614 -0.000189 0.000000
  outer loop
    vertex 0.006817 0.035310 1.000000
    vertex 0.006817 0.035310 0.000000
    vertex 0.007006 0.036924 0.000000
  endloop
endfacet
facet normal -0.001614 0.000189 0.000000
  outer loop
    vertex 0.006817 0.035310 1.000000
    vertex 0.007006 0.036924 1.000000
    vertex 0.007006 0.036924 0.000000
  endloop
endfacet
facet normal 0.001509 -0.000225 0.000000
  outer loop
    vertex 0.007215 0.038491 1.000000
    vertex 0.007215 0.038491 0.000000
    vertex 0.007441 0.040000 0.000000
  endloop
endfacet
facet normal -0.001509 0.000225 0.000000
  outer loop
    vertex 0.007215 0.038491 1.000000
    vertex 0.007441 0.040000 1.000000
    vertex 0.007441 0.040000 0.000000
  endloop
endfacet
facet normal -0.001567 0.000209 0.000000
  outer loop
    vertex 0.007215 0.038491 1.000000
    vertex 0.007215 0.038491 0.000000
    vertex 0.007006 0.036924 0.000000
  endloop
endfacet
facet normal 0.001567 -0.000209 0.000000
  outer loop
    vertex 0.007215 0.038491 1.000000
    vertex 0.007006 0.036924 1.000000
    vertex 0.007006 0.036924 0.000000
  endloop
endfacet
facet normal -0.000165 0.000165 0.000000
  outer loop
    vertex 0.009790 0.049559 0.000000
    vertex 0.009955 0.049725 1.000000
    vertex 0.009955 0.049725 0.000000
  endloop
endfacet
facet normal -0.000165 0.000165 0.000000
  outer loop
    vertex 0.009790 0.049559 0.000000
    vertex 0.009790 0.049559 1.000000
    vertex 0.009955 0.049725 1.000000
  endloop
endfacet
facet normal 0.001419 0.000265 0.000000
  outer loop
    vertex 0.006800 0.018962 1.000000
    vertex 0.007066 0.017544 1.000000
    vertex 0.007066 0.017544 0.000000
  endloop
endfacet
facet normal -0.001419 -0.000265 -0.000000
  outer loop
    vertex 0.006800 0.018962 1.000000
    vertex 0.006800 0.018962 0.000000
    vertex 0.007066 0.017544 0.000000
  endloop
endfacet
facet normal 0.001490 0.000206 0.000000
  outer loop
    vertex 0.006800 0.018962 1.000000
    vertex 0.006800 0.018962 0.000000
    vertex 0.006594 0.020453 0.000000
  endloop
endfacet
facet normal -0.001490 -0.000206 0.000000
  outer loop
    vertex 0.006800 0.018962 1.000000
    vertex 0.006594 0.020453 1.000000
    vertex 0.006594 0.020453 0.000000
  endloop
endfacet
facet normal -0.001690 0.000109 0.000000
  outer loop
    vertex 0.006403 0.030295 1.000000
    vertex 0.006511 0.031985 0.000000
    vertex 0.006403 0.030295 0.000000
  endloop
endfacet
facet normal 0.001690 -0.000109 0.000000
  outer loop
    vertex 0.006403 0.030295 1.000000
    vertex 0.006511 0.031985 0.000000
    vertex 0.006511 0.031985 1.000000
  endloop
endfacet
facet normal 0.001694 -0.000074 0.000000
  outer loop
    vertex 0.006403 0.030295 1.000000
    vertex 0.006328 0.028601 0.000000
    vertex 0.006403 0.030295 0.000000
  endloop
endfacet
facet normal 0.001694 -0.000074 0.000000
  outer loop
    vertex 0.006403 0.030295 1.000000
    vertex 0.006328 0.028601 1.000000
    vertex 0.006328 0.028601 0.000000
  endloop
endfacet
facet normal -0.001640 -0.000050 -0.000000
  outer loop
    vertex 0.006296 0.025246 1.000000
    vertex 0.006296 0.025246 0.000000
    vertex 0.006346 0.023605 0.000000
  endloop
endfacet
facet normal -0.001640 -0.000050 0.000000
  outer loop
    vertex 0.006296 0.025246 1.000000
    vertex 0.006346 0.023605 0.000000
    vertex 0.006346 0.023605 1.000000
  endloop
endfacet
facet normal -0.001669 -0.000005 0.000000
  outer loop
    vertex 0.006296 0.025246 1.000000
    vertex 0.006292 0.026914 1.000000
    vertex 0.006292 0.026914 0.000000
  endloop
endfacet
facet normal 0.001669 0.000005 0.000000
  outer loop
    vertex 0.006296 0.025246 1.000000
    vertex 0.006296 0.025246 0.000000
    vertex 0.006292 0.026914 0.000000
  endloop
endfacet
facet normal 0.000318 0.001323 0.000000
  outer loop
    vertex 0.017256 0.006530 1.000000
    vertex 0.018579 0.006212 0.000000
    vertex 0.017256 0.006530 0.000000
  endloop
endfacet
facet normal -0.000318 -0.001323 0.000000
  outer loop
    vertex 0.017256 0.006530 1.000000
    vertex 0.018579 0.006212 0.000000
    vertex 0.018579 0.006212 1.000000
  endloop
endfacet
facet normal 0.000391 0.001269 0.000000
  outer loop
    vertex 0.017256 0.006530 1.000000
    vertex 0.017256 0.006530 0.000000
    vertex 0.015987 0.006921 0.000000
  endloop
endfacet
facet normal -0.000391 -0.001269 0.000000
  outer loop
    vertex 0.017256 0.006530 1.000000
    vertex 0.015987 0.006921 1.000000
    vertex 0.015987 0.006921 0.000000
  endloop
endfacet
facet normal -0.000507 0.000209 0.000000
  outer loop
    vertex 0.009601 0.049218 0.000000
    vertex 0.009393 0.048711 1.000000
    vertex 0.009601 0.049218 1.000000
  endloop
endfacet
facet normal 0.000507 -0.000209 0.000000
  outer loop
    vertex 0.009601 0.049218 0.000000
    vertex 0.009393 0.048711 1.000000
    vertex 0.009393 0.048711 0.000000
  endloop
endfacet
facet normal 0.000341 -0.000189 0.000000
  outer loop
    vertex 0.009601 0.049218 0.000000
    vertex 0.009790 0.049559 1.000000
    vertex 0.009601 0.049218 1.000000
  endloop
endfacet
facet normal 0.000341 -0.000189 0.000000
  outer loop
    vertex 0.009601 0.049218 0.000000
    vertex 0.009790 0.049559 0.000000
    vertex 0.009790 0.049559 1.000000
  endloop
endfacet
facet normal 0.000938 -0.000247 0.000000
  outer loop
    vertex 0.008930 0.047245 0.000000
    vertex 0.008930 0.047245 1.000000
    vertex 0.008684 0.046307 1.000000
  endloop
endfacet
facet normal -0.000938 0.000247 0.000000
  outer loop
    vertex 0.008930 0.047245 0.000000
    vertex 0.008684 0.046307 0.000000
    vertex 0.008684 0.046307 1.000000
  endloop
endfacet
facet normal 0.001601 0.000098 0.000000
  outer loop
    vertex 0.006444 0.022004 1.000000
    vertex 0.006444 0.022004 0.000000
    vertex 0.006346 0.023605 0.000000
  endloop
endfacet
facet normal 0.001601 0.000098 0.000000
  outer loop
    vertex 0.006444 0.022004 1.000000
    vertex 0.006346 0.023605 0.000000
    vertex 0.006346 0.023605 1.000000
  endloop
endfacet
facet normal 0.001551 0.000150 0.000000
  outer loop
    vertex 0.006444 0.022004 1.000000
    vertex 0.006594 0.020453 1.000000
    vertex 0.006594 0.020453 0.000000
  endloop
endfacet
facet normal -0.001551 -0.000150 -0.000000
  outer loop
    vertex 0.006444 0.022004 1.000000
    vertex 0.006444 0.022004 0.000000
    vertex 0.006594 0.020453 0.000000
  endloop
endfacet
facet normal -0.000244 -0.001363 -0.000000
  outer loop
    vertex 0.019942 0.005968 1.000000
    vertex 0.018579 0.006212 0.000000
    vertex 0.019942 0.005968 0.000000
  endloop
endfacet
facet normal 0.000244 0.001363 0.000000
  outer loop
    vertex 0.019942 0.005968 1.000000
    vertex 0.018579 0.006212 0.000000
    vertex 0.018579 0.006212 1.000000
  endloop
endfacet
facet normal 0.000169 0.001389 0.000000
  outer loop
    vertex 0.019942 0.005968 1.000000
    vertex 0.021331 0.005799 0.000000
    vertex 0.019942 0.005968 0.000000
  endloop
endfacet
facet normal 0.000169 0.001389 0.000000
  outer loop
    vertex 0.019942 0.005968 1.000000
    vertex 0.021331 0.005799 1.000000
    vertex 0.021331 0.005799 0.000000
  endloop
endfacet
facet normal 0.000018 0.001399 0.000000
  outer loop
    vertex 0.022733 0.005705 1.000000
    vertex 0.024132 0.005687 1.000000
    vertex 0.024132 0.005687 0.000000
  endloop
endfacet
facet normal -0.000018 -0.001399 -0.000000
  outer loop
    vertex 0.022733 0.005705 1.000000
    vertex 0.022733 0.005705 0.000000
    vertex 0.024132 0.005687 0.000000
  endloop
endfacet
facet normal 0.000094 0.001401 0.000000
  outer loop
    vertex 0.022733 0.005705 1.000000
    vertex 0.022733 0.005705 0.000000
    vertex 0.021331 0.005799 0.000000
  endloop
endfacet
facet normal -0.000094 -0.001401 0.000000
  outer loop
    vertex 0.022733 0.005705 1.000000
    vertex 0.021331 0.005799 1.000000
    vertex 0.021331 0.005799 0.000000
  endloop
endfacet
facet normal 0.000536 0.001117 0.000000
  outer loop
    vertex 0.014787 0.007385 1.000000
    vertex 0.013670 0.007921 0.000000
    vertex 0.013670 0.007921 1.000000
  endloop
endfacet
facet normal 0.000536 0.001117 0.000000
  outer loop
    vertex 0.014787 0.007385 1.000000
    vertex 0.014787 0.007385 0.000000
    vertex 0.013670 0.007921 0.000000
  endloop
endfacet
facet normal 0.000464 0.001200 0.000000
  outer loop
    vertex 0.014787 0.007385 1.000000
    vertex 0.015987 0.006921 1.000000
    vertex 0.015987 0.006921 0.000000
  endloop
endfacet
facet normal -0.000464 -0.001200 -0.000000
  outer loop
    vertex 0.014787 0.007385 1.000000
    vertex 0.014787 0.007385 0.000000
    vertex 0.015987 0.006921 0.000000
  endloop
endfacet
facet normal -0.001272 0.000252 0.000000
  outer loop
    vertex 0.008178 0.044076 1.000000
    vertex 0.008178 0.044076 0.000000
    vertex 0.007926 0.042804 0.000000
  endloop
endfacet
facet normal 0.001272 -0.000252 0.000000
  outer loop
    vertex 0.008178 0.044076 1.000000
    vertex 0.007926 0.042804 1.000000
    vertex 0.007926 0.042804 0.000000
  endloop
endfacet
facet normal 0.001441 -0.000238 0.000000
  outer loop
    vertex 0.007679 0.041442 1.000000
    vertex 0.007441 0.040000 1.000000
    vertex 0.007441 0.040000 0.000000
  endloop
endfacet
facet normal -0.001441 0.000238 0.000000
  outer loop
    vertex 0.007679 0.041442 1.000000
    vertex 0.007679 0.041442 0.000000
    vertex 0.007441 0.040000 0.000000
  endloop
endfacet
facet normal 0.001362 -0.000247 0.000000
  outer loop
    vertex 0.007679 0.041442 1.000000
    vertex 0.007679 0.041442 0.000000
    vertex 0.007926 0.042804 0.000000
  endloop
endfacet
facet normal -0.001362 0.000247 0.000000
  outer loop
    vertex 0.007679 0.041442 1.000000
    vertex 0.007926 0.042804 1.000000
    vertex 0.007926 0.042804 0.000000
  endloop
endfacet
facet normal 0.000000 0.000000 -0.000000
  outer loop
    vertex 0.008432 0.045247 1.000000
    vertex 0.009790 0.049559 1.000000
    vertex 0.009955 0.049725 1.000000
  endloop
endfacet
facet normal 0.000000 0.000000 -0.000018
  outer loop
    vertex 0.008432 0.045247 1.000000
    vertex 0.034744 0.017034 1.000000
    vertex 0.035179 0.015890 1.000000
  endloop
endfacet
facet normal 0.000000 0.000000 0.000015
  outer loop
    vertex 0.008432 0.045247 1.000000
    vertex 0.007788 0.014958 1.000000
    vertex 0.008252 0.013795 1.000000
  endloop
endfacet
facet normal -0.000000 0.000000 0.000150
  outer loop
    vertex 0.008432 0.045247 1.000000
    vertex 0.032781 0.020433 1.000000
    vertex 0.010094 0.049703 1.000000
  endloop
endfacet
facet normal 0.000000 0.000000 -0.000045
  outer loop
    vertex 0.008432 0.045247 1.000000
    vertex 0.034283 0.009036 1.000000
    vertex 0.033542 0.008344 1.000000
  endloop
endfacet
facet normal 0.000000 0.000000 0.000002
  outer loop
    vertex 0.008432 0.045247 1.000000
    vertex 0.006403 0.030295 1.000000
    vertex 0.006328 0.028601 1.000000
  endloop
endfacet
facet normal 0.000000 0.000000 0.000035
  outer loop
    vertex 0.008432 0.045247 1.000000
    vertex 0.035319 0.010665 1.000000
    vertex 0.035592 0.011601 1.000000
  endloop
endfacet
facet normal 0.000000 0.000000 0.000055
  outer loop
    vertex 0.008432 0.045247 1.000000
    vertex 0.028173 0.006093 1.000000
    vertex 0.029422 0.006384 1.000000
  endloop
endfacet
facet normal 0.000000 0.000000 0.000021
  outer loop
    vertex 0.008432 0.045247 1.000000
    vertex 0.035490 0.014762 1.000000
    vertex 0.035179 0.015890 1.000000
  endloop
endfacet
facet normal 0.000000 0.000000 0.000017
  outer loop
    vertex 0.008432 0.045247 1.000000
    vertex 0.008252 0.013795 1.000000
    vertex 0.008788 0.012716 1.000000
  endloop
endfacet
facet normal 0.000000 0.000000 0.000022
  outer loop
    vertex 0.008432 0.045247 1.000000
    vertex 0.009398 0.011720 1.000000
    vertex 0.010086 0.010806 1.000000
  endloop
endfacet
facet normal 0.000000 0.000000 -0.000031
  outer loop
    vertex 0.008432 0.045247 1.000000
    vertex 0.035706 0.012604 1.000000
    vertex 0.035592 0.011601 1.000000
  endloop
endfacet
facet normal 0.000000 0.000000 0.000055
  outer loop
    vertex 0.008432 0.045247 1.000000
    vertex 0.026866 0.005880 1.000000
    vertex 0.028173 0.006093 1.000000
  endloop
endfacet
facet normal 0.000000 0.000000 0.000001
  outer loop
    vertex 0.008432 0.045247 1.000000
    vertex 0.006651 0.033660 1.000000
    vertex 0.006511 0.031985 1.000000
  endloop
endfacet
facet normal 0.000000 0.000000 0.000008
  outer loop
    vertex 0.008432 0.045247 1.000000
    vertex 0.033536 0.019319 1.000000
    vertex 0.032781 0.020433 1.000000
  endloop
endfacet
facet normal 0.000000 0.000000 -0.000001
  outer loop
    vertex 0.008432 0.045247 1.000000
    vertex 0.006817 0.035310 1.000000
    vertex 0.007006 0.036924 1.000000
  endloop
endfacet
facet normal 0.000000 0.000000 0.000025
  outer loop
    vertex 0.008432 0.045247 1.000000
    vertex 0.010086 0.010806 1.000000
    vertex 0.010854 0.009970 1.000000
  endloop
endfacet
facet normal 0.000000 0.000000 0.000032
  outer loop
    vertex 0.008432 0.045247 1.000000
    vertex 0.011705 0.009212 1.000000
    vertex 0.012643 0.008529 1.000000
  endloop
endfacet
facet normal 0.000000 0.000000 0.000015
  outer loop
    vertex 0.008432 0.045247 1.000000
    vertex 0.034744 0.017034 1.000000
    vertex 0.034193 0.018182 1.000000
  endloop
endfacet
facet normal 0.000000 0.000000 0.000028
  outer loop
    vertex 0.008432 0.045247 1.000000
    vertex 0.035706 0.012604 1.000000
    vertex 0.035669 0.013662 1.000000
  endloop
endfacet
facet normal 0.000000 0.000000 -0.000038
  outer loop
    vertex 0.008432 0.045247 1.000000
    vertex 0.035319 0.010665 1.000000
    vertex 0.034880 0.009809 1.000000
  endloop
endfacet
facet normal 0.000000 0.000000 0.000003
  outer loop
    vertex 0.008432 0.045247 1.000000
    vertex 0.006328 0.028601 1.000000
    vertex 0.006292 0.026914 1.000000
  endloop
endfacet
facet normal 0.000000 0.000000 -0.000004
  outer loop
    vertex 0.008432 0.045247 1.000000
    vertex 0.006296 0.025246 1.000000
    vertex 0.006292 0.026914 1.000000
  endloop
endfacet
facet normal 0.000000 0.000000 -0.000053
  outer loop
    vertex 0.008432 0.045247 1.000000
    vertex 0.030597 0.006754 1.000000
    vertex 0.029422 0.006384 1.000000
  endloop
endfacet
facet normal 0.000000 0.000000 0.000000
  outer loop
    vertex 0.008432 0.045247 1.000000
    vertex 0.007215 0.038491 1.000000
    vertex 0.007006 0.036924 1.000000
  endloop
endfacet
facet normal 0.000000 0.000000 -0.000012
  outer loop
    vertex 0.008432 0.045247 1.000000
    vertex 0.033536 0.019319 1.000000
    vertex 0.034193 0.018182 1.000000
  endloop
endfacet
facet normal 0.000000 0.000000 -0.000001
  outer loop
    vertex 0.008432 0.045247 1.000000
    vertex 0.009955 0.049725 1.000000
    vertex 0.010094 0.049703 1.000000
  endloop
endfacet
facet normal 0.000000 0.000000 -0.000013
  outer loop
    vertex 0.008432 0.045247 1.000000
    vertex 0.007788 0.014958 1.000000
    vertex 0.007394 0.016207 1.000000
  endloop
endfacet
facet normal 0.000000 0.000000 -0.000000
  outer loop
    vertex 0.008432 0.045247 1.000000
    vertex 0.009393 0.048711 1.000000
    vertex 0.009601 0.049218 1.000000
  endloop
endfacet
facet normal 0.000000 0.000000 0.000035
  outer loop
    vertex 0.008432 0.045247 1.000000
    vertex 0.012643 0.008529 1.000000
    vertex 0.013670 0.007921 1.000000
  endloop
endfacet
facet normal 0.000000 0.000000 0.000011
  outer loop
    vertex 0.008432 0.045247 1.000000
    vertex 0.007066 0.017544 1.000000
    vertex 0.007394 0.016207 1.000000
  endloop
endfacet
facet normal 0.000000 0.000000 -0.000000
  outer loop
    vertex 0.008432 0.045247 1.000000
    vertex 0.007679 0.041442 1.000000
    vertex 0.007926 0.042804 1.000000
  endloop
endfacet
facet normal 0.000000 0.000000 -0.000024
  outer loop
    vertex 0.008432 0.045247 1.000000
    vertex 0.035490 0.014762 1.000000
    vertex 0.035669 0.013662 1.000000
  endloop
endfacet
facet normal 0.000000 0.000000 0.000056
  outer loop
    vertex 0.008432 0.045247 1.000000
    vertex 0.024132 0.005687 1.000000
    vertex 0.025514 0.005745 1.000000
  endloop
endfacet
facet normal 0.000000 0.000000 0.000053
  outer loop
    vertex 0.008432 0.045247 1.000000
    vertex 0.019942 0.005968 1.000000
    vertex 0.021331 0.005799 1.000000
  endloop
endfacet
facet normal 0.000000 0.000000 0.000047
  outer loop
    vertex 0.008432 0.045247 1.000000
    vertex 0.032671 0.007734 1.000000
    vertex 0.033542 0.008344 1.000000
  endloop
endfacet
facet normal 0.000000 0.000000 0.000000
  outer loop
    vertex 0.008432 0.045247 1.000000
    vertex 0.009790 0.049559 1.000000
    vertex 0.009601 0.049218 1.000000
  endloop
endfacet
facet normal 0.000000 0.000000 0.000000
  outer loop
    vertex 0.008432 0.045247 1.000000
    vertex 0.008178 0.044076 1.000000
    vertex 0.007926 0.042804 1.000000
  endloop
endfacet
facet normal 0.000000 0.000000 -0.000019
  outer loop
    vertex 0.008432 0.045247 1.000000
    vertex 0.009398 0.011720 1.000000
    vertex 0.008788 0.012716 1.000000
  endloop
endfacet
facet normal 0.000000 0.000000 -0.000028
  outer loop
    vertex 0.008432 0.045247 1.000000
    vertex 0.011705 0.009212 1.000000
    vertex 0.010854 0.009970 1.000000
  endloop
endfacet
facet normal 0.000000 0.000000 -0.000046
  outer loop
    vertex 0.008432 0.045247 1.000000
    vertex 0.017256 0.006530 1.000000
    vertex 0.015987 0.006921 1.000000
  endloop
endfacet
facet normal 0.000000 0.000000 -0.000008
  outer loop
    vertex 0.008432 0.045247 1.000000
    vertex 0.006800 0.018962 1.000000
    vertex 0.006594 0.020453 1.000000
  endloop
endfacet
facet normal 0.000000 0.000000 -0.000054
  outer loop
    vertex 0.008432 0.045247 1.000000
    vertex 0.022733 0.005705 1.000000
    vertex 0.021331 0.005799 1.000000
  endloop
endfacet
facet normal 0.000000 0.000000 -0.000056
  outer loop
    vertex 0.008432 0.045247 1.000000
    vertex 0.026866 0.005880 1.000000
    vertex 0.025514 0.005745 1.000000
  endloop
endfacet
facet normal 0.000000 0.000000 0.000052
  outer loop
    vertex 0.008432 0.045247 1.000000
    vertex 0.030597 0.006754 1.000000
    vertex 0.031685 0.007204 1.000000
  endloop
endfacet
facet normal 0.000000 0.000000 0.000042
  outer loop
    vertex 0.008432 0.045247 1.000000
    vertex 0.034283 0.009036 1.000000
    vertex 0.034880 0.009809 1.000000
  endloop
endfacet
facet normal 0.000000 0.000000 -0.000050
  outer loop
    vertex 0.008432 0.045247 1.000000
    vertex 0.032671 0.007734 1.000000
    vertex 0.031685 0.007204 1.000000
  endloop
endfacet
facet normal 0.000000 0.000000 0.000001
  outer loop
    vertex 0.008432 0.045247 1.000000
    vertex 0.006817 0.035310 1.000000
    vertex 0.006651 0.033660 1.000000
  endloop
endfacet
facet normal 0.000000 0.000000 -0.000000
  outer loop
    vertex 0.008432 0.045247 1.000000
    vertex 0.007215 0.038491 1.000000
    vertex 0.007441 0.040000 1.000000
  endloop
endfacet
facet normal 0.000000 0.000000 0.000042
  outer loop
    vertex 0.008432 0.045247 1.000000
    vertex 0.014787 0.007385 1.000000
    vertex 0.015987 0.006921 1.000000
  endloop
endfacet
facet normal 0.000000 0.000000 0.000000
  outer loop
    vertex 0.008432 0.045247 1.000000
    vertex 0.008930 0.047245 1.000000
    vertex 0.008684 0.046307 1.000000
  endloop
endfacet
facet normal 0.000000 0.000000 0.000009
  outer loop
    vertex 0.008432 0.045247 1.000000
    vertex 0.006800 0.018962 1.000000
    vertex 0.007066 0.017544 1.000000
  endloop
endfacet
facet normal 0.000000 0.000000 -0.000002
  outer loop
    vertex 0.008432 0.045247 1.000000
    vertex 0.006403 0.030295 1.000000
    vertex 0.006511 0.031985 1.000000
  endloop
endfacet
facet normal 0.000000 0.000000 0.000004
  outer loop
    vertex 0.008432 0.045247 1.000000
    vertex 0.006296 0.025246 1.000000
    vertex 0.006346 0.023605 1.000000
  endloop
endfacet
facet normal 0.000000 0.000000 0.000007
  outer loop
    vertex 0.008432 0.045247 1.000000
    vertex 0.006444 0.022004 1.000000
    vertex 0.006594 0.020453 1.000000
  endloop
endfacet
facet normal 0.000000 0.000000 0.000048
  outer loop
    vertex 0.008432 0.045247 1.000000
    vertex 0.017256 0.006530 1.000000
    vertex 0.018579 0.006212 1.000000
  endloop
endfacet
facet normal 0.000000 0.000000 -0.000005
  outer loop
    vertex 0.008432 0.045247 1.000000
    vertex 0.006444 0.022004 1.000000
    vertex 0.006346 0.023605 1.000000
  endloop
endfacet
facet normal 0.000000 0.000000 -0.000051
  outer loop
    vertex 0.008432 0.045247 1.000000
    vertex 0.019942 0.005968 1.000000
    vertex 0.018579 0.006212 1.000000
  endloop
endfacet
facet normal 0.000000 0.000000 0.000055
  outer loop
    vertex 0.008432 0.045247 1.000000
    vertex 0.022733 0.005705 1.000000
    vertex 0.024132 0.005687 1.000000
  endloop
endfacet
facet normal 0.000000 0.000000 -0.000039
  outer loop
    vertex 0.008432 0.045247 1.000000
    vertex 0.014787 0.007385 1.000000
    vertex 0.013670 0.007921 1.000000
  endloop
endfacet
facet normal 0.000000 0.000000 0.000000
  outer loop
    vertex 0.008432 0.045247 1.000000
    vertex 0.009168 0.048050 1.000000
    vertex 0.008930 0.047245 1.000000
  endloop
endfacet
facet normal 0.000000 0.000000 0.000000
  outer loop
    vertex 0.008432 0.045247 1.000000
    vertex 0.007679 0.041442 1.000000
    vertex 0.007441 0.040000 1.000000
  endloop
endfacet
facet normal 0.000000 0.000000 -0.000000
  outer loop
    vertex 0.008432 0.045247 1.000000
    vertex 0.009168 0.048050 1.000000
    vertex 0.009393 0.048711 1.000000
  endloop
endfacet
facet normal 0.001060 -0.000252 0.000000
  outer loop
    vertex 0.008432 0.045247 1.000000
    vertex 0.008684 0.046307 0.000000
    vertex 0.008684 0.046307 1.000000
  endloop
endfacet
facet normal 0.001060 -0.000252 0.000000
  outer loop
    vertex 0.008432 0.045247 1.000000
    vertex 0.008432 0.045247 0.000000
    vertex 0.008684 0.046307 0.000000
  endloop
endfacet
facet normal -0.001171 0.000254 0.000000
  outer loop
    vertex 0.008432 0.045247 1.000000
    vertex 0.008432 0.045247 0.000000
    vertex 0.008178 0.044076 0.000000
  endloop
endfacet
facet normal 0.001171 -0.000254 0.000000
  outer loop
    vertex 0.008432 0.045247 1.000000
    vertex 0.008178 0.044076 1.000000
    vertex 0.008178 0.044076 0.000000
  endloop
endfacet
facet normal 0.000000 0.000000 -0.000023
  outer loop
    vertex 0.009168 0.048050 0.000000
    vertex 0.035490 0.014762 0.000000
    vertex 0.035669 0.013662 0.000000
  endloop
endfacet
facet normal 0.000000 0.000000 -0.000035
  outer loop
    vertex 0.009168 0.048050 0.000000
    vertex 0.012643 0.008529 0.000000
    vertex 0.011705 0.009212 0.000000
  endloop
endfacet
facet normal 0.000000 0.000000 -0.000009
  outer loop
    vertex 0.009168 0.048050 0.000000
    vertex 0.033536 0.019319 0.000000
    vertex 0.034193 0.018182 0.000000
  endloop
endfacet
facet normal 0.000000 0.000000 -0.000065
  outer loop
    vertex 0.009168 0.048050 0.000000
    vertex 0.010094 0.049703 0.000000
    vertex 0.032781 0.020433 0.000000
  endloop
endfacet
facet normal 0.000000 0.000000 0.000000
  outer loop
    vertex 0.009168 0.048050 0.000000
    vertex 0.010094 0.049703 0.000000
    vertex 0.009955 0.049725 0.000000
  endloop
endfacet
facet normal 0.000000 0.000000 0.000019
  outer loop
    vertex 0.009168 0.048050 0.000000
    vertex 0.008252 0.013795 0.000000
    vertex 0.008788 0.012716 0.000000
  endloop
endfacet
facet normal 0.000000 0.000000 0.000012
  outer loop
    vertex 0.009168 0.048050 0.000000
    vertex 0.034744 0.017034 0.000000
    vertex 0.034193 0.018182 0.000000
  endloop
endfacet
facet normal 0.000000 0.000000 -0.000000
  outer loop
    vertex 0.009168 0.048050 0.000000
    vertex 0.009601 0.049218 0.000000
    vertex 0.009790 0.049559 0.000000
  endloop
endfacet
facet normal 0.000000 0.000000 0.000059
  outer loop
    vertex 0.009168 0.048050 0.000000
    vertex 0.025514 0.005745 0.000000
    vertex 0.026866 0.005880 0.000000
  endloop
endfacet
facet normal 0.000000 0.000000 0.000003
  outer loop
    vertex 0.009168 0.048050 0.000000
    vertex 0.006511 0.031985 0.000000
    vertex 0.006403 0.030295 0.000000
  endloop
endfacet
facet normal 0.000000 0.000000 -0.000003
  outer loop
    vertex 0.009168 0.048050 0.000000
    vertex 0.006328 0.028601 0.000000
    vertex 0.006403 0.030295 0.000000
  endloop
endfacet
facet normal 0.000000 0.000000 0.000046
  outer loop
    vertex 0.009168 0.048050 0.000000
    vertex 0.014787 0.007385 0.000000
    vertex 0.015987 0.006921 0.000000
  endloop
endfacet
facet normal 0.000000 0.000000 -0.000035
  outer loop
    vertex 0.009168 0.048050 0.000000
    vertex 0.035592 0.011601 0.000000
    vertex 0.035319 0.010665 0.000000
  endloop
endfacet
facet normal 0.000000 0.000000 0.000001
  outer loop
    vertex 0.009168 0.048050 0.000000
    vertex 0.007215 0.038491 0.000000
    vertex 0.007006 0.036924 0.000000
  endloop
endfacet
facet normal 0.000000 0.000000 -0.000013
  outer loop
    vertex 0.009168 0.048050 0.000000
    vertex 0.007394 0.016207 0.000000
    vertex 0.007066 0.017544 0.000000
  endloop
endfacet
facet normal 0.000000 0.000000 -0.000016
  outer loop
    vertex 0.009168 0.048050 0.000000
    vertex 0.034744 0.017034 0.000000
    vertex 0.035179 0.015890 0.000000
  endloop
endfacet
facet normal 0.000000 0.000000 -0.000027
  outer loop
    vertex 0.009168 0.048050 0.000000
    vertex 0.035669 0.013662 0.000000
    vertex 0.035706 0.012604 0.000000
  endloop
endfacet
facet normal 0.000000 0.000000 0.000039
  outer loop
    vertex 0.009168 0.048050 0.000000
    vertex 0.034880 0.009809 0.000000
    vertex 0.035319 0.010665 0.000000
  endloop
endfacet
facet normal 0.000000 0.000000 0.000006
  outer loop
    vertex 0.009168 0.048050 0.000000
    vertex 0.006296 0.025246 0.000000
    vertex 0.006346 0.023605 0.000000
  endloop
endfacet
facet normal 0.000000 0.000000 0.000043
  outer loop
    vertex 0.009168 0.048050 0.000000
    vertex 0.034283 0.009036 0.000000
    vertex 0.034880 0.009809 0.000000
  endloop
endfacet
facet normal 0.000000 0.000000 0.000005
  outer loop
    vertex 0.009168 0.048050 0.000000
    vertex 0.033536 0.019319 0.000000
    vertex 0.032781 0.020433 0.000000
  endloop
endfacet
facet normal 0.000000 0.000000 -0.000052
  outer loop
    vertex 0.009168 0.048050 0.000000
    vertex 0.032671 0.007734 0.000000
    vertex 0.031685 0.007204 0.000000
  endloop
endfacet
facet normal 0.000000 0.000000 0.000038
  outer loop
    vertex 0.009168 0.048050 0.000000
    vertex 0.012643 0.008529 0.000000
    vertex 0.013670 0.007921 0.000000
  endloop
endfacet
facet normal 0.000000 -0.000000 -0.000022
  outer loop
    vertex 0.009168 0.048050 0.000000
    vertex 0.009398 0.011720 0.000000
    vertex 0.008788 0.012716 0.000000
  endloop
endfacet
facet normal 0.000000 0.000000 0.000031
  outer loop
    vertex 0.009168 0.048050 0.000000
    vertex 0.010854 0.009970 0.000000
    vertex 0.011705 0.009212 0.000000
  endloop
endfacet
facet normal 0.000000 0.000000 0.000019
  outer loop
    vertex 0.009168 0.048050 0.000000
    vertex 0.035490 0.014762 0.000000
    vertex 0.035179 0.015890 0.000000
  endloop
endfacet
facet normal 0.000000 0.000000 0.000055
  outer loop
    vertex 0.009168 0.048050 0.000000
    vertex 0.030597 0.006754 0.000000
    vertex 0.031685 0.007204 0.000000
  endloop
endfacet
facet normal 0.000000 0.000000 0.000031
  outer loop
    vertex 0.009168 0.048050 0.000000
    vertex 0.035592 0.011601 0.000000
    vertex 0.035706 0.012604 0.000000
  endloop
endfacet
facet normal 0.000000 0.000000 -0.000000
  outer loop
    vertex 0.009168 0.048050 0.000000
    vertex 0.007679 0.041442 0.000000
    vertex 0.007926 0.042804 0.000000
  endloop
endfacet
facet normal 0.000000 0.000000 -0.000007
  outer loop
    vertex 0.009168 0.048050 0.000000
    vertex 0.006444 0.022004 0.000000
    vertex 0.006346 0.023605 0.000000
  endloop
endfacet
facet normal 0.000000 0.000000 0.000004
  outer loop
    vertex 0.009168 0.048050 0.000000
    vertex 0.006328 0.028601 0.000000
    vertex 0.006292 0.026914 0.000000
  endloop
endfacet
facet normal 0.000000 0.000000 -0.000002
  outer loop
    vertex 0.009168 0.048050 0.000000
    vertex 0.006511 0.031985 0.000000
    vertex 0.006651 0.033660 0.000000
  endloop
endfacet
facet normal 0.000000 0.000000 -0.000001
  outer loop
    vertex 0.009168 0.048050 0.000000
    vertex 0.006817 0.035310 0.000000
    vertex 0.007006 0.036924 0.000000
  endloop
endfacet
facet normal 0.000000 0.000000 0.000056
  outer loop
    vertex 0.009168 0.048050 0.000000
    vertex 0.029422 0.006384 0.000000
    vertex 0.030597 0.006754 0.000000
  endloop
endfacet
facet normal 0.000000 0.000000 0.000025
  outer loop
    vertex 0.009168 0.048050 0.000000
    vertex 0.009398 0.011720 0.000000
    vertex 0.010086 0.010806 0.000000
  endloop
endfacet
facet normal 0.000000 0.000000 -0.000017
  outer loop
    vertex 0.009168 0.048050 0.000000
    vertex 0.008252 0.013795 0.000000
    vertex 0.007788 0.014958 0.000000
  endloop
endfacet
facet normal 0.000000 0.000000 -0.000028
  outer loop
    vertex 0.009168 0.048050 0.000000
    vertex 0.010854 0.009970 0.000000
    vertex 0.010086 0.010806 0.000000
  endloop
endfacet
facet normal 0.000000 0.000000 0.000015
  outer loop
    vertex 0.009168 0.048050 0.000000
    vertex 0.007394 0.016207 0.000000
    vertex 0.007788 0.014958 0.000000
  endloop
endfacet
facet normal 0.000000 0.000000 0.000011
  outer loop
    vertex 0.009168 0.048050 0.000000
    vertex 0.006800 0.018962 0.000000
    vertex 0.007066 0.017544 0.000000
  endloop
endfacet
facet normal 0.000000 0.000000 0.000059
  outer loop
    vertex 0.009168 0.048050 0.000000
    vertex 0.026866 0.005880 0.000000
    vertex 0.028173 0.006093 0.000000
  endloop
endfacet
facet normal 0.000000 0.000000 -0.000052
  outer loop
    vertex 0.009168 0.048050 0.000000
    vertex 0.018579 0.006212 0.000000
    vertex 0.017256 0.006530 0.000000
  endloop
endfacet
facet normal 0.000000 0.000000 -0.000050
  outer loop
    vertex 0.009168 0.048050 0.000000
    vertex 0.017256 0.006530 0.000000
    vertex 0.015987 0.006921 0.000000
  endloop
endfacet
facet normal 0.000000 0.000000 -0.000046
  outer loop
    vertex 0.009168 0.048050 0.000000
    vertex 0.034283 0.009036 0.000000
    vertex 0.033542 0.008344 0.000000
  endloop
endfacet
facet normal 0.000000 0.000000 0.000049
  outer loop
    vertex 0.009168 0.048050 0.000000
    vertex 0.032671 0.007734 0.000000
    vertex 0.033542 0.008344 0.000000
  endloop
endfacet
facet normal 0.000000 0.000000 0.000002
  outer loop
    vertex 0.009168 0.048050 0.000000
    vertex 0.006817 0.035310 0.000000
    vertex 0.006651 0.033660 0.000000
  endloop
endfacet
facet normal 0.000000 0.000000 -0.000001
  outer loop
    vertex 0.009168 0.048050 0.000000
    vertex 0.007215 0.038491 0.000000
    vertex 0.007441 0.040000 0.000000
  endloop
endfacet
facet normal 0.000000 0.000000 0.000000
  outer loop
    vertex 0.009168 0.048050 0.000000
    vertex 0.008178 0.044076 0.000000
    vertex 0.007926 0.042804 0.000000
  endloop
endfacet
facet normal 0.000000 0.000000 -0.000010
  outer loop
    vertex 0.009168 0.048050 0.000000
    vertex 0.006800 0.018962 0.000000
    vertex 0.006594 0.020453 0.000000
  endloop
endfacet
facet normal 0.000000 0.000000 -0.000005
  outer loop
    vertex 0.009168 0.048050 0.000000
    vertex 0.006296 0.025246 0.000000
    vertex 0.006292 0.026914 0.000000
  endloop
endfacet
facet normal 0.000000 0.000000 -0.000059
  outer loop
    vertex 0.009168 0.048050 0.000000
    vertex 0.025514 0.005745 0.000000
    vertex 0.024132 0.005687 0.000000
  endloop
endfacet
facet normal 0.000000 0.000000 -0.000057
  outer loop
    vertex 0.009168 0.048050 0.000000
    vertex 0.021331 0.005799 0.000000
    vertex 0.019942 0.005968 0.000000
  endloop
endfacet
facet normal 0.000000 0.000000 -0.000058
  outer loop
    vertex 0.009168 0.048050 0.000000
    vertex 0.022733 0.005705 0.000000
    vertex 0.021331 0.005799 0.000000
  endloop
endfacet
facet normal 0.000000 0.000000 -0.000058
  outer loop
    vertex 0.009168 0.048050 0.000000
    vertex 0.029422 0.006384 0.000000
    vertex 0.028173 0.006093 0.000000
  endloop
endfacet
facet normal 0.000000 0.000000 -0.000000
  outer loop
    vertex 0.009168 0.048050 0.000000
    vertex 0.009790 0.049559 0.000000
    vertex 0.009955 0.049725 0.000000
  endloop
endfacet
facet normal 0.000000 0.000000 0.000008
  outer loop
    vertex 0.009168 0.048050 0.000000
    vertex 0.006444 0.022004 0.000000
    vertex 0.006594 0.020453 0.000000
  endloop
endfacet
facet normal 0.000000 0.000000 0.000059
  outer loop
    vertex 0.009168 0.048050 0.000000
    vertex 0.022733 0.005705 0.000000
    vertex 0.024132 0.005687 0.000000
  endloop
endfacet
facet normal 0.000000 0.000000 0.000055
  outer loop
    vertex 0.009168 0.048050 0.000000
    vertex 0.018579 0.006212 0.000000
    vertex 0.019942 0.005968 0.000000
  endloop
endfacet
facet normal 0.000000 0.000000 -0.000042
  outer loop
    vertex 0.009168 0.048050 0.000000
    vertex 0.014787 0.007385 0.000000
    vertex 0.013670 0.007921 0.000000
  endloop
endfacet
facet normal 0.000000 0.000000 0.000000
  outer loop
    vertex 0.009168 0.048050 0.000000
    vertex 0.008432 0.045247 0.000000
    vertex 0.008178 0.044076 0.000000
  endloop
endfacet
facet normal 0.000000 0.000000 0.000001
  outer loop
    vertex 0.009168 0.048050 0.000000
    vertex 0.007679 0.041442 0.000000
    vertex 0.007441 0.040000 0.000000
  endloop
endfacet
facet normal 0.000000 0.000000 0.000000
  outer loop
    vertex 0.009168 0.048050 0.000000
    vertex 0.009601 0.049218 0.000000
    vertex 0.009393 0.048711 0.000000
  endloop
endfacet
facet normal 0.000000 0.000000 0.000000
  outer loop
    vertex 0.009168 0.048050 0.000000
    vertex 0.008930 0.047245 0.000000
    vertex 0.008684 0.046307 0.000000
  endloop
endfacet
facet normal 0.000000 0.000000 -0.000000
  outer loop
    vertex 0.009168 0.048050 0.000000
    vertex 0.008432 0.045247 0.000000
    vertex 0.008684 0.046307 0.000000
  endloop
endfacet
facet normal -0.000661 0.000225 0.000000
  outer loop
    vertex 0.009168 0.048050 0.000000
    vertex 0.009393 0.048711 1.000000
    vertex 0.009393 0.048711 0.000000
  endloop
endfacet
facet normal -0.000661 0.000225 0.000000
  outer loop
    vertex 0.009168 0.048050 0.000000
    vertex 0.009168 0.048050 1.000000
    vertex 0.009393 0.048711 1.000000
  endloop
endfacet
facet normal -0.000805 0.000238 0.000000
  outer loop
    vertex 0.009168 0.048050 0.000000
    vertex 0.008930 0.047245 0.000000
    vertex 0.008930 0.047245 1.000000
  endloop
endfacet
facet normal 0.000805 -0.000238 0.000000
  outer loop
    vertex 0.009168 0.048050 0.000000
    vertex 0.009168 0.048050 1.000000
    vertex 0.008930 0.047245 1.000000
  endloop
endfacet
endsolid No4_A_0-00_L0-12.stl
