solid No7_A_0-00_L0-11.stl
facet normal -0.000622 -0.000720 0.000000
  outer loop
    vertex 0.057220 0.049879 0.000000
    vertex 0.057220 0.049879 1.000000
    vertex 0.056500 0.050500 1.000000
  endloop
endfacet
facet normal 0.000622 0.000720 0.000000
  outer loop
    vertex 0.057220 0.049879 0.000000
    vertex 0.056500 0.050500 0.000000
    vertex 0.056500 0.050500 1.000000
  endloop
endfacet
facet normal 0.000772 0.000642 -0.000000
  outer loop
    vertex 0.057220 0.049879 0.000000
    vertex 0.057220 0.049879 1.000000
    vertex 0.057862 0.049107 1.000000
  endloop
endfacet
facet normal -0.000772 -0.000642 0.000000
  outer loop
    vertex 0.057220 0.049879 0.000000
    vertex 0.057862 0.049107 0.000000
    vertex 0.057862 0.049107 1.000000
  endloop
endfacet
facet normal -0.000047 -0.000316 0.000000
  outer loop
    vertex 0.031016 0.064768 0.000000
    vertex 0.031333 0.064721 1.000000
    vertex 0.031016 0.064768 1.000000
  endloop
endfacet
facet normal 0.000047 0.000316 0.000000
  outer loop
    vertex 0.031016 0.064768 0.000000
    vertex 0.031333 0.064721 1.000000
    vertex 0.031333 0.064721 0.000000
  endloop
endfacet
facet normal 0.000907 0.000565 0.000000
  outer loop
    vertex 0.058427 0.048200 1.000000
    vertex 0.057862 0.049107 0.000000
    vertex 0.057862 0.049107 1.000000
  endloop
endfacet
facet normal 0.000907 0.000565 0.000000
  outer loop
    vertex 0.058427 0.048200 1.000000
    vertex 0.058427 0.048200 0.000000
    vertex 0.057862 0.049107 0.000000
  endloop
endfacet
facet normal 0.001026 0.000490 -0.000000
  outer loop
    vertex 0.058917 0.047174 0.000000
    vertex 0.058427 0.048200 1.000000
    vertex 0.058917 0.047174 1.000000
  endloop
endfacet
facet normal -0.001026 -0.000490 0.000000
  outer loop
    vertex 0.058917 0.047174 0.000000
    vertex 0.058427 0.048200 1.000000
    vertex 0.058427 0.048200 0.000000
  endloop
endfacet
facet normal -0.010169 -0.011978 -0.000000
  outer loop
    vertex 0.051608 0.027320 1.000000
    vertex 0.039630 0.037489 0.000000
    vertex 0.051608 0.027320 0.000000
  endloop
endfacet
facet normal 0.010169 0.011978 0.000000
  outer loop
    vertex 0.051608 0.027320 1.000000
    vertex 0.039630 0.037489 0.000000
    vertex 0.039630 0.037489 1.000000
  endloop
endfacet
facet normal -0.000387 -0.000776 0.000000
  outer loop
    vertex 0.053240 0.026158 0.000000
    vertex 0.054016 0.025771 1.000000
    vertex 0.053240 0.026158 1.000000
  endloop
endfacet
facet normal 0.000387 0.000776 0.000000
  outer loop
    vertex 0.053240 0.026158 0.000000
    vertex 0.054016 0.025771 1.000000
    vertex 0.054016 0.025771 0.000000
  endloop
endfacet
facet normal -0.000462 -0.000799 0.000000
  outer loop
    vertex 0.055701 0.050962 1.000000
    vertex 0.056500 0.050500 0.000000
    vertex 0.056500 0.050500 1.000000
  endloop
endfacet
facet normal -0.000462 -0.000799 -0.000000
  outer loop
    vertex 0.055701 0.050962 1.000000
    vertex 0.055701 0.050962 0.000000
    vertex 0.056500 0.050500 0.000000
  endloop
endfacet
facet normal -0.013758 -0.024369 0.000000
  outer loop
    vertex 0.055701 0.050962 1.000000
    vertex 0.031333 0.064721 1.000000
    vertex 0.031333 0.064721 0.000000
  endloop
endfacet
facet normal 0.013758 0.024369 0.000000
  outer loop
    vertex 0.055701 0.050962 1.000000
    vertex 0.055701 0.050962 0.000000
    vertex 0.031333 0.064721 0.000000
  endloop
endfacet
facet normal -0.001130 -0.000416 -0.000000
  outer loop
    vertex 0.059333 0.046044 1.000000
    vertex 0.058917 0.047174 0.000000
    vertex 0.059333 0.046044 0.000000
  endloop
endfacet
facet normal 0.001130 0.000416 0.000000
  outer loop
    vertex 0.059333 0.046044 1.000000
    vertex 0.058917 0.047174 0.000000
    vertex 0.058917 0.047174 1.000000
  endloop
endfacet
facet normal 0.001218 0.000344 -0.000000
  outer loop
    vertex 0.059677 0.044826 0.000000
    vertex 0.059333 0.046044 1.000000
    vertex 0.059677 0.044826 1.000000
  endloop
endfacet
facet normal -0.001218 -0.000344 0.000000
  outer loop
    vertex 0.059677 0.044826 0.000000
    vertex 0.059333 0.046044 1.000000
    vertex 0.059333 0.046044 0.000000
  endloop
endfacet
facet normal 0.001235 0.000571 0.000000
  outer loop
    vertex 0.034245 0.045021 1.000000
    vertex 0.034817 0.043786 0.000000
    vertex 0.034245 0.045021 0.000000
  endloop
endfacet
facet normal -0.001235 -0.000571 0.000000
  outer loop
    vertex 0.034245 0.045021 1.000000
    vertex 0.034817 0.043786 0.000000
    vertex 0.034817 0.043786 1.000000
  endloop
endfacet
facet normal -0.000989 -0.000663 -0.000000
  outer loop
    vertex 0.036053 0.041536 1.000000
    vertex 0.036053 0.041536 0.000000
    vertex 0.036716 0.040547 0.000000
  endloop
endfacet
facet normal -0.000989 -0.000663 0.000000
  outer loop
    vertex 0.036053 0.041536 1.000000
    vertex 0.036716 0.040547 0.000000
    vertex 0.036716 0.040547 1.000000
  endloop
endfacet
facet normal 0.000661 0.000764 0.000000
  outer loop
    vertex 0.038865 0.038149 1.000000
    vertex 0.039630 0.037489 0.000000
    vertex 0.038865 0.038149 0.000000
  endloop
endfacet
facet normal -0.000661 -0.000764 0.000000
  outer loop
    vertex 0.038865 0.038149 1.000000
    vertex 0.039630 0.037489 0.000000
    vertex 0.039630 0.037489 1.000000
  endloop
endfacet
facet normal -0.000719 -0.000742 -0.000000
  outer loop
    vertex 0.038865 0.038149 1.000000
    vertex 0.038124 0.038868 0.000000
    vertex 0.038865 0.038149 0.000000
  endloop
endfacet
facet normal 0.000719 0.000742 0.000000
  outer loop
    vertex 0.038865 0.038149 1.000000
    vertex 0.038124 0.038868 0.000000
    vertex 0.038124 0.038868 1.000000
  endloop
endfacet
facet normal 0.000886 0.000691 0.000000
  outer loop
    vertex 0.037407 0.039661 1.000000
    vertex 0.037407 0.039661 0.000000
    vertex 0.036716 0.040547 0.000000
  endloop
endfacet
facet normal 0.000886 0.000691 0.000000
  outer loop
    vertex 0.037407 0.039661 1.000000
    vertex 0.036716 0.040547 0.000000
    vertex 0.036716 0.040547 1.000000
  endloop
endfacet
facet normal 0.000794 0.000717 0.000000
  outer loop
    vertex 0.037407 0.039661 1.000000
    vertex 0.038124 0.038868 0.000000
    vertex 0.037407 0.039661 0.000000
  endloop
endfacet
facet normal -0.000794 -0.000717 0.000000
  outer loop
    vertex 0.037407 0.039661 1.000000
    vertex 0.038124 0.038868 0.000000
    vertex 0.038124 0.038868 1.000000
  endloop
endfacet
facet normal -0.000153 0.000667 0.000000
  outer loop
    vertex 0.055467 0.025497 1.000000
    vertex 0.056135 0.025651 0.000000
    vertex 0.055467 0.025497 0.000000
  endloop
endfacet
facet normal 0.000153 -0.000667 0.000000
  outer loop
    vertex 0.055467 0.025497 1.000000
    vertex 0.056135 0.025651 0.000000
    vertex 0.056135 0.025651 1.000000
  endloop
endfacet
facet normal -0.000680 0.000536 0.000000
  outer loop
    vertex 0.057877 0.027195 1.000000
    vertex 0.057877 0.027195 0.000000
    vertex 0.057341 0.026515 0.000000
  endloop
endfacet
facet normal 0.000680 -0.000536 0.000000
  outer loop
    vertex 0.057877 0.027195 1.000000
    vertex 0.057341 0.026515 1.000000
    vertex 0.057341 0.026515 0.000000
  endloop
endfacet
facet normal 0.000138 -0.000261 0.000000
  outer loop
    vertex 0.030756 0.064630 1.000000
    vertex 0.031016 0.064768 0.000000
    vertex 0.031016 0.064768 1.000000
  endloop
endfacet
facet normal 0.000138 -0.000261 0.000000
  outer loop
    vertex 0.030756 0.064630 1.000000
    vertex 0.030756 0.064630 0.000000
    vertex 0.031016 0.064768 0.000000
  endloop
endfacet
facet normal -0.001390 -0.000139 0.000000
  outer loop
    vertex 0.060296 0.040798 0.000000
    vertex 0.060296 0.040798 1.000000
    vertex 0.060157 0.042187 1.000000
  endloop
endfacet
facet normal 0.001390 0.000139 0.000000
  outer loop
    vertex 0.060296 0.040798 0.000000
    vertex 0.060157 0.042187 0.000000
    vertex 0.060157 0.042187 1.000000
  endloop
endfacet
facet normal -0.001067 0.000389 0.000000
  outer loop
    vertex 0.059194 0.030040 1.000000
    vertex 0.059194 0.030040 0.000000
    vertex 0.058805 0.028973 0.000000
  endloop
endfacet
facet normal -0.001067 0.000389 0.000000
  outer loop
    vertex 0.059194 0.030040 1.000000
    vertex 0.058805 0.028973 0.000000
    vertex 0.058805 0.028973 1.000000
  endloop
endfacet
facet normal -0.001367 -0.000469 -0.000000
  outer loop
    vertex 0.032733 0.049017 1.000000
    vertex 0.032733 0.049017 0.000000
    vertex 0.033202 0.047649 0.000000
  endloop
endfacet
facet normal -0.001367 -0.000469 0.000000
  outer loop
    vertex 0.032733 0.049017 1.000000
    vertex 0.033202 0.047649 0.000000
    vertex 0.033202 0.047649 1.000000
  endloop
endfacet
facet normal 0.001386 0.000433 0.000000
  outer loop
    vertex 0.032733 0.049017 1.000000
    vertex 0.032733 0.049017 0.000000
    vertex 0.032300 0.050403 0.000000
  endloop
endfacet
facet normal -0.001386 -0.000433 0.000000
  outer loop
    vertex 0.032733 0.049017 1.000000
    vertex 0.032300 0.050403 1.000000
    vertex 0.032300 0.050403 0.000000
  endloop
endfacet
facet normal 0.001336 0.000504 0.000000
  outer loop
    vertex 0.033707 0.046313 1.000000
    vertex 0.033707 0.046313 0.000000
    vertex 0.033202 0.047649 0.000000
  endloop
endfacet
facet normal 0.001336 0.000504 0.000000
  outer loop
    vertex 0.033707 0.046313 1.000000
    vertex 0.033202 0.047649 0.000000
    vertex 0.033202 0.047649 1.000000
  endloop
endfacet
facet normal -0.001292 -0.000539 -0.000000
  outer loop
    vertex 0.033707 0.046313 1.000000
    vertex 0.033707 0.046313 0.000000
    vertex 0.034245 0.045021 0.000000
  endloop
endfacet
facet normal 0.001292 0.000539 0.000000
  outer loop
    vertex 0.033707 0.046313 1.000000
    vertex 0.034245 0.045021 1.000000
    vertex 0.034245 0.045021 0.000000
  endloop
endfacet
facet normal -0.001166 -0.000603 -0.000000
  outer loop
    vertex 0.035420 0.042620 1.000000
    vertex 0.034817 0.043786 0.000000
    vertex 0.035420 0.042620 0.000000
  endloop
endfacet
facet normal 0.001166 0.000603 0.000000
  outer loop
    vertex 0.035420 0.042620 1.000000
    vertex 0.034817 0.043786 0.000000
    vertex 0.034817 0.043786 1.000000
  endloop
endfacet
facet normal 0.001084 0.000634 0.000000
  outer loop
    vertex 0.035420 0.042620 1.000000
    vertex 0.036053 0.041536 0.000000
    vertex 0.035420 0.042620 0.000000
  endloop
endfacet
facet normal 0.001084 0.000634 0.000000
  outer loop
    vertex 0.035420 0.042620 1.000000
    vertex 0.036053 0.041536 1.000000
    vertex 0.036053 0.041536 0.000000
  endloop
endfacet
facet normal 0.001392 0.000395 -0.000000
  outer loop
    vertex 0.031906 0.051795 0.000000
    vertex 0.031906 0.051795 1.000000
    vertex 0.032300 0.050403 1.000000
  endloop
endfacet
facet normal 0.001392 0.000395 0.000000
  outer loop
    vertex 0.031906 0.051795 0.000000
    vertex 0.032300 0.050403 1.000000
    vertex 0.032300 0.050403 0.000000
  endloop
endfacet
facet normal -0.001385 -0.000356 0.000000
  outer loop
    vertex 0.031906 0.051795 0.000000
    vertex 0.031906 0.051795 1.000000
    vertex 0.031550 0.053180 1.000000
  endloop
endfacet
facet normal 0.001385 0.000356 0.000000
  outer loop
    vertex 0.031906 0.051795 0.000000
    vertex 0.031550 0.053180 0.000000
    vertex 0.031550 0.053180 1.000000
  endloop
endfacet
facet normal 0.000872 0.000001 0.000000
  outer loop
    vertex 0.030249 0.062484 1.000000
    vertex 0.030250 0.061612 0.000000
    vertex 0.030249 0.062484 0.000000
  endloop
endfacet
facet normal -0.000872 -0.000001 0.000000
  outer loop
    vertex 0.030249 0.062484 1.000000
    vertex 0.030250 0.061612 0.000000
    vertex 0.030250 0.061612 1.000000
  endloop
endfacet
facet normal -0.000750 0.000049 0.000000
  outer loop
    vertex 0.030298 0.063235 0.000000
    vertex 0.030249 0.062484 1.000000
    vertex 0.030298 0.063235 1.000000
  endloop
endfacet
facet normal 0.000750 -0.000049 0.000000
  outer loop
    vertex 0.030298 0.063235 0.000000
    vertex 0.030249 0.062484 1.000000
    vertex 0.030249 0.062484 0.000000
  endloop
endfacet
facet normal -0.000616 0.000100 0.000000
  outer loop
    vertex 0.030298 0.063235 0.000000
    vertex 0.030298 0.063235 1.000000
    vertex 0.030398 0.063851 1.000000
  endloop
endfacet
facet normal 0.000616 -0.000100 0.000000
  outer loop
    vertex 0.030298 0.063235 0.000000
    vertex 0.030398 0.063851 0.000000
    vertex 0.030398 0.063851 1.000000
  endloop
endfacet
facet normal 0.001230 0.000188 -0.000000
  outer loop
    vertex 0.030539 0.058396 0.000000
    vertex 0.030539 0.058396 1.000000
    vertex 0.030727 0.057166 1.000000
  endloop
endfacet
facet normal 0.001230 0.000188 0.000000
  outer loop
    vertex 0.030539 0.058396 0.000000
    vertex 0.030727 0.057166 1.000000
    vertex 0.030727 0.057166 0.000000
  endloop
endfacet
facet normal -0.000980 -0.000050 -0.000000
  outer loop
    vertex 0.030299 0.060632 1.000000
    vertex 0.030250 0.061612 0.000000
    vertex 0.030299 0.060632 0.000000
  endloop
endfacet
facet normal 0.000980 0.000050 0.000000
  outer loop
    vertex 0.030299 0.060632 1.000000
    vertex 0.030250 0.061612 0.000000
    vertex 0.030250 0.061612 1.000000
  endloop
endfacet
facet normal -0.001365 -0.000316 -0.000000
  outer loop
    vertex 0.031234 0.054545 1.000000
    vertex 0.031234 0.054545 0.000000
    vertex 0.031550 0.053180 0.000000
  endloop
endfacet
facet normal -0.001365 -0.000316 0.000000
  outer loop
    vertex 0.031234 0.054545 1.000000
    vertex 0.031550 0.053180 0.000000
    vertex 0.031550 0.053180 1.000000
  endloop
endfacet
facet normal -0.000228 -0.000744 0.000000
  outer loop
    vertex 0.054760 0.025543 1.000000
    vertex 0.054016 0.025771 1.000000
    vertex 0.054016 0.025771 0.000000
  endloop
endfacet
facet normal 0.000228 0.000744 0.000000
  outer loop
    vertex 0.054760 0.025543 1.000000
    vertex 0.054760 0.025543 0.000000
    vertex 0.054016 0.025771 0.000000
  endloop
endfacet
facet normal -0.000046 -0.000707 -0.000000
  outer loop
    vertex 0.054760 0.025543 1.000000
    vertex 0.054760 0.025543 0.000000
    vertex 0.055467 0.025497 0.000000
  endloop
endfacet
facet normal 0.000046 0.000707 0.000000
  outer loop
    vertex 0.054760 0.025543 1.000000
    vertex 0.055467 0.025497 1.000000
    vertex 0.055467 0.025497 0.000000
  endloop
endfacet
facet normal -0.000637 -0.000828 0.000000
  outer loop
    vertex 0.052436 0.026682 0.000000
    vertex 0.051608 0.027320 1.000000
    vertex 0.051608 0.027320 0.000000
  endloop
endfacet
facet normal -0.000637 -0.000828 0.000000
  outer loop
    vertex 0.052436 0.026682 0.000000
    vertex 0.052436 0.026682 1.000000
    vertex 0.051608 0.027320 1.000000
  endloop
endfacet
facet normal -0.000524 -0.000804 0.000000
  outer loop
    vertex 0.052436 0.026682 0.000000
    vertex 0.053240 0.026158 0.000000
    vertex 0.053240 0.026158 1.000000
  endloop
endfacet
facet normal 0.000524 0.000804 -0.000000
  outer loop
    vertex 0.052436 0.026682 0.000000
    vertex 0.052436 0.026682 1.000000
    vertex 0.053240 0.026158 1.000000
  endloop
endfacet
facet normal 0.000953 -0.000440 0.000000
  outer loop
    vertex 0.058365 0.028019 1.000000
    vertex 0.058365 0.028019 0.000000
    vertex 0.058805 0.028973 0.000000
  endloop
endfacet
facet normal 0.000953 -0.000440 0.000000
  outer loop
    vertex 0.058365 0.028019 1.000000
    vertex 0.058805 0.028973 0.000000
    vertex 0.058805 0.028973 1.000000
  endloop
endfacet
facet normal -0.000824 0.000489 0.000000
  outer loop
    vertex 0.058365 0.028019 1.000000
    vertex 0.058365 0.028019 0.000000
    vertex 0.057877 0.027195 0.000000
  endloop
endfacet
facet normal 0.000824 -0.000489 0.000000
  outer loop
    vertex 0.058365 0.028019 1.000000
    vertex 0.057877 0.027195 1.000000
    vertex 0.057877 0.027195 0.000000
  endloop
endfacet
facet normal -0.000344 0.000625 0.000000
  outer loop
    vertex 0.056760 0.025995 1.000000
    vertex 0.056135 0.025651 0.000000
    vertex 0.056135 0.025651 1.000000
  endloop
endfacet
facet normal -0.000344 0.000625 0.000000
  outer loop
    vertex 0.056760 0.025995 1.000000
    vertex 0.056760 0.025995 0.000000
    vertex 0.056135 0.025651 0.000000
  endloop
endfacet
facet normal -0.000520 0.000581 0.000000
  outer loop
    vertex 0.056760 0.025995 1.000000
    vertex 0.057341 0.026515 1.000000
    vertex 0.057341 0.026515 0.000000
  endloop
endfacet
facet normal 0.000520 -0.000581 0.000000
  outer loop
    vertex 0.056760 0.025995 1.000000
    vertex 0.056760 0.025995 0.000000
    vertex 0.057341 0.026515 0.000000
  endloop
endfacet
facet normal 0.000469 -0.000152 0.000000
  outer loop
    vertex 0.030550 0.064320 1.000000
    vertex 0.030398 0.063851 0.000000
    vertex 0.030550 0.064320 0.000000
  endloop
endfacet
facet normal -0.000469 0.000152 0.000000
  outer loop
    vertex 0.030550 0.064320 1.000000
    vertex 0.030398 0.063851 0.000000
    vertex 0.030398 0.063851 1.000000
  endloop
endfacet
facet normal -0.000310 0.000206 0.000000
  outer loop
    vertex 0.030550 0.064320 1.000000
    vertex 0.030756 0.064630 0.000000
    vertex 0.030550 0.064320 0.000000
  endloop
endfacet
facet normal -0.000310 0.000206 0.000000
  outer loop
    vertex 0.030550 0.064320 1.000000
    vertex 0.030756 0.064630 1.000000
    vertex 0.030756 0.064630 0.000000
  endloop
endfacet
facet normal -0.001348 -0.000206 0.000000
  outer loop
    vertex 0.059952 0.043535 0.000000
    vertex 0.060157 0.042187 0.000000
    vertex 0.060157 0.042187 1.000000
  endloop
endfacet
facet normal 0.001348 0.000206 -0.000000
  outer loop
    vertex 0.059952 0.043535 0.000000
    vertex 0.059952 0.043535 1.000000
    vertex 0.060157 0.042187 1.000000
  endloop
endfacet
facet normal 0.001291 0.000274 0.000000
  outer loop
    vertex 0.059952 0.043535 0.000000
    vertex 0.059677 0.044826 0.000000
    vertex 0.059677 0.044826 1.000000
  endloop
endfacet
facet normal -0.001291 -0.000274 0.000000
  outer loop
    vertex 0.059952 0.043535 0.000000
    vertex 0.059952 0.043535 1.000000
    vertex 0.059677 0.044826 1.000000
  endloop
endfacet
facet normal 0.001422 -0.000052 0.000000
  outer loop
    vertex 0.060327 0.036533 1.000000
    vertex 0.060327 0.036533 0.000000
    vertex 0.060379 0.037955 0.000000
  endloop
endfacet
facet normal -0.001422 0.000052 0.000000
  outer loop
    vertex 0.060327 0.036533 1.000000
    vertex 0.060379 0.037955 1.000000
    vertex 0.060379 0.037955 0.000000
  endloop
endfacet
facet normal -0.001401 0.000112 0.000000
  outer loop
    vertex 0.060327 0.036533 1.000000
    vertex 0.060327 0.036533 0.000000
    vertex 0.060215 0.035132 0.000000
  endloop
endfacet
facet normal 0.001401 -0.000112 0.000000
  outer loop
    vertex 0.060327 0.036533 1.000000
    vertex 0.060215 0.035132 1.000000
    vertex 0.060215 0.035132 0.000000
  endloop
endfacet
facet normal -0.001314 0.000228 0.000000
  outer loop
    vertex 0.060043 0.033766 1.000000
    vertex 0.060043 0.033766 0.000000
    vertex 0.059815 0.032452 0.000000
  endloop
endfacet
facet normal 0.001314 -0.000228 0.000000
  outer loop
    vertex 0.060043 0.033766 1.000000
    vertex 0.059815 0.032452 1.000000
    vertex 0.059815 0.032452 0.000000
  endloop
endfacet
facet normal 0.001366 -0.000171 0.000000
  outer loop
    vertex 0.060043 0.033766 1.000000
    vertex 0.060043 0.033766 0.000000
    vertex 0.060215 0.035132 0.000000
  endloop
endfacet
facet normal -0.001366 0.000171 0.000000
  outer loop
    vertex 0.060043 0.033766 1.000000
    vertex 0.060215 0.035132 1.000000
    vertex 0.060215 0.035132 0.000000
  endloop
endfacet
facet normal 0.000000 0.000000 -0.000012
  outer loop
    vertex 0.060369 0.039382 0.000000
    vertex 0.054760 0.025543 0.000000
    vertex 0.054016 0.025771 0.000000
  endloop
endfacet
facet normal 0.000000 0.000000 -0.000004
  outer loop
    vertex 0.060369 0.039382 0.000000
    vertex 0.057220 0.049879 0.000000
    vertex 0.057862 0.049107 0.000000
  endloop
endfacet
facet normal 0.000000 0.000000 -0.000025
  outer loop
    vertex 0.060369 0.039382 0.000000
    vertex 0.036053 0.041536 0.000000
    vertex 0.035420 0.042620 0.000000
  endloop
endfacet
facet normal 0.000000 0.000000 -0.000015
  outer loop
    vertex 0.060369 0.039382 0.000000
    vertex 0.039630 0.037489 0.000000
    vertex 0.038865 0.038149 0.000000
  endloop
endfacet
facet normal 0.000000 0.000000 -0.000005
  outer loop
    vertex 0.060369 0.039382 0.000000
    vertex 0.057877 0.027195 0.000000
    vertex 0.057341 0.026515 0.000000
  endloop
endfacet
facet normal 0.000000 0.000000 0.000033
  outer loop
    vertex 0.060369 0.039382 0.000000
    vertex 0.032733 0.049017 0.000000
    vertex 0.033202 0.047649 0.000000
  endloop
endfacet
facet normal 0.000000 0.000000 0.000035
  outer loop
    vertex 0.060369 0.039382 0.000000
    vertex 0.031234 0.054545 0.000000
    vertex 0.031550 0.053180 0.000000
  endloop
endfacet
facet normal 0.000000 0.000000 -0.000021
  outer loop
    vertex 0.060369 0.039382 0.000000
    vertex 0.030298 0.063235 0.000000
    vertex 0.030398 0.063851 0.000000
  endloop
endfacet
facet normal 0.000000 0.000000 0.000218
  outer loop
    vertex 0.060369 0.039382 0.000000
    vertex 0.055701 0.050962 0.000000
    vertex 0.031333 0.064721 0.000000
  endloop
endfacet
facet normal 0.000000 0.000000 0.000014
  outer loop
    vertex 0.060369 0.039382 0.000000
    vertex 0.052436 0.026682 0.000000
    vertex 0.053240 0.026158 0.000000
  endloop
endfacet
facet normal 0.000000 0.000000 0.000003
  outer loop
    vertex 0.060369 0.039382 0.000000
    vertex 0.058427 0.048200 0.000000
    vertex 0.057862 0.049107 0.000000
  endloop
endfacet
facet normal 0.000000 0.000000 -0.000000
  outer loop
    vertex 0.060369 0.039382 0.000000
    vertex 0.060327 0.036533 0.000000
    vertex 0.060215 0.035132 0.000000
  endloop
endfacet
facet normal 0.000000 0.000000 0.000027
  outer loop
    vertex 0.060369 0.039382 0.000000
    vertex 0.034817 0.043786 0.000000
    vertex 0.035420 0.042620 0.000000
  endloop
endfacet
facet normal 0.000000 0.000000 0.000013
  outer loop
    vertex 0.060369 0.039382 0.000000
    vertex 0.053240 0.026158 0.000000
    vertex 0.054016 0.025771 0.000000
  endloop
endfacet
facet normal 0.000000 0.000000 0.000001
  outer loop
    vertex 0.060369 0.039382 0.000000
    vertex 0.059952 0.043535 0.000000
    vertex 0.059677 0.044826 0.000000
  endloop
endfacet
facet normal 0.000000 0.000000 0.000006
  outer loop
    vertex 0.060369 0.039382 0.000000
    vertex 0.057220 0.049879 0.000000
    vertex 0.056500 0.050500 0.000000
  endloop
endfacet
facet normal 0.000000 0.000000 -0.000004
  outer loop
    vertex 0.060369 0.039382 0.000000
    vertex 0.058365 0.028019 0.000000
    vertex 0.057877 0.027195 0.000000
  endloop
endfacet
facet normal 0.000000 0.000000 0.000002
  outer loop
    vertex 0.060369 0.039382 0.000000
    vertex 0.058917 0.047174 0.000000
    vertex 0.058427 0.048200 0.000000
  endloop
endfacet
facet normal 0.000000 0.000000 0.000028
  outer loop
    vertex 0.060369 0.039382 0.000000
    vertex 0.030250 0.061612 0.000000
    vertex 0.030299 0.060632 0.000000
  endloop
endfacet
facet normal 0.000000 0.000000 -0.000020
  outer loop
    vertex 0.060369 0.039382 0.000000
    vertex 0.037407 0.039661 0.000000
    vertex 0.036716 0.040547 0.000000
  endloop
endfacet
facet normal -0.000000 0.000000 -0.000018
  outer loop
    vertex 0.060369 0.039382 0.000000
    vertex 0.038124 0.038868 0.000000
    vertex 0.037407 0.039661 0.000000
  endloop
endfacet
facet normal 0.000000 0.000000 -0.000007
  outer loop
    vertex 0.060369 0.039382 0.000000
    vertex 0.031016 0.064768 0.000000
    vertex 0.031333 0.064721 0.000000
  endloop
endfacet
facet normal 0.000000 0.000000 -0.000007
  outer loop
    vertex 0.060369 0.039382 0.000000
    vertex 0.055701 0.050962 0.000000
    vertex 0.056500 0.050500 0.000000
  endloop
endfacet
facet normal 0.000000 0.000000 -0.000011
  outer loop
    vertex 0.060369 0.039382 0.000000
    vertex 0.030756 0.064630 0.000000
    vertex 0.031016 0.064768 0.000000
  endloop
endfacet
facet normal 0.000000 0.000000 -0.000007
  outer loop
    vertex 0.060369 0.039382 0.000000
    vertex 0.056760 0.025995 0.000000
    vertex 0.056135 0.025651 0.000000
  endloop
endfacet
facet normal 0.000000 0.000000 -0.000002
  outer loop
    vertex 0.060369 0.039382 0.000000
    vertex 0.058917 0.047174 0.000000
    vertex 0.059333 0.046044 0.000000
  endloop
endfacet
facet normal 0.000000 0.000000 0.000023
  outer loop
    vertex 0.060369 0.039382 0.000000
    vertex 0.036053 0.041536 0.000000
    vertex 0.036716 0.040547 0.000000
  endloop
endfacet
facet normal 0.000000 0.000000 -0.000032
  outer loop
    vertex 0.060369 0.039382 0.000000
    vertex 0.033707 0.046313 0.000000
    vertex 0.033202 0.047649 0.000000
  endloop
endfacet
facet normal 0.000000 0.000000 0.000001
  outer loop
    vertex 0.060369 0.039382 0.000000
    vertex 0.060043 0.033766 0.000000
    vertex 0.060215 0.035132 0.000000
  endloop
endfacet
facet normal 0.000000 0.000000 -0.000018
  outer loop
    vertex 0.060369 0.039382 0.000000
    vertex 0.030398 0.063851 0.000000
    vertex 0.030550 0.064320 0.000000
  endloop
endfacet
facet normal 0.000000 0.000000 0.000234
  outer loop
    vertex 0.060369 0.039382 0.000000
    vertex 0.039630 0.037489 0.000000
    vertex 0.051608 0.027320 0.000000
  endloop
endfacet
facet normal 0.000000 0.000000 -0.000002
  outer loop
    vertex 0.060369 0.039382 0.000000
    vertex 0.059532 0.031205 0.000000
    vertex 0.059194 0.030040 0.000000
  endloop
endfacet
facet normal 0.000000 0.000000 -0.000009
  outer loop
    vertex 0.060369 0.039382 0.000000
    vertex 0.056135 0.025651 0.000000
    vertex 0.055467 0.025497 0.000000
  endloop
endfacet
facet normal 0.000000 0.000000 0.000014
  outer loop
    vertex 0.060369 0.039382 0.000000
    vertex 0.030756 0.064630 0.000000
    vertex 0.030550 0.064320 0.000000
  endloop
endfacet
facet normal 0.000000 0.000000 0.000003
  outer loop
    vertex 0.060369 0.039382 0.000000
    vertex 0.058365 0.028019 0.000000
    vertex 0.058805 0.028973 0.000000
  endloop
endfacet
facet normal 0.000000 0.000000 0.000001
  outer loop
    vertex 0.060369 0.039382 0.000000
    vertex 0.059677 0.044826 0.000000
    vertex 0.059333 0.046044 0.000000
  endloop
endfacet
facet normal 0.000000 0.000000 -0.000002
  outer loop
    vertex 0.060369 0.039382 0.000000
    vertex 0.059194 0.030040 0.000000
    vertex 0.058805 0.028973 0.000000
  endloop
endfacet
facet normal 0.000000 0.000000 0.000000
  outer loop
    vertex 0.060369 0.039382 0.000000
    vertex 0.060296 0.040798 0.000000
    vertex 0.060157 0.042187 0.000000
  endloop
endfacet
facet normal 0.000000 0.000000 0.000031
  outer loop
    vertex 0.060369 0.039382 0.000000
    vertex 0.033707 0.046313 0.000000
    vertex 0.034245 0.045021 0.000000
  endloop
endfacet
facet normal 0.000000 0.000000 -0.000034
  outer loop
    vertex 0.060369 0.039382 0.000000
    vertex 0.032733 0.049017 0.000000
    vertex 0.032300 0.050403 0.000000
  endloop
endfacet
facet normal 0.000000 0.000000 -0.000029
  outer loop
    vertex 0.060369 0.039382 0.000000
    vertex 0.034817 0.043786 0.000000
    vertex 0.034245 0.045021 0.000000
  endloop
endfacet
facet normal 0.000000 0.000000 -0.000035
  outer loop
    vertex 0.060369 0.039382 0.000000
    vertex 0.031906 0.051795 0.000000
    vertex 0.031550 0.053180 0.000000
  endloop
endfacet
facet normal 0.000000 0.000000 -0.000026
  outer loop
    vertex 0.060369 0.039382 0.000000
    vertex 0.030250 0.061612 0.000000
    vertex 0.030249 0.062484 0.000000
  endloop
endfacet
facet normal 0.000000 0.000000 0.000032
  outer loop
    vertex 0.060369 0.039382 0.000000
    vertex 0.030396 0.059555 0.000000
    vertex 0.030539 0.058396 0.000000
  endloop
endfacet
facet normal 0.000000 0.000000 0.000016
  outer loop
    vertex 0.060369 0.039382 0.000000
    vertex 0.038124 0.038868 0.000000
    vertex 0.038865 0.038149 0.000000
  endloop
endfacet
facet normal 0.000000 0.000000 0.000010
  outer loop
    vertex 0.060369 0.039382 0.000000
    vertex 0.054760 0.025543 0.000000
    vertex 0.055467 0.025497 0.000000
  endloop
endfacet
facet normal 0.000000 0.000000 0.000006
  outer loop
    vertex 0.060369 0.039382 0.000000
    vertex 0.056760 0.025995 0.000000
    vertex 0.057341 0.026515 0.000000
  endloop
endfacet
facet normal 0.000000 0.000000 0.000035
  outer loop
    vertex 0.060369 0.039382 0.000000
    vertex 0.030959 0.055878 0.000000
    vertex 0.031234 0.054545 0.000000
  endloop
endfacet
facet normal 0.000000 0.000000 0.000000
  outer loop
    vertex 0.060369 0.039382 0.000000
    vertex 0.060327 0.036533 0.000000
    vertex 0.060379 0.037955 0.000000
  endloop
endfacet
facet normal 0.000000 0.000000 -0.000001
  outer loop
    vertex 0.060369 0.039382 0.000000
    vertex 0.060043 0.033766 0.000000
    vertex 0.059815 0.032452 0.000000
  endloop
endfacet
facet normal 0.000000 0.000000 0.000035
  outer loop
    vertex 0.060369 0.039382 0.000000
    vertex 0.031906 0.051795 0.000000
    vertex 0.032300 0.050403 0.000000
  endloop
endfacet
facet normal 0.000000 0.000000 0.000024
  outer loop
    vertex 0.060369 0.039382 0.000000
    vertex 0.030298 0.063235 0.000000
    vertex 0.030249 0.062484 0.000000
  endloop
endfacet
facet normal 0.000000 0.000000 0.000033
  outer loop
    vertex 0.060369 0.039382 0.000000
    vertex 0.030539 0.058396 0.000000
    vertex 0.030727 0.057166 0.000000
  endloop
endfacet
facet normal 0.000000 0.000000 -0.000016
  outer loop
    vertex 0.060369 0.039382 0.000000
    vertex 0.052436 0.026682 0.000000
    vertex 0.051608 0.027320 0.000000
  endloop
endfacet
facet normal 0.000000 0.000000 -0.000000
  outer loop
    vertex 0.060369 0.039382 0.000000
    vertex 0.059952 0.043535 0.000000
    vertex 0.060157 0.042187 0.000000
  endloop
endfacet
facet normal 0.000000 0.000000 0.000001
  outer loop
    vertex 0.060369 0.039382 0.000000
    vertex 0.059532 0.031205 0.000000
    vertex 0.059815 0.032452 0.000000
  endloop
endfacet
facet normal 0.000000 0.000000 -0.000030
  outer loop
    vertex 0.060369 0.039382 0.000000
    vertex 0.030396 0.059555 0.000000
    vertex 0.030299 0.060632 0.000000
  endloop
endfacet
facet normal 0.000000 0.000000 -0.000034
  outer loop
    vertex 0.060369 0.039382 0.000000
    vertex 0.030959 0.055878 0.000000
    vertex 0.030727 0.057166 0.000000
  endloop
endfacet
facet normal 0.001427 0.000010 -0.000000
  outer loop
    vertex 0.060369 0.039382 0.000000
    vertex 0.060369 0.039382 1.000000
    vertex 0.060379 0.037955 1.000000
  endloop
endfacet
facet normal 0.001427 0.000010 0.000000
  outer loop
    vertex 0.060369 0.039382 0.000000
    vertex 0.060379 0.037955 1.000000
    vertex 0.060379 0.037955 0.000000
  endloop
endfacet
facet normal 0.001416 0.000073 0.000000
  outer loop
    vertex 0.060369 0.039382 0.000000
    vertex 0.060296 0.040798 0.000000
    vertex 0.060296 0.040798 1.000000
  endloop
endfacet
facet normal -0.001416 -0.000073 0.000000
  outer loop
    vertex 0.060369 0.039382 0.000000
    vertex 0.060369 0.039382 1.000000
    vertex 0.060296 0.040798 1.000000
  endloop
endfacet
facet normal 0.001247 -0.000284 0.000000
  outer loop
    vertex 0.059532 0.031205 1.000000
    vertex 0.059532 0.031205 0.000000
    vertex 0.059815 0.032452 0.000000
  endloop
endfacet
facet normal -0.001247 0.000284 0.000000
  outer loop
    vertex 0.059532 0.031205 1.000000
    vertex 0.059815 0.032452 1.000000
    vertex 0.059815 0.032452 0.000000
  endloop
endfacet
facet normal 0.001165 -0.000337 0.000000
  outer loop
    vertex 0.059532 0.031205 1.000000
    vertex 0.059194 0.030040 1.000000
    vertex 0.059194 0.030040 0.000000
  endloop
endfacet
facet normal -0.001165 0.000337 0.000000
  outer loop
    vertex 0.059532 0.031205 1.000000
    vertex 0.059532 0.031205 0.000000
    vertex 0.059194 0.030040 0.000000
  endloop
endfacet
facet normal -0.001160 -0.000143 0.000000
  outer loop
    vertex 0.030396 0.059555 1.000000
    vertex 0.030539 0.058396 0.000000
    vertex 0.030539 0.058396 1.000000
  endloop
endfacet
facet normal -0.001160 -0.000143 -0.000000
  outer loop
    vertex 0.030396 0.059555 1.000000
    vertex 0.030396 0.059555 0.000000
    vertex 0.030539 0.058396 0.000000
  endloop
endfacet
facet normal -0.001076 -0.000097 0.000000
  outer loop
    vertex 0.030396 0.059555 1.000000
    vertex 0.030299 0.060632 1.000000
    vertex 0.030299 0.060632 0.000000
  endloop
endfacet
facet normal 0.001076 0.000097 0.000000
  outer loop
    vertex 0.030396 0.059555 1.000000
    vertex 0.030396 0.059555 0.000000
    vertex 0.030299 0.060632 0.000000
  endloop
endfacet
facet normal 0.000000 0.000000 -0.000016
  outer loop
    vertex 0.030959 0.055878 1.000000
    vertex 0.057220 0.049879 1.000000
    vertex 0.057862 0.049107 1.000000
  endloop
endfacet
facet normal 0.000000 0.000000 0.000044
  outer loop
    vertex 0.030959 0.055878 1.000000
    vertex 0.060043 0.033766 1.000000
    vertex 0.060215 0.035132 1.000000
  endloop
endfacet
facet normal 0.000000 0.000000 -0.000001
  outer loop
    vertex 0.030959 0.055878 1.000000
    vertex 0.030298 0.063235 1.000000
    vertex 0.030398 0.063851 1.000000
  endloop
endfacet
facet normal 0.000000 0.000000 0.000021
  outer loop
    vertex 0.030959 0.055878 1.000000
    vertex 0.058427 0.048200 1.000000
    vertex 0.057862 0.049107 1.000000
  endloop
endfacet
facet normal 0.000000 0.000000 0.000031
  outer loop
    vertex 0.030959 0.055878 1.000000
    vertex 0.056760 0.025995 1.000000
    vertex 0.057341 0.026515 1.000000
  endloop
endfacet
facet normal 0.000000 0.000000 0.000003
  outer loop
    vertex 0.030959 0.055878 1.000000
    vertex 0.031333 0.064721 1.000000
    vertex 0.031016 0.064768 1.000000
  endloop
endfacet
facet normal 0.000000 0.000000 0.000012
  outer loop
    vertex 0.030959 0.055878 1.000000
    vertex 0.057220 0.049879 1.000000
    vertex 0.056500 0.050500 1.000000
  endloop
endfacet
facet normal -0.000000 0.000000 0.000221
  outer loop
    vertex 0.030959 0.055878 1.000000
    vertex 0.055701 0.050962 1.000000
    vertex 0.031333 0.064721 1.000000
  endloop
endfacet
facet normal 0.000000 0.000000 0.000000
  outer loop
    vertex 0.030959 0.055878 1.000000
    vertex 0.031906 0.051795 1.000000
    vertex 0.032300 0.050403 1.000000
  endloop
endfacet
facet normal 0.000000 0.000000 -0.000036
  outer loop
    vertex 0.030959 0.055878 1.000000
    vertex 0.058365 0.028019 1.000000
    vertex 0.057877 0.027195 1.000000
  endloop
endfacet
facet normal 0.000000 0.000000 0.000000
  outer loop
    vertex 0.030959 0.055878 1.000000
    vertex 0.030539 0.058396 1.000000
    vertex 0.030727 0.057166 1.000000
  endloop
endfacet
facet normal 0.000000 0.000000 -0.000043
  outer loop
    vertex 0.030959 0.055878 1.000000
    vertex 0.060327 0.036533 1.000000
    vertex 0.060215 0.035132 1.000000
  endloop
endfacet
facet normal 0.000000 0.000000 -0.000031
  outer loop
    vertex 0.030959 0.055878 1.000000
    vertex 0.059333 0.046044 1.000000
    vertex 0.059677 0.044826 1.000000
  endloop
endfacet
facet normal 0.000000 0.000000 -0.000132
  outer loop
    vertex 0.030959 0.055878 1.000000
    vertex 0.051608 0.027320 1.000000
    vertex 0.039630 0.037489 1.000000
  endloop
endfacet
facet normal 0.000000 0.000000 0.000007
  outer loop
    vertex 0.030959 0.055878 1.000000
    vertex 0.037407 0.039661 1.000000
    vertex 0.038124 0.038868 1.000000
  endloop
endfacet
facet normal 0.000000 0.000000 0.000039
  outer loop
    vertex 0.030959 0.055878 1.000000
    vertex 0.060296 0.040798 1.000000
    vertex 0.060157 0.042187 1.000000
  endloop
endfacet
facet normal 0.000000 0.000000 0.000034
  outer loop
    vertex 0.030959 0.055878 1.000000
    vertex 0.059952 0.043535 1.000000
    vertex 0.059677 0.044826 1.000000
  endloop
endfacet
facet normal 0.000000 0.000000 -0.000024
  outer loop
    vertex 0.030959 0.055878 1.000000
    vertex 0.058427 0.048200 1.000000
    vertex 0.058917 0.047174 1.000000
  endloop
endfacet
facet normal 0.000000 0.000000 0.000002
  outer loop
    vertex 0.030959 0.055878 1.000000
    vertex 0.033707 0.046313 1.000000
    vertex 0.034245 0.045021 1.000000
  endloop
endfacet
facet normal 0.000000 0.000000 0.000002
  outer loop
    vertex 0.030959 0.055878 1.000000
    vertex 0.034245 0.045021 1.000000
    vertex 0.034817 0.043786 1.000000
  endloop
endfacet
facet normal 0.000000 0.000000 -0.000034
  outer loop
    vertex 0.030959 0.055878 1.000000
    vertex 0.057877 0.027195 1.000000
    vertex 0.057341 0.026515 1.000000
  endloop
endfacet
facet normal 0.000000 0.000000 -0.000042
  outer loop
    vertex 0.030959 0.055878 1.000000
    vertex 0.059532 0.031205 1.000000
    vertex 0.059194 0.030040 1.000000
  endloop
endfacet
facet normal 0.000000 0.000000 -0.000000
  outer loop
    vertex 0.030959 0.055878 1.000000
    vertex 0.030396 0.059555 1.000000
    vertex 0.030299 0.060632 1.000000
  endloop
endfacet
facet normal 0.000000 0.000000 -0.000007
  outer loop
    vertex 0.030959 0.055878 1.000000
    vertex 0.038865 0.038149 1.000000
    vertex 0.038124 0.038868 1.000000
  endloop
endfacet
facet normal 0.000000 0.000000 -0.000014
  outer loop
    vertex 0.030959 0.055878 1.000000
    vertex 0.054016 0.025771 1.000000
    vertex 0.053240 0.026158 1.000000
  endloop
endfacet
facet normal 0.000000 0.000000 -0.000010
  outer loop
    vertex 0.030959 0.055878 1.000000
    vertex 0.052436 0.026682 1.000000
    vertex 0.051608 0.027320 1.000000
  endloop
endfacet
facet normal 0.000000 0.000000 -0.000008
  outer loop
    vertex 0.030959 0.055878 1.000000
    vertex 0.055701 0.050962 1.000000
    vertex 0.056500 0.050500 1.000000
  endloop
endfacet
facet normal 0.000000 0.000000 -0.000002
  outer loop
    vertex 0.030959 0.055878 1.000000
    vertex 0.030550 0.064320 1.000000
    vertex 0.030756 0.064630 1.000000
  endloop
endfacet
facet normal 0.000000 0.000000 0.000028
  outer loop
    vertex 0.030959 0.055878 1.000000
    vertex 0.059333 0.046044 1.000000
    vertex 0.058917 0.047174 1.000000
  endloop
endfacet
facet normal 0.000000 0.000000 -0.000001
  outer loop
    vertex 0.030959 0.055878 1.000000
    vertex 0.032733 0.049017 1.000000
    vertex 0.032300 0.050403 1.000000
  endloop
endfacet
facet normal 0.000000 0.000000 0.000004
  outer loop
    vertex 0.030959 0.055878 1.000000
    vertex 0.036053 0.041536 1.000000
    vertex 0.036716 0.040547 1.000000
  endloop
endfacet
facet normal 0.000000 0.000000 -0.000000
  outer loop
    vertex 0.030959 0.055878 1.000000
    vertex 0.031906 0.051795 1.000000
    vertex 0.031550 0.053180 1.000000
  endloop
endfacet
facet normal 0.000000 0.000000 0.000004
  outer loop
    vertex 0.030959 0.055878 1.000000
    vertex 0.035420 0.042620 1.000000
    vertex 0.036053 0.041536 1.000000
  endloop
endfacet
facet normal 0.000000 0.000000 -0.000001
  outer loop
    vertex 0.030959 0.055878 1.000000
    vertex 0.030249 0.062484 1.000000
    vertex 0.030298 0.063235 1.000000
  endloop
endfacet
facet normal 0.000000 0.000000 0.000008
  outer loop
    vertex 0.030959 0.055878 1.000000
    vertex 0.038865 0.038149 1.000000
    vertex 0.039630 0.037489 1.000000
  endloop
endfacet
facet normal 0.000000 0.000000 -0.000005
  outer loop
    vertex 0.030959 0.055878 1.000000
    vertex 0.037407 0.039661 1.000000
    vertex 0.036716 0.040547 1.000000
  endloop
endfacet
facet normal 0.000000 0.000000 0.000024
  outer loop
    vertex 0.030959 0.055878 1.000000
    vertex 0.055467 0.025497 1.000000
    vertex 0.056135 0.025651 1.000000
  endloop
endfacet
facet normal 0.000000 0.000000 0.000012
  outer loop
    vertex 0.030959 0.055878 1.000000
    vertex 0.052436 0.026682 1.000000
    vertex 0.053240 0.026158 1.000000
  endloop
endfacet
facet normal 0.000000 0.000000 0.000020
  outer loop
    vertex 0.030959 0.055878 1.000000
    vertex 0.054760 0.025543 1.000000
    vertex 0.055467 0.025497 1.000000
  endloop
endfacet
facet normal 0.000000 0.000000 -0.000002
  outer loop
    vertex 0.030959 0.055878 1.000000
    vertex 0.030756 0.064630 1.000000
    vertex 0.031016 0.064768 1.000000
  endloop
endfacet
facet normal 0.000000 0.000000 -0.000037
  outer loop
    vertex 0.030959 0.055878 1.000000
    vertex 0.059952 0.043535 1.000000
    vertex 0.060157 0.042187 1.000000
  endloop
endfacet
facet normal 0.000000 0.000000 -0.000040
  outer loop
    vertex 0.030959 0.055878 1.000000
    vertex 0.059194 0.030040 1.000000
    vertex 0.058805 0.028973 1.000000
  endloop
endfacet
facet normal 0.000000 0.000000 0.000040
  outer loop
    vertex 0.030959 0.055878 1.000000
    vertex 0.060369 0.039382 1.000000
    vertex 0.060296 0.040798 1.000000
  endloop
endfacet
facet normal 0.000000 0.000000 0.000001
  outer loop
    vertex 0.030959 0.055878 1.000000
    vertex 0.032733 0.049017 1.000000
    vertex 0.033202 0.047649 1.000000
  endloop
endfacet
facet normal 0.000000 0.000000 -0.000001
  outer loop
    vertex 0.030959 0.055878 1.000000
    vertex 0.033707 0.046313 1.000000
    vertex 0.033202 0.047649 1.000000
  endloop
endfacet
facet normal 0.000000 0.000000 -0.000003
  outer loop
    vertex 0.030959 0.055878 1.000000
    vertex 0.035420 0.042620 1.000000
    vertex 0.034817 0.043786 1.000000
  endloop
endfacet
facet normal 0.000000 0.000000 0.000001
  outer loop
    vertex 0.030959 0.055878 1.000000
    vertex 0.030249 0.062484 1.000000
    vertex 0.030250 0.061612 1.000000
  endloop
endfacet
facet normal 0.000000 0.000000 -0.000000
  outer loop
    vertex 0.030959 0.055878 1.000000
    vertex 0.030299 0.060632 1.000000
    vertex 0.030250 0.061612 1.000000
  endloop
endfacet
facet normal 0.000000 0.000000 0.000000
  outer loop
    vertex 0.030959 0.055878 1.000000
    vertex 0.031234 0.054545 1.000000
    vertex 0.031550 0.053180 1.000000
  endloop
endfacet
facet normal 0.000000 0.000000 -0.000017
  outer loop
    vertex 0.030959 0.055878 1.000000
    vertex 0.054760 0.025543 1.000000
    vertex 0.054016 0.025771 1.000000
  endloop
endfacet
facet normal 0.000000 0.000000 0.000038
  outer loop
    vertex 0.030959 0.055878 1.000000
    vertex 0.058365 0.028019 1.000000
    vertex 0.058805 0.028973 1.000000
  endloop
endfacet
facet normal 0.000000 0.000000 -0.000028
  outer loop
    vertex 0.030959 0.055878 1.000000
    vertex 0.056760 0.025995 1.000000
    vertex 0.056135 0.025651 1.000000
  endloop
endfacet
facet normal 0.000000 0.000000 0.000001
  outer loop
    vertex 0.030959 0.055878 1.000000
    vertex 0.030550 0.064320 1.000000
    vertex 0.030398 0.063851 1.000000
  endloop
endfacet
facet normal 0.000000 0.000000 -0.000042
  outer loop
    vertex 0.030959 0.055878 1.000000
    vertex 0.060369 0.039382 1.000000
    vertex 0.060379 0.037955 1.000000
  endloop
endfacet
facet normal 0.000000 0.000000 0.000043
  outer loop
    vertex 0.030959 0.055878 1.000000
    vertex 0.060327 0.036533 1.000000
    vertex 0.060379 0.037955 1.000000
  endloop
endfacet
facet normal 0.000000 0.000000 -0.000043
  outer loop
    vertex 0.030959 0.055878 1.000000
    vertex 0.060043 0.033766 1.000000
    vertex 0.059815 0.032452 1.000000
  endloop
endfacet
facet normal 0.000000 0.000000 0.000043
  outer loop
    vertex 0.030959 0.055878 1.000000
    vertex 0.059532 0.031205 1.000000
    vertex 0.059815 0.032452 1.000000
  endloop
endfacet
facet normal 0.000000 0.000000 0.000000
  outer loop
    vertex 0.030959 0.055878 1.000000
    vertex 0.030396 0.059555 1.000000
    vertex 0.030539 0.058396 1.000000
  endloop
endfacet
facet normal -0.001288 -0.000232 0.000000
  outer loop
    vertex 0.030959 0.055878 1.000000
    vertex 0.030727 0.057166 1.000000
    vertex 0.030727 0.057166 0.000000
  endloop
endfacet
facet normal 0.001288 0.000232 0.000000
  outer loop
    vertex 0.030959 0.055878 1.000000
    vertex 0.030959 0.055878 0.000000
    vertex 0.030727 0.057166 0.000000
  endloop
endfacet
facet normal 0.001333 0.000274 0.000000
  outer loop
    vertex 0.030959 0.055878 1.000000
    vertex 0.031234 0.054545 1.000000
    vertex 0.031234 0.054545 0.000000
  endloop
endfacet
facet normal -0.001333 -0.000274 -0.000000
  outer loop
    vertex 0.030959 0.055878 1.000000
    vertex 0.030959 0.055878 0.000000
    vertex 0.031234 0.054545 0.000000
  endloop
endfacet
endsolid No7_A_0-00_L0-11.stl
