solid No41_A_0-0005_L0-0970.stl
facet normal -0.014436 -0.016266 0.000000
  outer loop
    vertex 0.052064 0.053678 0.000000
    vertex 0.052064 0.053678 1.000000
    vertex 0.035799 0.068114 1.000000
  endloop
endfacet
facet normal 0.014436 0.016266 0.000000
  outer loop
    vertex 0.052064 0.053678 0.000000
    vertex 0.035799 0.068114 0.000000
    vertex 0.035799 0.068114 1.000000
  endloop
endfacet
facet normal 0.001168 0.000331 0.000000
  outer loop
    vertex 0.056695 0.046085 1.000000
    vertex 0.057027 0.044916 0.000000
    vertex 0.056695 0.046085 0.000000
  endloop
endfacet
facet normal -0.001168 -0.000331 0.000000
  outer loop
    vertex 0.056695 0.046085 1.000000
    vertex 0.057027 0.044916 0.000000
    vertex 0.057027 0.044916 1.000000
  endloop
endfacet
facet normal -0.001144 -0.000388 0.000000
  outer loop
    vertex 0.056307 0.047229 0.000000
    vertex 0.056695 0.046085 1.000000
    vertex 0.056307 0.047229 1.000000
  endloop
endfacet
facet normal 0.001144 0.000388 0.000000
  outer loop
    vertex 0.056307 0.047229 0.000000
    vertex 0.056695 0.046085 1.000000
    vertex 0.056695 0.046085 0.000000
  endloop
endfacet
facet normal -0.001110 -0.000444 0.000000
  outer loop
    vertex 0.056307 0.047229 0.000000
    vertex 0.056307 0.047229 1.000000
    vertex 0.055863 0.048338 1.000000
  endloop
endfacet
facet normal 0.001110 0.000444 0.000000
  outer loop
    vertex 0.056307 0.047229 0.000000
    vertex 0.055863 0.048338 0.000000
    vertex 0.055863 0.048338 1.000000
  endloop
endfacet
facet normal 0.001065 0.000500 0.000000
  outer loop
    vertex 0.055363 0.049403 1.000000
    vertex 0.055863 0.048338 0.000000
    vertex 0.055363 0.049403 0.000000
  endloop
endfacet
facet normal -0.001065 -0.000500 0.000000
  outer loop
    vertex 0.055363 0.049403 1.000000
    vertex 0.055863 0.048338 0.000000
    vertex 0.055863 0.048338 1.000000
  endloop
endfacet
facet normal -0.001009 -0.000554 -0.000000
  outer loop
    vertex 0.055363 0.049403 1.000000
    vertex 0.054809 0.050412 0.000000
    vertex 0.055363 0.049403 0.000000
  endloop
endfacet
facet normal 0.001009 0.000554 0.000000
  outer loop
    vertex 0.055363 0.049403 1.000000
    vertex 0.054809 0.050412 0.000000
    vertex 0.054809 0.050412 1.000000
  endloop
endfacet
facet normal -0.000649 -0.000597 -0.000000
  outer loop
    vertex 0.039020 0.039692 1.000000
    vertex 0.038422 0.040341 0.000000
    vertex 0.039020 0.039692 0.000000
  endloop
endfacet
facet normal 0.000649 0.000597 0.000000
  outer loop
    vertex 0.039020 0.039692 1.000000
    vertex 0.038422 0.040341 0.000000
    vertex 0.038422 0.040341 1.000000
  endloop
endfacet
facet normal -0.000589 0.000145 0.000000
  outer loop
    vertex 0.035037 0.066715 0.000000
    vertex 0.035037 0.066715 1.000000
    vertex 0.035182 0.067304 1.000000
  endloop
endfacet
facet normal -0.000589 0.000145 0.000000
  outer loop
    vertex 0.035037 0.066715 0.000000
    vertex 0.035182 0.067304 1.000000
    vertex 0.035182 0.067304 0.000000
  endloop
endfacet
facet normal -0.000944 0.000116 0.000000
  outer loop
    vertex 0.034772 0.065158 1.000000
    vertex 0.034772 0.065158 0.000000
    vertex 0.034656 0.064213 0.000000
  endloop
endfacet
facet normal -0.000944 0.000116 0.000000
  outer loop
    vertex 0.034772 0.065158 1.000000
    vertex 0.034656 0.064213 0.000000
    vertex 0.034656 0.064213 1.000000
  endloop
endfacet
facet normal 0.000053 0.000156 0.000000
  outer loop
    vertex 0.035643 0.068167 1.000000
    vertex 0.035799 0.068114 0.000000
    vertex 0.035643 0.068167 0.000000
  endloop
endfacet
facet normal -0.000053 -0.000156 0.000000
  outer loop
    vertex 0.035643 0.068167 1.000000
    vertex 0.035799 0.068114 0.000000
    vertex 0.035799 0.068114 1.000000
  endloop
endfacet
facet normal 0.000125 -0.000156 0.000000
  outer loop
    vertex 0.035643 0.068167 1.000000
    vertex 0.035487 0.068042 0.000000
    vertex 0.035643 0.068167 0.000000
  endloop
endfacet
facet normal -0.000125 0.000156 0.000000
  outer loop
    vertex 0.035643 0.068167 1.000000
    vertex 0.035487 0.068042 0.000000
    vertex 0.035487 0.068042 1.000000
  endloop
endfacet
facet normal 0.000943 0.000608 0.000000
  outer loop
    vertex 0.054201 0.051354 1.000000
    vertex 0.054809 0.050412 0.000000
    vertex 0.054201 0.051354 0.000000
  endloop
endfacet
facet normal -0.000943 -0.000608 0.000000
  outer loop
    vertex 0.054201 0.051354 1.000000
    vertex 0.054809 0.050412 0.000000
    vertex 0.054809 0.050412 1.000000
  endloop
endfacet
facet normal -0.000866 -0.000661 -0.000000
  outer loop
    vertex 0.054201 0.051354 1.000000
    vertex 0.053540 0.052220 0.000000
    vertex 0.054201 0.051354 0.000000
  endloop
endfacet
facet normal -0.000866 -0.000661 0.000000
  outer loop
    vertex 0.054201 0.051354 1.000000
    vertex 0.053540 0.052220 1.000000
    vertex 0.053540 0.052220 0.000000
  endloop
endfacet
facet normal -0.000680 -0.000764 -0.000000
  outer loop
    vertex 0.052828 0.052998 1.000000
    vertex 0.052064 0.053678 0.000000
    vertex 0.052828 0.052998 0.000000
  endloop
endfacet
facet normal 0.000680 0.000764 0.000000
  outer loop
    vertex 0.052828 0.052998 1.000000
    vertex 0.052064 0.053678 0.000000
    vertex 0.052064 0.053678 1.000000
  endloop
endfacet
facet normal 0.000778 0.000713 0.000000
  outer loop
    vertex 0.052828 0.052998 1.000000
    vertex 0.053540 0.052220 0.000000
    vertex 0.052828 0.052998 0.000000
  endloop
endfacet
facet normal 0.000778 0.000713 0.000000
  outer loop
    vertex 0.052828 0.052998 1.000000
    vertex 0.053540 0.052220 1.000000
    vertex 0.053540 0.052220 0.000000
  endloop
endfacet
facet normal 0.001182 0.000273 0.000000
  outer loop
    vertex 0.057300 0.043735 1.000000
    vertex 0.057027 0.044916 0.000000
    vertex 0.057027 0.044916 1.000000
  endloop
endfacet
facet normal 0.001182 0.000273 0.000000
  outer loop
    vertex 0.057300 0.043735 1.000000
    vertex 0.057300 0.043735 0.000000
    vertex 0.057027 0.044916 0.000000
  endloop
endfacet
facet normal 0.001090 -0.000028 0.000000
  outer loop
    vertex 0.057772 0.037995 0.000000
    vertex 0.057800 0.039085 1.000000
    vertex 0.057772 0.037995 1.000000
  endloop
endfacet
facet normal -0.001090 0.000028 0.000000
  outer loop
    vertex 0.057772 0.037995 0.000000
    vertex 0.057800 0.039085 1.000000
    vertex 0.057800 0.039085 0.000000
  endloop
endfacet
facet normal -0.001040 0.000091 0.000000
  outer loop
    vertex 0.057681 0.036955 1.000000
    vertex 0.057772 0.037995 0.000000
    vertex 0.057681 0.036955 0.000000
  endloop
endfacet
facet normal 0.001040 -0.000091 0.000000
  outer loop
    vertex 0.057681 0.036955 1.000000
    vertex 0.057772 0.037995 0.000000
    vertex 0.057772 0.037995 1.000000
  endloop
endfacet
facet normal 0.000802 0.000476 0.000000
  outer loop
    vertex 0.037348 0.041776 1.000000
    vertex 0.037348 0.041776 0.000000
    vertex 0.036872 0.042578 0.000000
  endloop
endfacet
facet normal 0.000802 0.000476 0.000000
  outer loop
    vertex 0.037348 0.041776 1.000000
    vertex 0.036872 0.042578 0.000000
    vertex 0.036872 0.042578 1.000000
  endloop
endfacet
facet normal -0.000868 -0.000434 -0.000000
  outer loop
    vertex 0.036438 0.043446 1.000000
    vertex 0.036438 0.043446 0.000000
    vertex 0.036872 0.042578 0.000000
  endloop
endfacet
facet normal -0.000868 -0.000434 0.000000
  outer loop
    vertex 0.036438 0.043446 1.000000
    vertex 0.036872 0.042578 0.000000
    vertex 0.036872 0.042578 1.000000
  endloop
endfacet
facet normal 0.000941 0.000391 0.000000
  outer loop
    vertex 0.036438 0.043446 1.000000
    vertex 0.036438 0.043446 0.000000
    vertex 0.036048 0.044387 0.000000
  endloop
endfacet
facet normal -0.000941 -0.000391 0.000000
  outer loop
    vertex 0.036438 0.043446 1.000000
    vertex 0.036048 0.044387 1.000000
    vertex 0.036048 0.044387 0.000000
  endloop
endfacet
facet normal 0.000612 0.000636 0.000000
  outer loop
    vertex 0.039655 0.039080 1.000000
    vertex 0.039655 0.039080 0.000000
    vertex 0.039020 0.039692 0.000000
  endloop
endfacet
facet normal -0.000612 -0.000636 0.000000
  outer loop
    vertex 0.039655 0.039080 1.000000
    vertex 0.039020 0.039692 1.000000
    vertex 0.039020 0.039692 0.000000
  endloop
endfacet
facet normal 0.001022 0.000347 -0.000000
  outer loop
    vertex 0.035701 0.045409 0.000000
    vertex 0.035701 0.045409 1.000000
    vertex 0.036048 0.044387 1.000000
  endloop
endfacet
facet normal 0.001022 0.000347 0.000000
  outer loop
    vertex 0.035701 0.045409 0.000000
    vertex 0.036048 0.044387 1.000000
    vertex 0.036048 0.044387 0.000000
  endloop
endfacet
facet normal -0.001105 -0.000303 0.000000
  outer loop
    vertex 0.035701 0.045409 0.000000
    vertex 0.035701 0.045409 1.000000
    vertex 0.035397 0.046514 1.000000
  endloop
endfacet
facet normal 0.001105 0.000303 0.000000
  outer loop
    vertex 0.035701 0.045409 0.000000
    vertex 0.035397 0.046514 0.000000
    vertex 0.035397 0.046514 1.000000
  endloop
endfacet
facet normal -0.001332 0.000003 0.000000
  outer loop
    vertex 0.034319 0.056981 1.000000
    vertex 0.034322 0.058313 0.000000
    vertex 0.034319 0.056981 0.000000
  endloop
endfacet
facet normal 0.001332 -0.000003 0.000000
  outer loop
    vertex 0.034319 0.056981 1.000000
    vertex 0.034322 0.058313 0.000000
    vertex 0.034322 0.058313 1.000000
  endloop
endfacet
facet normal -0.001192 0.000069 0.000000
  outer loop
    vertex 0.034467 0.062053 1.000000
    vertex 0.034467 0.062053 0.000000
    vertex 0.034398 0.060861 0.000000
  endloop
endfacet
facet normal 0.001192 -0.000069 0.000000
  outer loop
    vertex 0.034467 0.062053 1.000000
    vertex 0.034398 0.060861 1.000000
    vertex 0.034398 0.060861 0.000000
  endloop
endfacet
facet normal 0.001355 0.000023 -0.000000
  outer loop
    vertex 0.034342 0.055626 0.000000
    vertex 0.034319 0.056981 1.000000
    vertex 0.034342 0.055626 1.000000
  endloop
endfacet
facet normal -0.001355 -0.000023 0.000000
  outer loop
    vertex 0.034342 0.055626 0.000000
    vertex 0.034319 0.056981 1.000000
    vertex 0.034319 0.056981 0.000000
  endloop
endfacet
facet normal 0.001365 0.000051 -0.000000
  outer loop
    vertex 0.034342 0.055626 0.000000
    vertex 0.034342 0.055626 1.000000
    vertex 0.034393 0.054261 1.000000
  endloop
endfacet
facet normal -0.001365 -0.000051 0.000000
  outer loop
    vertex 0.034342 0.055626 0.000000
    vertex 0.034393 0.054261 0.000000
    vertex 0.034393 0.054261 1.000000
  endloop
endfacet
facet normal 0.001326 0.000147 -0.000000
  outer loop
    vertex 0.034586 0.051546 0.000000
    vertex 0.034586 0.051546 1.000000
    vertex 0.034733 0.050220 1.000000
  endloop
endfacet
facet normal 0.001326 0.000147 0.000000
  outer loop
    vertex 0.034586 0.051546 0.000000
    vertex 0.034733 0.050220 1.000000
    vertex 0.034733 0.050220 0.000000
  endloop
endfacet
facet normal -0.001364 -0.000081 -0.000000
  outer loop
    vertex 0.034473 0.052897 1.000000
    vertex 0.034393 0.054261 0.000000
    vertex 0.034473 0.052897 0.000000
  endloop
endfacet
facet normal 0.001364 0.000081 0.000000
  outer loop
    vertex 0.034473 0.052897 1.000000
    vertex 0.034393 0.054261 0.000000
    vertex 0.034393 0.054261 1.000000
  endloop
endfacet
facet normal 0.001351 0.000113 0.000000
  outer loop
    vertex 0.034473 0.052897 1.000000
    vertex 0.034586 0.051546 0.000000
    vertex 0.034473 0.052897 0.000000
  endloop
endfacet
facet normal -0.001351 -0.000113 0.000000
  outer loop
    vertex 0.034473 0.052897 1.000000
    vertex 0.034586 0.051546 0.000000
    vertex 0.034586 0.051546 1.000000
  endloop
endfacet
facet normal -0.001178 -0.000261 -0.000000
  outer loop
    vertex 0.035136 0.047692 1.000000
    vertex 0.035136 0.047692 0.000000
    vertex 0.035397 0.046514 0.000000
  endloop
endfacet
facet normal -0.001178 -0.000261 0.000000
  outer loop
    vertex 0.035136 0.047692 1.000000
    vertex 0.035397 0.046514 0.000000
    vertex 0.035397 0.046514 1.000000
  endloop
endfacet
facet normal 0.000260 -0.000622 0.000000
  outer loop
    vertex 0.055220 0.031961 1.000000
    vertex 0.054598 0.031702 0.000000
    vertex 0.055220 0.031961 0.000000
  endloop
endfacet
facet normal -0.000260 0.000622 0.000000
  outer loop
    vertex 0.055220 0.031961 1.000000
    vertex 0.054598 0.031702 0.000000
    vertex 0.054598 0.031702 1.000000
  endloop
endfacet
facet normal -0.000394 0.000553 0.000000
  outer loop
    vertex 0.055220 0.031961 1.000000
    vertex 0.055773 0.032355 0.000000
    vertex 0.055220 0.031961 0.000000
  endloop
endfacet
facet normal -0.000394 0.000553 0.000000
  outer loop
    vertex 0.055220 0.031961 1.000000
    vertex 0.055773 0.032355 1.000000
    vertex 0.055773 0.032355 0.000000
  endloop
endfacet
facet normal 0.000632 -0.000417 0.000000
  outer loop
    vertex 0.056258 0.032874 1.000000
    vertex 0.056258 0.032874 0.000000
    vertex 0.056675 0.033505 0.000000
  endloop
endfacet
facet normal 0.000632 -0.000417 0.000000
  outer loop
    vertex 0.056258 0.032874 1.000000
    vertex 0.056675 0.033505 0.000000
    vertex 0.056675 0.033505 1.000000
  endloop
endfacet
facet normal -0.000518 0.000485 0.000000
  outer loop
    vertex 0.056258 0.032874 1.000000
    vertex 0.056258 0.032874 0.000000
    vertex 0.055773 0.032355 0.000000
  endloop
endfacet
facet normal 0.000518 -0.000485 0.000000
  outer loop
    vertex 0.056258 0.032874 1.000000
    vertex 0.055773 0.032355 1.000000
    vertex 0.055773 0.032355 0.000000
  endloop
endfacet
facet normal -0.000122 0.000690 0.000000
  outer loop
    vertex 0.053908 0.031580 1.000000
    vertex 0.054598 0.031702 0.000000
    vertex 0.053908 0.031580 0.000000
  endloop
endfacet
facet normal 0.000122 -0.000690 0.000000
  outer loop
    vertex 0.053908 0.031580 1.000000
    vertex 0.054598 0.031702 0.000000
    vertex 0.054598 0.031702 1.000000
  endloop
endfacet
facet normal -0.000005 -0.000749 0.000000
  outer loop
    vertex 0.053158 0.031585 0.000000
    vertex 0.053908 0.031580 1.000000
    vertex 0.053158 0.031585 1.000000
  endloop
endfacet
facet normal 0.000005 0.000749 0.000000
  outer loop
    vertex 0.053158 0.031585 0.000000
    vertex 0.053908 0.031580 1.000000
    vertex 0.053908 0.031580 0.000000
  endloop
endfacet
facet normal 0.000444 0.000921 -0.000000
  outer loop
    vertex 0.049733 0.032613 0.000000
    vertex 0.048811 0.033058 1.000000
    vertex 0.049733 0.032613 1.000000
  endloop
endfacet
facet normal -0.000444 -0.000921 0.000000
  outer loop
    vertex 0.049733 0.032613 0.000000
    vertex 0.048811 0.033058 1.000000
    vertex 0.048811 0.033058 0.000000
  endloop
endfacet
facet normal -0.000307 -0.000878 -0.000000
  outer loop
    vertex 0.050636 0.032231 1.000000
    vertex 0.050636 0.032231 0.000000
    vertex 0.051514 0.031923 0.000000
  endloop
endfacet
facet normal -0.000307 -0.000878 0.000000
  outer loop
    vertex 0.050636 0.032231 1.000000
    vertex 0.051514 0.031923 0.000000
    vertex 0.051514 0.031923 1.000000
  endloop
endfacet
facet normal -0.000382 -0.000904 -0.000000
  outer loop
    vertex 0.050636 0.032231 1.000000
    vertex 0.049733 0.032613 0.000000
    vertex 0.050636 0.032231 0.000000
  endloop
endfacet
facet normal 0.000382 0.000904 0.000000
  outer loop
    vertex 0.050636 0.032231 1.000000
    vertex 0.049733 0.032613 0.000000
    vertex 0.049733 0.032613 1.000000
  endloop
endfacet
facet normal -0.000719 0.000137 0.000000
  outer loop
    vertex 0.034899 0.065996 1.000000
    vertex 0.035037 0.066715 0.000000
    vertex 0.034899 0.065996 0.000000
  endloop
endfacet
facet normal 0.000719 -0.000137 0.000000
  outer loop
    vertex 0.034899 0.065996 1.000000
    vertex 0.035037 0.066715 0.000000
    vertex 0.035037 0.066715 1.000000
  endloop
endfacet
facet normal 0.000838 -0.000128 0.000000
  outer loop
    vertex 0.034899 0.065996 1.000000
    vertex 0.034772 0.065158 0.000000
    vertex 0.034899 0.065996 0.000000
  endloop
endfacet
facet normal 0.000838 -0.000128 0.000000
  outer loop
    vertex 0.034899 0.065996 1.000000
    vertex 0.034772 0.065158 1.000000
    vertex 0.034772 0.065158 0.000000
  endloop
endfacet
facet normal 0.001177 0.000155 0.000000
  outer loop
    vertex 0.057515 0.042550 1.000000
    vertex 0.057670 0.041373 0.000000
    vertex 0.057515 0.042550 0.000000
  endloop
endfacet
facet normal -0.001177 -0.000155 0.000000
  outer loop
    vertex 0.057515 0.042550 1.000000
    vertex 0.057670 0.041373 0.000000
    vertex 0.057670 0.041373 1.000000
  endloop
endfacet
facet normal -0.001185 -0.000215 -0.000000
  outer loop
    vertex 0.057515 0.042550 1.000000
    vertex 0.057300 0.043735 0.000000
    vertex 0.057515 0.042550 0.000000
  endloop
endfacet
facet normal -0.001185 -0.000215 0.000000
  outer loop
    vertex 0.057515 0.042550 1.000000
    vertex 0.057300 0.043735 1.000000
    vertex 0.057300 0.043735 0.000000
  endloop
endfacet
facet normal -0.000980 0.000154 0.000000
  outer loop
    vertex 0.057527 0.035975 1.000000
    vertex 0.057681 0.036955 0.000000
    vertex 0.057527 0.035975 0.000000
  endloop
endfacet
facet normal -0.000980 0.000154 0.000000
  outer loop
    vertex 0.057527 0.035975 1.000000
    vertex 0.057681 0.036955 1.000000
    vertex 0.057681 0.036955 0.000000
  endloop
endfacet
facet normal 0.000909 -0.000219 0.000000
  outer loop
    vertex 0.057308 0.035066 0.000000
    vertex 0.057527 0.035975 1.000000
    vertex 0.057308 0.035066 1.000000
  endloop
endfacet
facet normal -0.000909 0.000219 0.000000
  outer loop
    vertex 0.057308 0.035066 0.000000
    vertex 0.057527 0.035975 1.000000
    vertex 0.057527 0.035975 0.000000
  endloop
endfacet
facet normal -0.000734 0.000350 0.000000
  outer loop
    vertex 0.057024 0.034240 1.000000
    vertex 0.057024 0.034240 0.000000
    vertex 0.056675 0.033505 0.000000
  endloop
endfacet
facet normal -0.000734 0.000350 0.000000
  outer loop
    vertex 0.057024 0.034240 1.000000
    vertex 0.056675 0.033505 0.000000
    vertex 0.056675 0.033505 1.000000
  endloop
endfacet
facet normal -0.000827 0.000284 0.000000
  outer loop
    vertex 0.057024 0.034240 1.000000
    vertex 0.057308 0.035066 0.000000
    vertex 0.057024 0.034240 0.000000
  endloop
endfacet
facet normal 0.000827 -0.000284 0.000000
  outer loop
    vertex 0.057024 0.034240 1.000000
    vertex 0.057308 0.035066 0.000000
    vertex 0.057308 0.035066 1.000000
  endloop
endfacet
facet normal 0.001159 0.000095 0.000000
  outer loop
    vertex 0.057766 0.040215 1.000000
    vertex 0.057766 0.040215 0.000000
    vertex 0.057670 0.041373 0.000000
  endloop
endfacet
facet normal 0.001159 0.000095 0.000000
  outer loop
    vertex 0.057766 0.040215 1.000000
    vertex 0.057670 0.041373 0.000000
    vertex 0.057670 0.041373 1.000000
  endloop
endfacet
facet normal 0.001130 0.000034 0.000000
  outer loop
    vertex 0.057766 0.040215 1.000000
    vertex 0.057800 0.039085 1.000000
    vertex 0.057800 0.039085 0.000000
  endloop
endfacet
facet normal -0.001130 -0.000034 -0.000000
  outer loop
    vertex 0.057766 0.040215 1.000000
    vertex 0.057766 0.040215 0.000000
    vertex 0.057800 0.039085 0.000000
  endloop
endfacet
facet normal 0.000692 0.000557 0.000000
  outer loop
    vertex 0.037865 0.041033 1.000000
    vertex 0.038422 0.040341 0.000000
    vertex 0.037865 0.041033 0.000000
  endloop
endfacet
facet normal -0.000692 -0.000557 0.000000
  outer loop
    vertex 0.037865 0.041033 1.000000
    vertex 0.038422 0.040341 0.000000
    vertex 0.038422 0.040341 1.000000
  endloop
endfacet
facet normal -0.000743 -0.000517 -0.000000
  outer loop
    vertex 0.037865 0.041033 1.000000
    vertex 0.037348 0.041776 0.000000
    vertex 0.037865 0.041033 0.000000
  endloop
endfacet
facet normal -0.000743 -0.000517 0.000000
  outer loop
    vertex 0.037865 0.041033 1.000000
    vertex 0.037348 0.041776 1.000000
    vertex 0.037348 0.041776 0.000000
  endloop
endfacet
facet normal -0.000561 -0.000711 -0.000000
  outer loop
    vertex 0.040329 0.038497 1.000000
    vertex 0.040329 0.038497 0.000000
    vertex 0.041040 0.037935 0.000000
  endloop
endfacet
facet normal -0.000561 -0.000711 0.000000
  outer loop
    vertex 0.040329 0.038497 1.000000
    vertex 0.041040 0.037935 0.000000
    vertex 0.041040 0.037935 1.000000
  endloop
endfacet
facet normal 0.000583 0.000674 0.000000
  outer loop
    vertex 0.040329 0.038497 1.000000
    vertex 0.040329 0.038497 0.000000
    vertex 0.039655 0.039080 0.000000
  endloop
endfacet
facet normal -0.000583 -0.000674 0.000000
  outer loop
    vertex 0.040329 0.038497 1.000000
    vertex 0.039655 0.039080 1.000000
    vertex 0.039655 0.039080 0.000000
  endloop
endfacet
facet normal 0.001039 -0.000102 0.000000
  outer loop
    vertex 0.034553 0.063174 1.000000
    vertex 0.034553 0.063174 0.000000
    vertex 0.034656 0.064213 0.000000
  endloop
endfacet
facet normal 0.001039 -0.000102 0.000000
  outer loop
    vertex 0.034553 0.063174 1.000000
    vertex 0.034656 0.064213 0.000000
    vertex 0.034656 0.064213 1.000000
  endloop
endfacet
facet normal -0.001121 0.000087 0.000000
  outer loop
    vertex 0.034553 0.063174 1.000000
    vertex 0.034553 0.063174 0.000000
    vertex 0.034467 0.062053 0.000000
  endloop
endfacet
facet normal 0.001121 -0.000087 0.000000
  outer loop
    vertex 0.034553 0.063174 1.000000
    vertex 0.034467 0.062053 1.000000
    vertex 0.034467 0.062053 0.000000
  endloop
endfacet
facet normal -0.001297 0.000027 0.000000
  outer loop
    vertex 0.034349 0.059610 1.000000
    vertex 0.034322 0.058313 0.000000
    vertex 0.034322 0.058313 1.000000
  endloop
endfacet
facet normal -0.001297 0.000027 0.000000
  outer loop
    vertex 0.034349 0.059610 1.000000
    vertex 0.034349 0.059610 0.000000
    vertex 0.034322 0.058313 0.000000
  endloop
endfacet
facet normal -0.001251 0.000049 0.000000
  outer loop
    vertex 0.034349 0.059610 1.000000
    vertex 0.034398 0.060861 1.000000
    vertex 0.034398 0.060861 0.000000
  endloop
endfacet
facet normal 0.001251 -0.000049 0.000000
  outer loop
    vertex 0.034349 0.059610 1.000000
    vertex 0.034349 0.059610 0.000000
    vertex 0.034398 0.060861 0.000000
  endloop
endfacet
facet normal 0.000446 -0.000151 0.000000
  outer loop
    vertex 0.035333 0.067750 0.000000
    vertex 0.035182 0.067304 1.000000
    vertex 0.035182 0.067304 0.000000
  endloop
endfacet
facet normal 0.000446 -0.000151 0.000000
  outer loop
    vertex 0.035333 0.067750 0.000000
    vertex 0.035333 0.067750 1.000000
    vertex 0.035182 0.067304 1.000000
  endloop
endfacet
facet normal 0.000292 -0.000154 0.000000
  outer loop
    vertex 0.035333 0.067750 0.000000
    vertex 0.035487 0.068042 0.000000
    vertex 0.035487 0.068042 1.000000
  endloop
endfacet
facet normal -0.000292 0.000154 0.000000
  outer loop
    vertex 0.035333 0.067750 0.000000
    vertex 0.035333 0.067750 1.000000
    vertex 0.035487 0.068042 1.000000
  endloop
endfacet
facet normal -0.001288 -0.000183 0.000000
  outer loop
    vertex 0.034916 0.048932 1.000000
    vertex 0.034733 0.050220 1.000000
    vertex 0.034733 0.050220 0.000000
  endloop
endfacet
facet normal 0.001288 0.000183 0.000000
  outer loop
    vertex 0.034916 0.048932 1.000000
    vertex 0.034916 0.048932 0.000000
    vertex 0.034733 0.050220 0.000000
  endloop
endfacet
facet normal 0.001239 0.000221 0.000000
  outer loop
    vertex 0.034916 0.048932 1.000000
    vertex 0.035136 0.047692 1.000000
    vertex 0.035136 0.047692 0.000000
  endloop
endfacet
facet normal -0.001239 -0.000221 -0.000000
  outer loop
    vertex 0.034916 0.048932 1.000000
    vertex 0.034916 0.048932 0.000000
    vertex 0.035136 0.047692 0.000000
  endloop
endfacet
facet normal 0.000220 0.000843 0.000000
  outer loop
    vertex 0.052358 0.031704 0.000000
    vertex 0.051514 0.031923 0.000000
    vertex 0.051514 0.031923 1.000000
  endloop
endfacet
facet normal -0.000220 -0.000843 0.000000
  outer loop
    vertex 0.052358 0.031704 0.000000
    vertex 0.052358 0.031704 1.000000
    vertex 0.051514 0.031923 1.000000
  endloop
endfacet
facet normal -0.000119 -0.000801 0.000000
  outer loop
    vertex 0.052358 0.031704 0.000000
    vertex 0.053158 0.031585 0.000000
    vertex 0.053158 0.031585 1.000000
  endloop
endfacet
facet normal 0.000119 0.000801 -0.000000
  outer loop
    vertex 0.052358 0.031704 0.000000
    vertex 0.052358 0.031704 1.000000
    vertex 0.053158 0.031585 1.000000
  endloop
endfacet
facet normal 0.000494 0.000930 0.000000
  outer loop
    vertex 0.047881 0.033551 0.000000
    vertex 0.048811 0.033058 1.000000
    vertex 0.048811 0.033058 0.000000
  endloop
endfacet
facet normal 0.000494 0.000930 -0.000000
  outer loop
    vertex 0.047881 0.033551 0.000000
    vertex 0.047881 0.033551 1.000000
    vertex 0.048811 0.033058 1.000000
  endloop
endfacet
facet normal -0.000530 -0.000931 0.000000
  outer loop
    vertex 0.047881 0.033551 0.000000
    vertex 0.047881 0.033551 1.000000
    vertex 0.046950 0.034081 1.000000
  endloop
endfacet
facet normal 0.000530 0.000931 0.000000
  outer loop
    vertex 0.047881 0.033551 0.000000
    vertex 0.046950 0.034081 0.000000
    vertex 0.046950 0.034081 1.000000
  endloop
endfacet
facet normal -0.000553 -0.000923 -0.000000
  outer loop
    vertex 0.046027 0.034634 1.000000
    vertex 0.046027 0.034634 0.000000
    vertex 0.046950 0.034081 0.000000
  endloop
endfacet
facet normal -0.000553 -0.000923 0.000000
  outer loop
    vertex 0.046027 0.034634 1.000000
    vertex 0.046950 0.034081 0.000000
    vertex 0.046950 0.034081 1.000000
  endloop
endfacet
facet normal 0.000563 0.000907 0.000000
  outer loop
    vertex 0.046027 0.034634 1.000000
    vertex 0.046027 0.034634 0.000000
    vertex 0.045120 0.035197 0.000000
  endloop
endfacet
facet normal -0.000563 -0.000907 0.000000
  outer loop
    vertex 0.046027 0.034634 1.000000
    vertex 0.045120 0.035197 1.000000
    vertex 0.045120 0.035197 0.000000
  endloop
endfacet
facet normal 0.000541 0.000817 0.000000
  outer loop
    vertex 0.042570 0.036848 1.000000
    vertex 0.043387 0.036307 0.000000
    vertex 0.042570 0.036848 0.000000
  endloop
endfacet
facet normal -0.000541 -0.000817 0.000000
  outer loop
    vertex 0.042570 0.036848 1.000000
    vertex 0.043387 0.036307 0.000000
    vertex 0.043387 0.036307 1.000000
  endloop
endfacet
facet normal 0.000561 0.000882 -0.000000
  outer loop
    vertex 0.044237 0.035758 0.000000
    vertex 0.044237 0.035758 1.000000
    vertex 0.045120 0.035197 1.000000
  endloop
endfacet
facet normal 0.000561 0.000882 0.000000
  outer loop
    vertex 0.044237 0.035758 0.000000
    vertex 0.045120 0.035197 1.000000
    vertex 0.045120 0.035197 0.000000
  endloop
endfacet
facet normal -0.000549 -0.000851 0.000000
  outer loop
    vertex 0.044237 0.035758 0.000000
    vertex 0.044237 0.035758 1.000000
    vertex 0.043387 0.036307 1.000000
  endloop
endfacet
facet normal 0.000549 0.000851 0.000000
  outer loop
    vertex 0.044237 0.035758 0.000000
    vertex 0.043387 0.036307 0.000000
    vertex 0.043387 0.036307 1.000000
  endloop
endfacet
facet normal 0.000000 0.000000 -0.000007
  outer loop
    vertex 0.041787 0.037388 1.000000
    vertex 0.035333 0.067750 1.000000
    vertex 0.035487 0.068042 1.000000
  endloop
endfacet
facet normal 0.000000 0.000000 0.000003
  outer loop
    vertex 0.041787 0.037388 1.000000
    vertex 0.035701 0.045409 1.000000
    vertex 0.036048 0.044387 1.000000
  endloop
endfacet
facet normal 0.000000 0.000000 0.000020
  outer loop
    vertex 0.041787 0.037388 1.000000
    vertex 0.056307 0.047229 1.000000
    vertex 0.055863 0.048338 1.000000
  endloop
endfacet
facet normal 0.000000 0.000000 0.000010
  outer loop
    vertex 0.041787 0.037388 1.000000
    vertex 0.034553 0.063174 1.000000
    vertex 0.034467 0.062053 1.000000
  endloop
endfacet
facet normal 0.000000 -0.000000 0.000413
  outer loop
    vertex 0.041787 0.037388 1.000000
    vertex 0.052064 0.053678 1.000000
    vertex 0.035799 0.068114 1.000000
  endloop
endfacet
facet normal 0.000000 0.000000 0.000020
  outer loop
    vertex 0.041787 0.037388 1.000000
    vertex 0.056695 0.046085 1.000000
    vertex 0.056307 0.047229 1.000000
  endloop
endfacet
facet normal 0.000000 0.000000 0.000006
  outer loop
    vertex 0.041787 0.037388 1.000000
    vertex 0.034916 0.048932 1.000000
    vertex 0.035136 0.047692 1.000000
  endloop
endfacet
facet normal 0.000000 0.000000 -0.000008
  outer loop
    vertex 0.041787 0.037388 1.000000
    vertex 0.035037 0.066715 1.000000
    vertex 0.035182 0.067304 1.000000
  endloop
endfacet
facet normal 0.000000 0.000000 0.000006
  outer loop
    vertex 0.041787 0.037388 1.000000
    vertex 0.035643 0.068167 1.000000
    vertex 0.035487 0.068042 1.000000
  endloop
endfacet
facet normal 0.000000 0.000000 -0.000018
  outer loop
    vertex 0.041787 0.037388 1.000000
    vertex 0.057766 0.040215 1.000000
    vertex 0.057800 0.039085 1.000000
  endloop
endfacet
facet normal 0.000000 0.000000 0.000020
  outer loop
    vertex 0.041787 0.037388 1.000000
    vertex 0.057515 0.042550 1.000000
    vertex 0.057300 0.043735 1.000000
  endloop
endfacet
facet normal 0.000000 0.000000 -0.000010
  outer loop
    vertex 0.041787 0.037388 1.000000
    vertex 0.056258 0.032874 1.000000
    vertex 0.055773 0.032355 1.000000
  endloop
endfacet
facet normal 0.000000 0.000000 0.000009
  outer loop
    vertex 0.041787 0.037388 1.000000
    vertex 0.034899 0.065996 1.000000
    vertex 0.034772 0.065158 1.000000
  endloop
endfacet
facet normal 0.000000 0.000000 0.000020
  outer loop
    vertex 0.041787 0.037388 1.000000
    vertex 0.055363 0.049403 1.000000
    vertex 0.054809 0.050412 1.000000
  endloop
endfacet
facet normal 0.000000 0.000000 -0.000020
  outer loop
    vertex 0.041787 0.037388 1.000000
    vertex 0.052828 0.052998 1.000000
    vertex 0.053540 0.052220 1.000000
  endloop
endfacet
facet normal 0.000000 0.000000 -0.000003
  outer loop
    vertex 0.041787 0.037388 1.000000
    vertex 0.036438 0.043446 1.000000
    vertex 0.036048 0.044387 1.000000
  endloop
endfacet
facet normal 0.000000 0.000000 0.000013
  outer loop
    vertex 0.041787 0.037388 1.000000
    vertex 0.057024 0.034240 1.000000
    vertex 0.057308 0.035066 1.000000
  endloop
endfacet
facet normal 0.000000 0.000000 -0.000000
  outer loop
    vertex 0.041787 0.037388 1.000000
    vertex 0.039655 0.039080 1.000000
    vertex 0.039020 0.039692 1.000000
  endloop
endfacet
facet normal 0.000000 0.000000 0.000008
  outer loop
    vertex 0.041787 0.037388 1.000000
    vertex 0.034473 0.052897 1.000000
    vertex 0.034586 0.051546 1.000000
  endloop
endfacet
facet normal 0.000000 0.000000 0.000007
  outer loop
    vertex 0.041787 0.037388 1.000000
    vertex 0.034586 0.051546 1.000000
    vertex 0.034733 0.050220 1.000000
  endloop
endfacet
facet normal 0.000000 0.000000 -0.000001
  outer loop
    vertex 0.041787 0.037388 1.000000
    vertex 0.050636 0.032231 1.000000
    vertex 0.049733 0.032613 1.000000
  endloop
endfacet
facet normal 0.000000 0.000000 -0.000004
  outer loop
    vertex 0.041787 0.037388 1.000000
    vertex 0.053908 0.031580 1.000000
    vertex 0.053158 0.031585 1.000000
  endloop
endfacet
facet normal 0.000000 0.000000 0.000001
  outer loop
    vertex 0.041787 0.037388 1.000000
    vertex 0.047881 0.033551 1.000000
    vertex 0.048811 0.033058 1.000000
  endloop
endfacet
facet normal 0.000000 0.000000 -0.000020
  outer loop
    vertex 0.041787 0.037388 1.000000
    vertex 0.056695 0.046085 1.000000
    vertex 0.057027 0.044916 1.000000
  endloop
endfacet
facet normal 0.000000 0.000000 -0.000020
  outer loop
    vertex 0.041787 0.037388 1.000000
    vertex 0.055363 0.049403 1.000000
    vertex 0.055863 0.048338 1.000000
  endloop
endfacet
facet normal 0.000000 0.000000 0.000020
  outer loop
    vertex 0.041787 0.037388 1.000000
    vertex 0.054201 0.051354 1.000000
    vertex 0.053540 0.052220 1.000000
  endloop
endfacet
facet normal 0.000000 0.000000 0.000016
  outer loop
    vertex 0.041787 0.037388 1.000000
    vertex 0.057527 0.035975 1.000000
    vertex 0.057681 0.036955 1.000000
  endloop
endfacet
facet normal 0.000000 0.000000 -0.000017
  outer loop
    vertex 0.041787 0.037388 1.000000
    vertex 0.057800 0.039085 1.000000
    vertex 0.057772 0.037995 1.000000
  endloop
endfacet
facet normal 0.000000 0.000000 -0.000000
  outer loop
    vertex 0.041787 0.037388 1.000000
    vertex 0.039020 0.039692 1.000000
    vertex 0.038422 0.040341 1.000000
  endloop
endfacet
facet normal 0.000000 0.000000 -0.000004
  outer loop
    vertex 0.041787 0.037388 1.000000
    vertex 0.035701 0.045409 1.000000
    vertex 0.035397 0.046514 1.000000
  endloop
endfacet
facet normal 0.000000 0.000000 0.000009
  outer loop
    vertex 0.041787 0.037388 1.000000
    vertex 0.034342 0.055626 1.000000
    vertex 0.034393 0.054261 1.000000
  endloop
endfacet
facet normal 0.000000 0.000000 0.000010
  outer loop
    vertex 0.041787 0.037388 1.000000
    vertex 0.034319 0.056981 1.000000
    vertex 0.034342 0.055626 1.000000
  endloop
endfacet
facet normal 0.000000 0.000000 0.000010
  outer loop
    vertex 0.041787 0.037388 1.000000
    vertex 0.034467 0.062053 1.000000
    vertex 0.034398 0.060861 1.000000
  endloop
endfacet
facet normal 0.000000 0.000000 0.000008
  outer loop
    vertex 0.041787 0.037388 1.000000
    vertex 0.055220 0.031961 1.000000
    vertex 0.055773 0.032355 1.000000
  endloop
endfacet
facet normal 0.000000 0.000000 -0.000010
  outer loop
    vertex 0.041787 0.037388 1.000000
    vertex 0.034349 0.059610 1.000000
    vertex 0.034398 0.060861 1.000000
  endloop
endfacet
facet normal 0.000000 0.000000 0.000001
  outer loop
    vertex 0.041787 0.037388 1.000000
    vertex 0.048811 0.033058 1.000000
    vertex 0.049733 0.032613 1.000000
  endloop
endfacet
facet normal 0.000000 0.000000 0.000010
  outer loop
    vertex 0.041787 0.037388 1.000000
    vertex 0.034772 0.065158 1.000000
    vertex 0.034656 0.064213 1.000000
  endloop
endfacet
facet normal 0.000000 0.000000 -0.000004
  outer loop
    vertex 0.041787 0.037388 1.000000
    vertex 0.035643 0.068167 1.000000
    vertex 0.035799 0.068114 1.000000
  endloop
endfacet
facet normal 0.000000 0.000000 -0.000020
  outer loop
    vertex 0.041787 0.037388 1.000000
    vertex 0.054201 0.051354 1.000000
    vertex 0.054809 0.050412 1.000000
  endloop
endfacet
facet normal 0.000000 0.000000 0.000019
  outer loop
    vertex 0.041787 0.037388 1.000000
    vertex 0.052828 0.052998 1.000000
    vertex 0.052064 0.053678 1.000000
  endloop
endfacet
facet normal 0.000000 0.000000 0.000020
  outer loop
    vertex 0.041787 0.037388 1.000000
    vertex 0.057300 0.043735 1.000000
    vertex 0.057027 0.044916 1.000000
  endloop
endfacet
facet normal -0.000000 0.000000 0.000017
  outer loop
    vertex 0.041787 0.037388 1.000000
    vertex 0.057681 0.036955 1.000000
    vertex 0.057772 0.037995 1.000000
  endloop
endfacet
facet normal 0.000000 0.000000 -0.000001
  outer loop
    vertex 0.041787 0.037388 1.000000
    vertex 0.037348 0.041776 1.000000
    vertex 0.036872 0.042578 1.000000
  endloop
endfacet
facet normal 0.000000 0.000000 0.000002
  outer loop
    vertex 0.041787 0.037388 1.000000
    vertex 0.036438 0.043446 1.000000
    vertex 0.036872 0.042578 1.000000
  endloop
endfacet
facet normal 0.000000 0.000000 -0.000001
  outer loop
    vertex 0.041787 0.037388 1.000000
    vertex 0.037865 0.041033 1.000000
    vertex 0.037348 0.041776 1.000000
  endloop
endfacet
facet normal 0.000000 0.000000 -0.000010
  outer loop
    vertex 0.041787 0.037388 1.000000
    vertex 0.034319 0.056981 1.000000
    vertex 0.034322 0.058313 1.000000
  endloop
endfacet
facet normal 0.000000 0.000000 -0.000000
  outer loop
    vertex 0.041787 0.037388 1.000000
    vertex 0.040329 0.038497 1.000000
    vertex 0.039655 0.039080 1.000000
  endloop
endfacet
facet normal 0.000000 0.000000 -0.000009
  outer loop
    vertex 0.041787 0.037388 1.000000
    vertex 0.034473 0.052897 1.000000
    vertex 0.034393 0.054261 1.000000
  endloop
endfacet
facet normal 0.000000 0.000000 0.000005
  outer loop
    vertex 0.041787 0.037388 1.000000
    vertex 0.035136 0.047692 1.000000
    vertex 0.035397 0.046514 1.000000
  endloop
endfacet
facet normal 0.000000 0.000000 -0.000007
  outer loop
    vertex 0.041787 0.037388 1.000000
    vertex 0.055220 0.031961 1.000000
    vertex 0.054598 0.031702 1.000000
  endloop
endfacet
facet normal 0.000000 0.000000 0.000011
  outer loop
    vertex 0.041787 0.037388 1.000000
    vertex 0.056258 0.032874 1.000000
    vertex 0.056675 0.033505 1.000000
  endloop
endfacet
facet normal 0.000000 0.000000 0.000005
  outer loop
    vertex 0.041787 0.037388 1.000000
    vertex 0.053908 0.031580 1.000000
    vertex 0.054598 0.031702 1.000000
  endloop
endfacet
facet normal 0.000000 0.000000 0.000003
  outer loop
    vertex 0.041787 0.037388 1.000000
    vertex 0.052358 0.031704 1.000000
    vertex 0.053158 0.031585 1.000000
  endloop
endfacet
facet normal 0.000000 0.000000 0.000002
  outer loop
    vertex 0.041787 0.037388 1.000000
    vertex 0.050636 0.032231 1.000000
    vertex 0.051514 0.031923 1.000000
  endloop
endfacet
facet normal 0.000000 0.000000 -0.000000
  outer loop
    vertex 0.041787 0.037388 1.000000
    vertex 0.046027 0.034634 1.000000
    vertex 0.045120 0.035197 1.000000
  endloop
endfacet
facet normal 0.000000 0.000000 -0.000009
  outer loop
    vertex 0.041787 0.037388 1.000000
    vertex 0.034899 0.065996 1.000000
    vertex 0.035037 0.066715 1.000000
  endloop
endfacet
facet normal 0.000000 0.000000 0.000007
  outer loop
    vertex 0.041787 0.037388 1.000000
    vertex 0.035333 0.067750 1.000000
    vertex 0.035182 0.067304 1.000000
  endloop
endfacet
facet normal 0.000000 0.000000 -0.000019
  outer loop
    vertex 0.041787 0.037388 1.000000
    vertex 0.057515 0.042550 1.000000
    vertex 0.057670 0.041373 1.000000
  endloop
endfacet
facet normal 0.000000 0.000000 -0.000015
  outer loop
    vertex 0.041787 0.037388 1.000000
    vertex 0.057527 0.035975 1.000000
    vertex 0.057308 0.035066 1.000000
  endloop
endfacet
facet normal 0.000000 0.000000 -0.000012
  outer loop
    vertex 0.041787 0.037388 1.000000
    vertex 0.057024 0.034240 1.000000
    vertex 0.056675 0.033505 1.000000
  endloop
endfacet
facet normal 0.000000 0.000000 0.000019
  outer loop
    vertex 0.041787 0.037388 1.000000
    vertex 0.057766 0.040215 1.000000
    vertex 0.057670 0.041373 1.000000
  endloop
endfacet
facet normal 0.000000 0.000000 0.000001
  outer loop
    vertex 0.041787 0.037388 1.000000
    vertex 0.037865 0.041033 1.000000
    vertex 0.038422 0.040341 1.000000
  endloop
endfacet
facet normal 0.000000 0.000000 0.000000
  outer loop
    vertex 0.041787 0.037388 1.000000
    vertex 0.040329 0.038497 1.000000
    vertex 0.041040 0.037935 1.000000
  endloop
endfacet
facet normal 0.000000 0.000000 -0.000010
  outer loop
    vertex 0.041787 0.037388 1.000000
    vertex 0.034553 0.063174 1.000000
    vertex 0.034656 0.064213 1.000000
  endloop
endfacet
facet normal 0.000000 0.000000 0.000010
  outer loop
    vertex 0.041787 0.037388 1.000000
    vertex 0.034349 0.059610 1.000000
    vertex 0.034322 0.058313 1.000000
  endloop
endfacet
facet normal 0.000000 0.000000 -0.000002
  outer loop
    vertex 0.041787 0.037388 1.000000
    vertex 0.052358 0.031704 1.000000
    vertex 0.051514 0.031923 1.000000
  endloop
endfacet
facet normal 0.000000 0.000000 -0.000000
  outer loop
    vertex 0.041787 0.037388 1.000000
    vertex 0.047881 0.033551 1.000000
    vertex 0.046950 0.034081 1.000000
  endloop
endfacet
facet normal 0.000000 0.000000 0.000000
  outer loop
    vertex 0.041787 0.037388 1.000000
    vertex 0.044237 0.035758 1.000000
    vertex 0.045120 0.035197 1.000000
  endloop
endfacet
facet normal 0.000000 0.000000 -0.000007
  outer loop
    vertex 0.041787 0.037388 1.000000
    vertex 0.034916 0.048932 1.000000
    vertex 0.034733 0.050220 1.000000
  endloop
endfacet
facet normal 0.000000 0.000000 -0.000000
  outer loop
    vertex 0.041787 0.037388 1.000000
    vertex 0.044237 0.035758 1.000000
    vertex 0.043387 0.036307 1.000000
  endloop
endfacet
facet normal 0.000000 0.000000 0.000000
  outer loop
    vertex 0.041787 0.037388 1.000000
    vertex 0.046027 0.034634 1.000000
    vertex 0.046950 0.034081 1.000000
  endloop
endfacet
facet normal 0.000000 0.000000 0.000000
  outer loop
    vertex 0.041787 0.037388 1.000000
    vertex 0.042570 0.036848 1.000000
    vertex 0.043387 0.036307 1.000000
  endloop
endfacet
facet normal 0.000000 0.000000 0.000009
  outer loop
    vertex 0.041787 0.037388 0.000000
    vertex 0.034342 0.055626 0.000000
    vertex 0.034393 0.054261 0.000000
  endloop
endfacet
facet normal 0.000000 0.000000 -0.000008
  outer loop
    vertex 0.041787 0.037388 0.000000
    vertex 0.055773 0.032355 0.000000
    vertex 0.055220 0.031961 0.000000
  endloop
endfacet
facet normal 0.000000 0.000000 0.000020
  outer loop
    vertex 0.041787 0.037388 0.000000
    vertex 0.053540 0.052220 0.000000
    vertex 0.052828 0.052998 0.000000
  endloop
endfacet
facet normal 0.000000 -0.000000 0.000413
  outer loop
    vertex 0.041787 0.037388 0.000000
    vertex 0.052064 0.053678 0.000000
    vertex 0.035799 0.068114 0.000000
  endloop
endfacet
facet normal 0.000000 0.000000 0.000001
  outer loop
    vertex 0.041787 0.037388 0.000000
    vertex 0.049733 0.032613 0.000000
    vertex 0.050636 0.032231 0.000000
  endloop
endfacet
facet normal 0.000000 0.000000 0.000010
  outer loop
    vertex 0.041787 0.037388 0.000000
    vertex 0.034467 0.062053 0.000000
    vertex 0.034398 0.060861 0.000000
  endloop
endfacet
facet normal 0.000000 0.000000 0.000002
  outer loop
    vertex 0.041787 0.037388 0.000000
    vertex 0.036438 0.043446 0.000000
    vertex 0.036872 0.042578 0.000000
  endloop
endfacet
facet normal 0.000000 0.000000 -0.000000
  outer loop
    vertex 0.041787 0.037388 0.000000
    vertex 0.039655 0.039080 0.000000
    vertex 0.039020 0.039692 0.000000
  endloop
endfacet
facet normal 0.000000 0.000000 -0.000000
  outer loop
    vertex 0.041787 0.037388 0.000000
    vertex 0.040329 0.038497 0.000000
    vertex 0.039655 0.039080 0.000000
  endloop
endfacet
facet normal 0.000000 0.000000 0.000020
  outer loop
    vertex 0.041787 0.037388 0.000000
    vertex 0.056307 0.047229 0.000000
    vertex 0.055863 0.048338 0.000000
  endloop
endfacet
facet normal 0.000000 0.000000 -0.000020
  outer loop
    vertex 0.041787 0.037388 0.000000
    vertex 0.053540 0.052220 0.000000
    vertex 0.054201 0.051354 0.000000
  endloop
endfacet
facet normal 0.000000 0.000000 0.000020
  outer loop
    vertex 0.041787 0.037388 0.000000
    vertex 0.055863 0.048338 0.000000
    vertex 0.055363 0.049403 0.000000
  endloop
endfacet
facet normal 0.000000 0.000000 -0.000020
  outer loop
    vertex 0.041787 0.037388 0.000000
    vertex 0.054809 0.050412 0.000000
    vertex 0.055363 0.049403 0.000000
  endloop
endfacet
facet normal 0.000000 0.000000 0.000000
  outer loop
    vertex 0.041787 0.037388 0.000000
    vertex 0.038422 0.040341 0.000000
    vertex 0.039020 0.039692 0.000000
  endloop
endfacet
facet normal 0.000000 0.000000 0.000009
  outer loop
    vertex 0.041787 0.037388 0.000000
    vertex 0.035037 0.066715 0.000000
    vertex 0.034899 0.065996 0.000000
  endloop
endfacet
facet normal 0.000000 0.000000 0.000004
  outer loop
    vertex 0.041787 0.037388 0.000000
    vertex 0.035799 0.068114 0.000000
    vertex 0.035643 0.068167 0.000000
  endloop
endfacet
facet normal 0.000000 0.000000 -0.000016
  outer loop
    vertex 0.041787 0.037388 0.000000
    vertex 0.057681 0.036955 0.000000
    vertex 0.057527 0.035975 0.000000
  endloop
endfacet
facet normal 0.000000 0.000000 -0.000017
  outer loop
    vertex 0.041787 0.037388 0.000000
    vertex 0.057772 0.037995 0.000000
    vertex 0.057681 0.036955 0.000000
  endloop
endfacet
facet normal 0.000000 0.000000 0.000009
  outer loop
    vertex 0.041787 0.037388 0.000000
    vertex 0.034393 0.054261 0.000000
    vertex 0.034473 0.052897 0.000000
  endloop
endfacet
facet normal 0.000000 0.000000 -0.000010
  outer loop
    vertex 0.041787 0.037388 0.000000
    vertex 0.056258 0.032874 0.000000
    vertex 0.055773 0.032355 0.000000
  endloop
endfacet
facet normal 0.000000 0.000000 0.000002
  outer loop
    vertex 0.041787 0.037388 0.000000
    vertex 0.050636 0.032231 0.000000
    vertex 0.051514 0.031923 0.000000
  endloop
endfacet
facet normal 0.000000 0.000000 0.000007
  outer loop
    vertex 0.041787 0.037388 0.000000
    vertex 0.054598 0.031702 0.000000
    vertex 0.055220 0.031961 0.000000
  endloop
endfacet
facet normal 0.000000 0.000000 0.000010
  outer loop
    vertex 0.041787 0.037388 0.000000
    vertex 0.034553 0.063174 0.000000
    vertex 0.034467 0.062053 0.000000
  endloop
endfacet
facet normal 0.000000 0.000000 -0.000019
  outer loop
    vertex 0.041787 0.037388 0.000000
    vertex 0.052064 0.053678 0.000000
    vertex 0.052828 0.052998 0.000000
  endloop
endfacet
facet normal 0.000000 0.000000 -0.000009
  outer loop
    vertex 0.041787 0.037388 0.000000
    vertex 0.034772 0.065158 0.000000
    vertex 0.034899 0.065996 0.000000
  endloop
endfacet
facet normal 0.000000 0.000000 0.000020
  outer loop
    vertex 0.041787 0.037388 0.000000
    vertex 0.057027 0.044916 0.000000
    vertex 0.056695 0.046085 0.000000
  endloop
endfacet
facet normal 0.000000 0.000000 0.000020
  outer loop
    vertex 0.041787 0.037388 0.000000
    vertex 0.057300 0.043735 0.000000
    vertex 0.057027 0.044916 0.000000
  endloop
endfacet
facet normal 0.000000 0.000000 0.000019
  outer loop
    vertex 0.041787 0.037388 0.000000
    vertex 0.057670 0.041373 0.000000
    vertex 0.057515 0.042550 0.000000
  endloop
endfacet
facet normal 0.000000 0.000000 -0.000001
  outer loop
    vertex 0.041787 0.037388 0.000000
    vertex 0.037348 0.041776 0.000000
    vertex 0.036872 0.042578 0.000000
  endloop
endfacet
facet normal 0.000000 0.000000 0.000019
  outer loop
    vertex 0.041787 0.037388 0.000000
    vertex 0.057766 0.040215 0.000000
    vertex 0.057670 0.041373 0.000000
  endloop
endfacet
facet normal 0.000000 0.000000 -0.000004
  outer loop
    vertex 0.041787 0.037388 0.000000
    vertex 0.035701 0.045409 0.000000
    vertex 0.035397 0.046514 0.000000
  endloop
endfacet
facet normal 0.000000 0.000000 0.000005
  outer loop
    vertex 0.041787 0.037388 0.000000
    vertex 0.035136 0.047692 0.000000
    vertex 0.035397 0.046514 0.000000
  endloop
endfacet
facet normal 0.000000 0.000000 -0.000008
  outer loop
    vertex 0.041787 0.037388 0.000000
    vertex 0.034586 0.051546 0.000000
    vertex 0.034473 0.052897 0.000000
  endloop
endfacet
facet normal 0.000000 0.000000 -0.000010
  outer loop
    vertex 0.041787 0.037388 0.000000
    vertex 0.034553 0.063174 0.000000
    vertex 0.034656 0.064213 0.000000
  endloop
endfacet
facet normal 0.000000 0.000000 0.000010
  outer loop
    vertex 0.041787 0.037388 0.000000
    vertex 0.034772 0.065158 0.000000
    vertex 0.034656 0.064213 0.000000
  endloop
endfacet
facet normal 0.000000 0.000000 -0.000020
  outer loop
    vertex 0.041787 0.037388 0.000000
    vertex 0.056307 0.047229 0.000000
    vertex 0.056695 0.046085 0.000000
  endloop
endfacet
facet normal 0.000000 0.000000 0.000020
  outer loop
    vertex 0.041787 0.037388 0.000000
    vertex 0.054809 0.050412 0.000000
    vertex 0.054201 0.051354 0.000000
  endloop
endfacet
facet normal 0.000000 0.000000 -0.000020
  outer loop
    vertex 0.041787 0.037388 0.000000
    vertex 0.057300 0.043735 0.000000
    vertex 0.057515 0.042550 0.000000
  endloop
endfacet
facet normal 0.000000 0.000000 -0.000000
  outer loop
    vertex 0.041787 0.037388 0.000000
    vertex 0.047881 0.033551 0.000000
    vertex 0.046950 0.034081 0.000000
  endloop
endfacet
facet normal 0.000000 0.000000 0.000006
  outer loop
    vertex 0.041787 0.037388 0.000000
    vertex 0.034916 0.048932 0.000000
    vertex 0.035136 0.047692 0.000000
  endloop
endfacet
facet normal 0.000000 0.000000 0.000000
  outer loop
    vertex 0.041787 0.037388 0.000000
    vertex 0.040329 0.038497 0.000000
    vertex 0.041040 0.037935 0.000000
  endloop
endfacet
facet normal 0.000000 0.000000 0.000001
  outer loop
    vertex 0.041787 0.037388 0.000000
    vertex 0.037348 0.041776 0.000000
    vertex 0.037865 0.041033 0.000000
  endloop
endfacet
facet normal 0.000000 0.000000 -0.000003
  outer loop
    vertex 0.041787 0.037388 0.000000
    vertex 0.036438 0.043446 0.000000
    vertex 0.036048 0.044387 0.000000
  endloop
endfacet
facet normal 0.000000 0.000000 -0.000001
  outer loop
    vertex 0.041787 0.037388 0.000000
    vertex 0.038422 0.040341 0.000000
    vertex 0.037865 0.041033 0.000000
  endloop
endfacet
facet normal 0.000000 0.000000 0.000010
  outer loop
    vertex 0.041787 0.037388 0.000000
    vertex 0.034322 0.058313 0.000000
    vertex 0.034319 0.056981 0.000000
  endloop
endfacet
facet normal 0.000000 0.000000 0.000010
  outer loop
    vertex 0.041787 0.037388 0.000000
    vertex 0.034349 0.059610 0.000000
    vertex 0.034322 0.058313 0.000000
  endloop
endfacet
facet normal 0.000000 0.000000 -0.000013
  outer loop
    vertex 0.041787 0.037388 0.000000
    vertex 0.057308 0.035066 0.000000
    vertex 0.057024 0.034240 0.000000
  endloop
endfacet
facet normal 0.000000 0.000000 0.000011
  outer loop
    vertex 0.041787 0.037388 0.000000
    vertex 0.056258 0.032874 0.000000
    vertex 0.056675 0.033505 0.000000
  endloop
endfacet
facet normal 0.000000 0.000000 -0.000005
  outer loop
    vertex 0.041787 0.037388 0.000000
    vertex 0.054598 0.031702 0.000000
    vertex 0.053908 0.031580 0.000000
  endloop
endfacet
facet normal 0.000000 0.000000 -0.000007
  outer loop
    vertex 0.041787 0.037388 0.000000
    vertex 0.035333 0.067750 0.000000
    vertex 0.035487 0.068042 0.000000
  endloop
endfacet
facet normal 0.000000 0.000000 0.000000
  outer loop
    vertex 0.041787 0.037388 0.000000
    vertex 0.046027 0.034634 0.000000
    vertex 0.046950 0.034081 0.000000
  endloop
endfacet
facet normal 0.000000 0.000000 -0.000008
  outer loop
    vertex 0.041787 0.037388 0.000000
    vertex 0.035037 0.066715 0.000000
    vertex 0.035182 0.067304 0.000000
  endloop
endfacet
facet normal 0.000000 0.000000 -0.000006
  outer loop
    vertex 0.041787 0.037388 0.000000
    vertex 0.035487 0.068042 0.000000
    vertex 0.035643 0.068167 0.000000
  endloop
endfacet
facet normal 0.000000 0.000000 0.000017
  outer loop
    vertex 0.041787 0.037388 0.000000
    vertex 0.057772 0.037995 0.000000
    vertex 0.057800 0.039085 0.000000
  endloop
endfacet
facet normal 0.000000 0.000000 -0.000012
  outer loop
    vertex 0.041787 0.037388 0.000000
    vertex 0.057024 0.034240 0.000000
    vertex 0.056675 0.033505 0.000000
  endloop
endfacet
facet normal 0.000000 0.000000 -0.000018
  outer loop
    vertex 0.041787 0.037388 0.000000
    vertex 0.057766 0.040215 0.000000
    vertex 0.057800 0.039085 0.000000
  endloop
endfacet
facet normal 0.000000 0.000000 0.000003
  outer loop
    vertex 0.041787 0.037388 0.000000
    vertex 0.035701 0.045409 0.000000
    vertex 0.036048 0.044387 0.000000
  endloop
endfacet
facet normal 0.000000 0.000000 -0.000010
  outer loop
    vertex 0.041787 0.037388 0.000000
    vertex 0.034349 0.059610 0.000000
    vertex 0.034398 0.060861 0.000000
  endloop
endfacet
facet normal 0.000000 0.000000 -0.000010
  outer loop
    vertex 0.041787 0.037388 0.000000
    vertex 0.034342 0.055626 0.000000
    vertex 0.034319 0.056981 0.000000
  endloop
endfacet
facet normal 0.000000 0.000000 0.000007
  outer loop
    vertex 0.041787 0.037388 0.000000
    vertex 0.034586 0.051546 0.000000
    vertex 0.034733 0.050220 0.000000
  endloop
endfacet
facet normal 0.000000 0.000000 0.000004
  outer loop
    vertex 0.041787 0.037388 0.000000
    vertex 0.053158 0.031585 0.000000
    vertex 0.053908 0.031580 0.000000
  endloop
endfacet
facet normal 0.000000 0.000000 -0.000001
  outer loop
    vertex 0.041787 0.037388 0.000000
    vertex 0.049733 0.032613 0.000000
    vertex 0.048811 0.033058 0.000000
  endloop
endfacet
facet normal 0.000000 0.000000 0.000003
  outer loop
    vertex 0.041787 0.037388 0.000000
    vertex 0.052358 0.031704 0.000000
    vertex 0.053158 0.031585 0.000000
  endloop
endfacet
facet normal 0.000000 0.000000 0.000015
  outer loop
    vertex 0.041787 0.037388 0.000000
    vertex 0.057308 0.035066 0.000000
    vertex 0.057527 0.035975 0.000000
  endloop
endfacet
facet normal 0.000000 0.000000 -0.000007
  outer loop
    vertex 0.041787 0.037388 0.000000
    vertex 0.034916 0.048932 0.000000
    vertex 0.034733 0.050220 0.000000
  endloop
endfacet
facet normal 0.000000 0.000000 -0.000000
  outer loop
    vertex 0.041787 0.037388 0.000000
    vertex 0.046027 0.034634 0.000000
    vertex 0.045120 0.035197 0.000000
  endloop
endfacet
facet normal 0.000000 0.000000 -0.000000
  outer loop
    vertex 0.041787 0.037388 0.000000
    vertex 0.044237 0.035758 0.000000
    vertex 0.043387 0.036307 0.000000
  endloop
endfacet
facet normal 0.000000 0.000000 0.000007
  outer loop
    vertex 0.041787 0.037388 0.000000
    vertex 0.035333 0.067750 0.000000
    vertex 0.035182 0.067304 0.000000
  endloop
endfacet
facet normal 0.000000 0.000000 -0.000002
  outer loop
    vertex 0.041787 0.037388 0.000000
    vertex 0.052358 0.031704 0.000000
    vertex 0.051514 0.031923 0.000000
  endloop
endfacet
facet normal 0.000000 0.000000 0.000001
  outer loop
    vertex 0.041787 0.037388 0.000000
    vertex 0.047881 0.033551 0.000000
    vertex 0.048811 0.033058 0.000000
  endloop
endfacet
facet normal 0.000000 0.000000 -0.000000
  outer loop
    vertex 0.041787 0.037388 0.000000
    vertex 0.043387 0.036307 0.000000
    vertex 0.042570 0.036848 0.000000
  endloop
endfacet
facet normal 0.000000 0.000000 0.000000
  outer loop
    vertex 0.041787 0.037388 0.000000
    vertex 0.044237 0.035758 0.000000
    vertex 0.045120 0.035197 0.000000
  endloop
endfacet
facet normal 0.000547 0.000747 0.000000
  outer loop
    vertex 0.041787 0.037388 0.000000
    vertex 0.041040 0.037935 0.000000
    vertex 0.041040 0.037935 1.000000
  endloop
endfacet
facet normal -0.000547 -0.000747 0.000000
  outer loop
    vertex 0.041787 0.037388 0.000000
    vertex 0.041787 0.037388 1.000000
    vertex 0.041040 0.037935 1.000000
  endloop
endfacet
facet normal 0.000540 0.000782 0.000000
  outer loop
    vertex 0.041787 0.037388 0.000000
    vertex 0.042570 0.036848 1.000000
    vertex 0.042570 0.036848 0.000000
  endloop
endfacet
facet normal 0.000540 0.000782 -0.000000
  outer loop
    vertex 0.041787 0.037388 0.000000
    vertex 0.041787 0.037388 1.000000
    vertex 0.042570 0.036848 1.000000
  endloop
endfacet
endsolid No41_A_0-0005_L0-0970.stl
